<?xml version="1.0" encoding="iso-8859-1"?>
<!-- Generator: Adobe Illustrator 19.0.0, SVG Export Plug-In . SVG Version: 6.00 Build 0)  -->
<svg version="1.1" id="Layer_1" xmlns="http://www.w3.org/2000/svg" xmlns:xlink="http://www.w3.org/1999/xlink" x="0px" y="0px"
	 viewBox="0 0 512 512" style="enable-background:new 0 0 512 512;" xml:space="preserve">
<g>
	<path style="fill:#6B4425;" d="M304.552,17.655V8.828c0-4.873-3.955-8.828-8.828-8.828H172.139c-4.873,0-8.828,3.955-8.828,8.828
		v8.828H39.725c-9.754,0-17.655,7.901-17.655,17.655v459.034c0,9.754,7.901,17.655,17.655,17.655h388.414
		c9.754,0,17.655-7.901,17.655-17.655V35.31c0-9.754-7.901-17.655-17.655-17.655H304.552z"/>
	<path style="fill:#434C6D;" d="M295.724,70.621H172.138c-4.873,0-8.828-3.955-8.828-8.828V8.828c0-4.873,3.955-8.828,8.828-8.828
		h123.586c4.873,0,8.828,3.955,8.828,8.828v52.966C304.551,66.666,300.597,70.621,295.724,70.621"/>
	<path style="fill:#ECE8D8;" d="M304.552,52.966v8.828c0,4.873-3.955,8.828-8.828,8.828H172.139c-4.873,0-8.828-3.955-8.828-8.828
		v-8.828H66.208c-4.873,0-8.828,3.955-8.828,8.828v406.069c0,4.873,3.955,8.828,8.828,8.828h335.448
		c4.873,0,8.828-3.955,8.828-8.828V61.793c0-4.873-3.955-8.828-8.828-8.828H304.552z"/>
	<g>
		<path style="fill:#C9B693;" d="M153.984,176.552h159.894l-28.072-39.318c-2.163-3.019-5.667-4.82-9.384-4.82h-84.983
			c-3.716,0-7.221,1.801-9.375,4.82L153.984,176.552z M331.039,194.207H136.832c-3.31,0-6.338-1.845-7.848-4.785
			c-1.518-2.94-1.262-6.479,0.662-9.172l38.056-53.274c5.464-7.645,14.336-12.217,23.737-12.217h84.983
			c9.41,0,18.273,4.573,23.746,12.217l38.047,53.274c1.924,2.692,2.18,6.232,0.662,9.172
			C337.368,192.362,334.349,194.207,331.039,194.207L331.039,194.207z"/>
		<path style="fill:#C9B693;" d="M163.311,229.517c-9.737,0-17.655,7.918-17.655,17.655s7.918,17.655,17.655,17.655
			s17.655-7.918,17.655-17.655S173.048,229.517,163.311,229.517 M163.311,282.483c-19.474,0-35.31-15.837-35.31-35.31
			s15.837-35.31,35.31-35.31s35.31,15.837,35.31,35.31S182.785,282.483,163.311,282.483"/>
		<path style="fill:#C9B693;" d="M304.552,229.517c-9.737,0-17.655,7.918-17.655,17.655s7.918,17.655,17.655,17.655
			s17.655-7.918,17.655-17.655S314.289,229.517,304.552,229.517 M304.552,282.483c-19.474,0-35.31-15.837-35.31-35.31
			s15.837-35.31,35.31-35.31s35.31,15.837,35.31,35.31S324.026,282.483,304.552,282.483"/>
		<path style="fill:#C9B693;" d="M338.742,238.345h13.815c2.737,0,4.961-2.225,4.961-4.961v-34.216c0-2.737-2.225-4.961-4.961-4.961
			H115.298c-2.728,0-4.952,2.225-4.952,4.961v34.216c0,2.737,2.225,4.961,4.952,4.961h13.824
			c3.919-15.219,17.77-26.483,34.189-26.483s30.27,11.264,34.189,26.483h72.863c3.919-15.219,17.77-26.483,34.189-26.483
			S334.822,223.126,338.742,238.345 M352.557,256h-21.522c-4.882,0-8.828-3.946-8.828-8.828c0-9.737-7.927-17.655-17.655-17.655
			c-9.737,0-17.655,7.918-17.655,17.655c0,4.882-3.946,8.828-8.828,8.828h-88.276c-4.882,0-8.828-3.946-8.828-8.828
			c0-9.737-7.927-17.655-17.655-17.655c-9.737,0-17.655,7.918-17.655,17.655c0,4.882-3.946,8.828-8.828,8.828h-21.53
			c-12.465,0-22.607-10.143-22.607-22.616v-34.216c0-12.473,10.143-22.616,22.607-22.616h237.259
			c12.473,0,22.616,10.143,22.616,22.616v34.216C375.173,245.857,365.03,256,352.557,256"/>
		<path style="fill:#C9B693;" d="M233.932,344.276H101.518c-4.882,0-8.828-3.946-8.828-8.828c0-4.882,3.946-8.828,8.828-8.828
			h132.414c4.882,0,8.828,3.946,8.828,8.828C242.759,340.33,238.813,344.276,233.932,344.276"/>
		<path style="fill:#C9B693;" d="M233.932,388.414H101.518c-4.882,0-8.828-3.946-8.828-8.828c0-4.882,3.946-8.828,8.828-8.828
			h132.414c4.882,0,8.828,3.946,8.828,8.828C242.759,384.468,238.813,388.414,233.932,388.414"/>
		<path style="fill:#C9B693;" d="M233.932,432.552H101.518c-4.882,0-8.828-3.946-8.828-8.828c0-4.882,3.946-8.828,8.828-8.828
			h132.414c4.882,0,8.828,3.946,8.828,8.828C242.759,428.606,238.813,432.552,233.932,432.552"/>
		<path style="fill:#C9B693;" d="M233.932,194.207c-4.882,0-8.828-3.946-8.828-8.828v-61.793c0-4.882,3.946-8.828,8.828-8.828
			c4.882,0,8.828,3.946,8.828,8.828v61.793C242.759,190.261,238.813,194.207,233.932,194.207"/>
	</g>
	<path style="fill:#C6E3F8;" d="M450.855,377.784c0,47.757-38.718,86.475-86.475,86.475s-86.475-38.718-86.475-86.475
		s38.718-86.475,86.475-86.475S450.855,330.027,450.855,377.784"/>
	<path style="fill:#E4F3FB;" d="M395.741,297.264L283.861,409.145c6.232,15.978,17.037,29.634,30.852,39.362l120.391-120.391
		C425.376,314.301,411.719,303.496,395.741,297.264"/>
	<path style="fill:#A2C9EC;" d="M286.735,377.784c0-42.814,34.834-77.647,77.647-77.647s77.647,34.834,77.647,77.647
		s-34.834,77.647-77.647,77.647S286.735,420.598,286.735,377.784 M487.483,496.913l-52.701-55.119
		c15.413-16.94,24.903-39.362,24.903-64.009c0-52.551-42.752-95.303-95.303-95.303s-95.303,42.752-95.303,95.303
		s42.752,95.303,95.303,95.303c21.548,0,41.393-7.274,57.37-19.385l52.974,55.402c1.73,1.818,4.052,2.737,6.382,2.737
		c2.198,0,4.387-0.812,6.1-2.454C490.723,506.023,490.855,500.435,487.483,496.913"/>
</g>
<g>
</g>
<g>
</g>
<g>
</g>
<g>
</g>
<g>
</g>
<g>
</g>
<g>
</g>
<g>
</g>
<g>
</g>
<g>
</g>
<g>
</g>
<g>
</g>
<g>
</g>
<g>
</g>
<g>
</g>
</svg>
