<?xml version="1.0" encoding="iso-8859-1"?>
<!-- Generator: Adobe Illustrator 19.0.0, SVG Export Plug-In . SVG Version: 6.00 Build 0)  -->
<svg xmlns="http://www.w3.org/2000/svg" xmlns:xlink="http://www.w3.org/1999/xlink" version="1.1" id="Layer_1" x="0px" y="0px" viewBox="0 0 512 512" style="enable-background:new 0 0 512 512;" xml:space="preserve" width="512" height="512">
<g>
	<g>
		<circle style="fill:#E7636C;" cx="256" cy="256" r="248.5"/>
		<path style="fill:#ECEAEC;" d="M379.785,415.14l13.899-27.608l21.456-7.747l0,0c26.614-34.166,42.473-77.122,42.473-123.785    c0-111.348-90.265-201.613-201.613-201.613c-46.663,0-89.619,15.86-123.785,42.474l-9.993,23.338L96.86,132.215    C70.247,166.381,54.387,209.337,54.387,256c0,111.348,90.265,201.613,201.613,201.613    C302.663,457.613,345.619,441.754,379.785,415.14L379.785,415.14z"/>
		<polygon style="fill:#A8C3DA;" points="341,140.85 364.665,253.245 341,365.64 220.43,318.69 172.05,253.25 220.43,187.8   "/>
		<path style="fill:#93ACC0;" d="M154.909,187.805c-17.254,0-31.242,13.987-31.242,31.242v68.398    c0,17.254,13.987,31.242,31.242,31.242h65.517V187.805H154.909z"/>
		<path style="fill:#93ACC0;" d="M388.33,158.88v225.19L341,365.64V140.85l13.35-5.2C370.7,129.28,388.33,141.34,388.33,158.88z"/>
		<path style="fill:#DD4452;" d="M96.86,132.215L379.785,415.14c13.195-10.278,25.077-22.161,35.355-35.355L132.216,96.86    C119.021,107.138,107.138,119.02,96.86,132.215z"/>
		<path style="fill:#E7636C;" d="M153.672,118.316c-13.429,10.006-25.349,21.927-35.356,35.355l240.012,240.012    c13.429-10.006,25.349-21.927,35.355-35.355L153.672,118.316z"/>
	</g>
	<g>
		<path d="M256,0C187.62,0,123.333,26.628,74.98,74.98C26.629,123.333,0,187.62,0,256c0,68.38,26.629,132.667,74.98,181.019    C123.333,485.372,187.62,512,256,512s132.667-26.628,181.02-74.981C485.371,388.667,512,324.38,512,256    c0-68.38-26.629-132.667-74.98-181.02C388.667,26.628,324.38,0,256,0z M426.413,426.413C380.894,471.932,320.374,497,256,497    s-124.894-25.068-170.413-70.587C40.068,380.894,15,320.374,15,256S40.068,131.106,85.587,85.587    C131.106,40.068,191.626,15,256,15s124.894,25.068,170.413,70.587C471.932,131.106,497,191.626,497,256    S471.932,380.894,426.413,426.413z"/>
		<path d="M256,46.887c-47.906,0-92.091,16.204-127.389,43.403c-0.346,0.19-0.684,0.404-1.004,0.653    C77.134,130.229,46.887,192.056,46.887,256c0,115.305,93.808,209.113,209.113,209.113c63.599,0,127.241-30.252,165.468-81.353    c27.75-37.095,43.645-81.221,43.645-127.759C465.113,140.695,371.306,46.887,256,46.887z M380.831,334.868l-32.33-32.33v-156.56    c4.736-1.845,9.737-4.553,14.927-4.553c9.596,0,17.403,7.831,17.403,17.455V334.868z M333.5,287.538l-97.682-97.682l97.682-38.037    V287.538z M405.008,380.259c-7.493,8.97-15.779,17.256-24.749,24.749L106.992,131.741c7.493-8.971,15.778-17.256,24.749-24.749    L405.008,380.259z M292.898,338.861l-64.968-25.299v-39.67L292.898,338.861z M212.926,258.888v52.298h-58.018    c-13.091,0-23.741-10.65-23.741-23.742v-68.398c0-11.249,7.996-20.876,18.719-23.198L212.926,258.888z M61.887,256    c0-41.809,13.287-80.574,35.859-112.292l40.431,40.431c-13.038,6.299-22.009,19.692-22.009,34.908v68.398    c0,21.362,17.379,38.742,38.741,38.742h64.104l100.249,39.037l49.031,49.031c-31.719,22.572-70.483,35.858-112.292,35.858    C148.966,450.113,61.887,363.035,61.887,256z M414.254,368.292l-18.424-18.424c0,0,0-190.799,0-190.989    c0-22.34-23.425-38.316-44.203-30.218l-127.395,49.609l-80.525-80.525C175.427,75.173,214.191,61.887,256,61.887    c107.034,0,194.113,87.079,194.113,194.113C450.113,297.809,436.827,336.574,414.254,368.292z"/>
	</g>
</g>















</svg>
