<?xml version="1.0" encoding="iso-8859-1"?>
<!-- Generator: Adobe Illustrator 19.0.0, SVG Export Plug-In . SVG Version: 6.00 Build 0)  -->
<svg version="1.1" id="Capa_1" xmlns="http://www.w3.org/2000/svg" xmlns:xlink="http://www.w3.org/1999/xlink" x="0px" y="0px"
	 viewBox="0 0 512 512" style="enable-background:new 0 0 512 512;" xml:space="preserve">
<path style="fill:#006684;" d="M512,276.868v-41.737h-23.27c-2.339-10.293-6.418-20.118-12.041-29.052l16.481-16.472l-29.511-29.511
	l-16.499,16.455c-8.934-5.632-18.759-9.719-29.052-12.067v-23.243h-41.737v23.27c-10.293,2.339-20.118,6.418-29.052,12.041
	l-16.472-16.481l-29.511,29.511l16.455,16.499c-5.632,8.934-9.719,18.759-12.067,29.052h-23.243v41.737h23.27
	c2.339,10.293,6.418,20.118,12.041,29.052l-16.481,16.472l29.511,29.511l16.499-16.455c8.934,5.632,18.759,9.719,29.052,12.067
	v23.243h41.737v-23.27c10.293-2.339,20.118-6.418,29.052-12.041l16.472,16.481l29.511-29.511L476.69,305.92
	c5.632-8.934,9.719-18.759,12.067-29.052H512L512,276.868z M397.241,297.728c-23.049,0-41.728-18.679-41.728-41.728
	c0-23.049,18.679-41.728,41.728-41.728s41.728,18.679,41.728,41.728S420.29,297.728,397.241,297.728L397.241,297.728z"/>
<path style="fill:#2996BF;" d="M256,135.627V93.89h-23.27c-2.339-10.293-6.418-20.118-12.041-29.052l16.481-16.472l-29.537-29.511
	L191.161,35.31c-8.934-5.632-18.759-9.719-29.052-12.067V0h-41.737v23.27c-10.293,2.339-20.118,6.418-29.052,12.041L74.849,18.856
	L45.338,48.366l16.455,16.472c-5.632,8.934-9.719,18.759-12.067,29.052H26.483v41.737h23.27
	c2.339,10.293,6.418,20.118,12.041,29.052l-16.455,16.472l29.511,29.511l16.472-16.455c8.934,5.632,18.759,9.719,29.052,12.067
	v23.243h41.737v-23.27c10.293-2.339,20.118-6.418,29.052-12.041l16.472,16.481l29.511-29.511l-16.455-16.499
	c5.632-8.934,9.719-18.759,12.067-29.052H256z M141.241,156.487c-23.049,0-41.728-18.679-41.728-41.728s18.679-41.728,41.728-41.728
	s41.728,18.679,41.728,41.728l0,0C182.969,137.807,164.29,156.487,141.241,156.487z"/>
<path style="fill:#89CEEA;" d="M229.517,418.11v-41.737h-23.27c-2.339-10.293-6.418-20.118-12.041-29.052l16.481-16.472
	l-29.511-29.511l-16.499,16.455c-8.934-5.632-18.759-9.719-29.052-12.067v-23.243H93.89v23.27
	c-10.293,2.339-20.118,6.418-29.052,12.041l-16.472-16.455l-29.511,29.511l16.455,16.472c-5.632,8.934-9.719,18.759-12.067,29.052H0
	v41.737h23.27c2.339,10.293,6.418,20.118,12.041,29.052l-16.455,16.472l29.511,29.511l16.472-16.455
	c8.934,5.632,18.759,9.719,29.052,12.067V512h41.737v-23.27c10.293-2.339,20.118-6.418,29.052-12.041l16.472,16.481l29.511-29.511
	l-16.455-16.499c5.632-8.934,9.719-18.759,12.067-29.052H229.517z M114.759,438.969c-23.049,0-41.728-18.679-41.728-41.728
	s18.679-41.728,41.728-41.728s41.728,18.679,41.728,41.728l0,0C156.487,420.29,137.807,438.969,114.759,438.969z"/>
<g>
	<path style="fill:#006684;" d="M22.625,274.759c-0.468-5.985-0.724-12.147-0.733-18.326h17.655c0,5.72,0.238,11.423,0.689,16.949
		L22.625,274.759z M40.174,239.448l-17.602-1.333c0.45-6.073,1.156-12.209,2.083-18.211l17.452,2.648
		C41.251,228.149,40.607,233.825,40.174,239.448z"/>
	<path style="fill:#006684;" d="M250.386,490.063l-0.327-17.655c5.614-0.106,11.299-0.441,16.914-0.98l1.713,17.567
		C262.621,489.587,256.468,489.931,250.386,490.063z M286.844,486.532l-3.081-17.382c5.561-0.989,11.132-2.207,16.561-3.61
		l4.414,17.081c-5.853,1.51-11.873,2.825-17.894,3.893V486.532z M322.313,477.316l-5.782-16.675
		c5.297-1.845,10.593-3.928,15.793-6.179l7.062,16.181c-5.57,2.419-11.308,4.661-17.073,6.656V477.316z M355.858,462.663
		l-8.307-15.581c4.97-2.648,9.887-5.535,14.627-8.563l9.516,14.866c-5.12,3.266-10.443,6.382-15.819,9.26L355.858,462.663z
		 M386.754,442.915l-10.646-14.124c4.476-3.381,8.889-6.991,13.135-10.743l11.705,13.241c-4.59,4.052-9.366,7.962-14.195,11.608
		L386.754,442.915L386.754,442.915z M414.19,418.613l-12.712-12.279c3.919-4.052,7.715-8.316,11.308-12.659l13.586,11.246
		c-3.849,4.679-7.945,9.295-12.182,13.674V418.613z"/>
	<path style="fill:#006684;" d="M428.138,121.026c-3.593-4.334-7.398-8.58-11.317-12.623l12.668-12.288
		c4.246,4.361,8.369,8.96,12.253,13.656L428.138,121.026z M404.533,96.724c-4.211-3.699-8.642-7.292-13.162-10.655l10.593-14.124
		c4.899,3.655,9.71,7.539,14.274,11.555L404.533,96.724z M377.388,76.482c-4.767-3.001-9.71-5.835-14.689-8.439l8.157-15.651
		c5.402,2.816,10.77,5.897,15.89,9.145L377.388,76.482z M347.374,60.822c-5.199-2.198-10.54-4.211-15.89-5.976l5.553-16.772
		c5.773,1.916,11.555,4.096,17.187,6.479L347.374,60.822z M315.198,50.167c-5.464-1.333-11.052-2.463-16.614-3.354l2.798-17.426
		c6.02,0.962,12.085,2.18,18.008,3.628L315.198,50.167z M281.75,44.809c-5.579-0.441-11.273-0.671-16.922-0.671V26.483
		c6.126,0,12.297,0.247,18.335,0.724L281.75,44.809z"/>
</g>
<g>
</g>
<g>
</g>
<g>
</g>
<g>
</g>
<g>
</g>
<g>
</g>
<g>
</g>
<g>
</g>
<g>
</g>
<g>
</g>
<g>
</g>
<g>
</g>
<g>
</g>
<g>
</g>
<g>
</g>
</svg>
