<?xml version="1.0" encoding="UTF-8" standalone="no"?>
<!-- Created with Inkscape (http://www.inkscape.org/) -->

<svg
   xmlns:dc="http://purl.org/dc/elements/1.1/"
   xmlns:cc="http://creativecommons.org/ns#"
   xmlns:rdf="http://www.w3.org/1999/02/22-rdf-syntax-ns#"
   xmlns:svg="http://www.w3.org/2000/svg"
   xmlns="http://www.w3.org/2000/svg"
   xmlns:sodipodi="http://sodipodi.sourceforge.net/DTD/sodipodi-0.dtd"
   xmlns:inkscape="http://www.inkscape.org/namespaces/inkscape"
   width="400"
   height="265"
   viewBox="0 0 105.83333 70.114588"
   version="1.1"
   id="svg3877"
   inkscape:version="0.92.3 (2405546, 2018-03-11)"
   sodipodi:docname="ms-logo-bg.svg"
   shape-rendering="crispEdges">
  <defs
     id="defs3871" />
  <sodipodi:namedview
     id="base"
     pagecolor="#bcbcbc"
     bordercolor="#666666"
     borderopacity="1.0"
     inkscape:pageopacity="0"
     inkscape:pageshadow="2"
     inkscape:zoom="0.98994949"
     inkscape:cx="-53.423182"
     inkscape:cy="97.258898"
     inkscape:document-units="mm"
     inkscape:current-layer="layer1"
     showgrid="false"
     units="px"
     inkscape:pagecheckerboard="false"
     showborder="true"
     inkscape:window-width="1920"
     inkscape:window-height="1013"
     inkscape:window-x="-9"
     inkscape:window-y="-9"
     inkscape:window-maximized="1"
     showguides="true"
     inkscape:guide-bbox="true"
     inkscape:snap-bbox="false"
     inkscape:showpageshadow="false"
     inkscape:snap-global="false">
    <sodipodi:guide
       position="0,65.965465"
       orientation="1,0"
       id="guide3928"
       inkscape:locked="false" />
    <sodipodi:guide
       position="3.6916602,70.108143"
       orientation="0,1"
       id="guide3930"
       inkscape:locked="false" />
    <sodipodi:guide
       position="1.0189651,0"
       orientation="0,1"
       id="guide3932"
       inkscape:locked="false" />
    <sodipodi:guide
       position="105.83333,34.773812"
       orientation="1,0"
       id="guide3934"
       inkscape:locked="false" />
  </sodipodi:namedview>
  <metadata
     id="metadata3874">
    <rdf:RDF>
      <cc:Work
         rdf:about="">
        <dc:format>image/svg+xml</dc:format>
        <dc:type
           rdf:resource="http://purl.org/dc/dcmitype/StillImage" />
        <dc:title />
      </cc:Work>
    </rdf:RDF>
  </metadata>
  <g
     inkscape:groupmode="layer"
     id="layer2"
     inkscape:label="BG"
     sodipodi:insensitive="true">
    <rect
       style="fill:#e6e6e6;stroke:none;stroke-width:0.26896214"
       id="rect3926"
       width="105.83333"
       height="70.108139"
       x="3.5527137e-015"
       y="0.0064415624" />
  </g>
  <g
     inkscape:label="Logo"
     inkscape:groupmode="layer"
     id="layer1"
     transform="translate(0,-226.88539)"
     style="opacity:1">
    <g
       id="g3940"
       transform="matrix(1.0409652,0,0,0.74385684,-2.1289702,66.663793)">
      <path
         style="clip-rule:evenodd;display:inline;fill:#ffffff;fill-rule:evenodd;stroke:#000000;stroke-width:0.38991264;image-rendering:optimizeQuality;shape-rendering:geometricPrecision;text-rendering:geometricPrecision"
         inkscape:connector-curvature="0"
         id="path4811"
         d="m 40.883497,265.19649 h -4.970274 l -0.461236,1.23772 h 4.970274 z m 11.637871,3.53096 h -9.128379 c -0.870079,0 -1.106896,-0.71067 -0.818076,-1.48538 l 0.790606,-2.12081 c 0.288492,-0.77376 0.770641,-1.1111 1.191619,-1.1111 h 9.56965 l 0.461202,-1.23774 H 44.387038 c -0.898853,0.003 -1.905984,0.63265 -2.545804,2.34884 l -0.745452,1.99934 c -0.394162,1.05785 -0.203476,3.13802 1.784001,3.13802 h 9.071125 l 0.570787,-1.53117 z m 47.779772,0 c 0.24174,0 0.44029,-0.0911 0.61268,-0.48593 0.11546,-0.30978 0.23746,-0.59293 0.25776,-0.93683 0.0212,-0.35978 -0.10567,-0.58265 -0.42098,-0.58265 h -8.352521 l -0.43667,1.17091 h -1.52461 c 0.636198,-1.7073 1.272754,-3.41416 1.909277,-5.121 h 1.52461 l -1.011045,2.71235 h 8.822539 c 1.02643,0 1.50463,0.60042 1.19814,1.48679 l -0.69411,2.00866 c -0.37387,1.08168 -0.95709,1.27887 -2.455858,1.27887 h -10.20092 l 0.570786,-1.53117 z m -11.896937,-4.71777 c 0.450731,0 0.551506,0.44948 0.314331,1.12793 -0.601846,1.72039 -1.272722,3.41369 -1.908951,5.12101 h 1.524609 c 0.636229,-1.70732 1.303193,-3.40202 1.909311,-5.12101 0.552451,-1.56667 0.44091,-2.36519 -0.663374,-2.36519 h -7.172971 c -0.562274,0 -1.186072,0.40042 -1.742147,1.03075 l -5.69609,6.45592 h 1.616512 l 4.816551,-5.46584 c 0.422936,-0.47985 0.857323,-0.78309 1.226297,-0.78309 h 5.776575 z m -14.594538,0.49248 -6.683614,5.11541 c -2.414001,1.84747 -4.137486,1.01531 -3.17058,-1.72414 0.60677,-1.71901 1.27308,-3.41416 1.909277,-5.12101 h 1.524611 c -0.636199,1.70685 -1.296309,3.40434 -1.908953,5.12101 -0.345746,0.96813 0.166154,1.30267 0.908999,0.73402 l 6.719305,-5.1439 c 2.384542,-1.82551 4.149557,-0.95129 3.134922,1.75266 l -1.884451,5.02241 h -1.52461 l 1.909311,-5.12101 c 0.113821,-0.30557 0.184456,-1.49097 -0.933564,-0.63545 z M 60.63345,264.00968 h 3.731873 l 0.461204,-1.23773 h -9.424735 l -0.461202,1.23773 h 4.167923 c -0.776219,2.08205 -1.558963,4.16268 -2.336813,6.24894 h 1.524611 c 0.775892,-2.08204 1.558962,-4.16269 2.336812,-6.24894 z"
         class="fil20" />
      <path
         class="fil32"
         d="m 15.349432,266.48327 c -1.199803,1.94095 -2.363295,3.93001 -3.525482,5.9158 -0.631956,1.07979 -1.263913,2.16054 -1.9046998,3.2296 -0.3362614,0.5616 -0.6888733,1.12231 -1.0813939,1.60544 -0.3503236,0.43127 -0.7134045,0.77189 -1.1271849,1.06719 l -0.3575188,0.25511 -0.00517,-0.0159 c -0.5878,0.35978 -1.2681672,0.64061 -1.8765723,0.67331 -0.5992475,0.0328 -1.1942411,-0.1719 -1.6027898,-0.83496 -0.01275,-0.0191 -0.02519,-0.0384 -0.037286,-0.058 -0.014056,-0.0209 -0.027792,-0.0425 -0.041541,-0.0644 -0.013736,-0.0206 -0.027472,-0.0421 -0.040887,-0.0635 -0.013736,-0.0206 -0.026818,-0.041 -0.0399,-0.0622 -0.014056,-0.0209 -0.027792,-0.0425 -0.04122,-0.064 -0.013736,-0.0206 -0.027138,-0.0415 -0.040233,-0.0627 -0.014056,-0.0209 -0.027792,-0.0425 -0.04122,-0.064 -0.013736,-0.0206 -0.027139,-0.0416 -0.040567,-0.0631 -0.013736,-0.0206 -0.027139,-0.0416 -0.040234,-0.0625 -0.013403,-0.02 -0.026486,-0.0406 -0.03958,-0.0616 -0.014056,-0.0215 -0.028125,-0.043 -0.041861,-0.065 -0.013736,-0.021 -0.027472,-0.0421 -0.040887,-0.0636 -0.013403,-0.0206 -0.026818,-0.041 -0.039913,-0.0622 -0.013736,-0.0206 -0.027472,-0.0416 -0.040554,-0.0631 -0.014056,-0.0209 -0.027792,-0.0424 -0.041541,-0.0644 -0.013736,-0.0206 -0.026818,-0.041 -0.0399,-0.0622 -0.013736,-0.021 -0.027472,-0.0421 -0.040887,-0.0635 -0.013736,-0.0206 -0.027139,-0.041 -0.040233,-0.0627 -0.013736,-0.0206 -0.027139,-0.0416 -0.040554,-0.0631 -0.014056,-0.0209 -0.027472,-0.0421 -0.040887,-0.0636 -0.046781,-0.0706 -0.090603,-0.14477 -0.131167,-0.22332 -0.2489235,-0.4822 -0.3607911,-1.03589 -0.3284082,-1.63258 0.026818,-0.49339 0.1507931,-0.96531 0.3182678,-1.39471 0.3261184,-0.83638 0.7945245,-1.66105 1.228259,-2.38855 0.617892,-1.03588 1.2789586,-2.03018 1.94657,-3.00065 1.6603574,-2.41285 3.4064152,-4.73085 5.1554179,-7.01241 1.459845,-1.90497 2.934085,-3.78701 4.408975,-5.66815 0.770977,-0.98356 1.542932,-1.96664 2.30998,-2.95672 0.31827,-0.41073 0.638824,-0.81722 0.959709,-1.22325 0.870088,-1.10224 1.752276,-2.21054 2.566427,-3.39733 0.153081,-0.22335 0.36864,-0.5322 0.407567,-0.85646 0.07065,-0.59014 0.242378,-0.83825 0.607749,-1.11906 0.377457,-0.29015 0.90244,-0.42146 1.328997,-0.41911 0.285884,0.001 0.581259,0.0602 0.848482,0.20885 0.220798,0.12294 0.421303,0.30651 0.577997,0.56209 0.0137,0.0206 0.02707,0.0416 0.04022,0.0627 0.0137,0.0206 0.02707,0.041 0.04025,0.0627 0.01403,0.0206 0.02741,0.0421 0.04087,0.0636 0.0137,0.0206 0.02739,0.0416 0.04055,0.0631 0.01403,0.0209 0.02773,0.0421 0.0412,0.064 0.01338,0.02 0.02675,0.0406 0.0396,0.0616 0.01403,0.0209 0.02773,0.0421 0.04121,0.064 0.0137,0.0206 0.02741,0.0416 0.04055,0.0631 0.01403,0.0209 0.02739,0.0421 0.04087,0.0636 0.0137,0.02 0.02675,0.0406 0.03993,0.0622 0.01403,0.0209 0.02773,0.0425 0.0412,0.0644 0.0137,0.02 0.02707,0.041 0.04022,0.0622 0.0137,0.0206 0.02741,0.0416 0.04057,0.0631 0.0137,0.0206 0.02739,0.0416 0.04055,0.0631 0.01403,0.0209 0.02773,0.0421 0.04121,0.064 0.0137,0.0206 0.02707,0.041 0.04022,0.0627 0.0137,0.0206 0.02739,0.0416 0.04057,0.0635 0.0137,0.0206 0.02707,0.0416 0.04055,0.0631 0.0137,0.0206 0.02707,0.0416 0.04055,0.0631 0.01403,0.0209 0.02773,0.0421 0.04092,0.0636 0.0798,0.11871 0.147818,0.25183 0.202463,0.39668 0.109259,0.2897 0.157345,0.60835 0.156334,0.93637 0,0.39435 -0.223408,1.08493 -0.336254,1.44705 -0.238774,0.76675 -0.498492,1.52462 -0.753285,2.28063 -0.39514,1.17184 -0.789627,2.34417 -1.165813,3.5291 -0.287514,0.90552 -0.566186,1.81945 -0.819379,2.74553 -0.005,0.0178 -0.0097,0.0356 -0.01436,0.0532 0.03468,-0.0537 0.06904,-0.10688 0.103709,-0.16081 1.150056,-1.78393 2.267129,-3.6202 3.375002,-5.45789 0.39351,-0.65227 0.787671,-1.30454 1.167413,-1.97364 0.351325,-0.61863 0.687579,-1.25034 1.005825,-1.90402 0.02218,-0.13315 0.04188,-0.2668 0.06117,-0.4009 0.06773,-0.46771 0.128897,-0.86393 0.324151,-1.26342 0.249605,-0.51071 0.779807,-1.013 1.155015,-1.31905 0.42848,-0.34949 0.935815,-0.6803 1.417963,-0.82607 0.299616,-0.0908 0.625431,-0.10327 0.913922,0.0616 0.152746,0.0874 0.287842,0.22005 0.395467,0.39807 0.01403,0.0206 0.02739,0.0416 0.04055,0.0631 0.01403,0.0206 0.02739,0.0416 0.04055,0.0631 0.01403,0.0206 0.02773,0.0416 0.04091,0.0636 0.01403,0.0206 0.02739,0.041 0.04022,0.0631 0.01404,0.0206 0.02739,0.0416 0.04087,0.0636 0.01403,0.0206 0.02741,0.0416 0.04055,0.0631 0.01338,0.0196 0.02642,0.0402 0.04025,0.0627 0.01403,0.0206 0.02773,0.0421 0.0412,0.064 0.01403,0.0206 0.02739,0.0416 0.04055,0.0631 0.0137,0.02 0.02707,0.0407 0.03992,0.0622 0.01436,0.0209 0.02805,0.0421 0.0412,0.0644 0.01403,0.0206 0.02742,0.0416 0.04055,0.0631 0.01403,0.0206 0.02739,0.0416 0.04055,0.0631 0.01403,0.0206 0.02739,0.0416 0.04057,0.0631 0.01403,0.0206 0.02773,0.0416 0.04087,0.0636 0.01403,0.0206 0.02739,0.041 0.04022,0.0631 0.01403,0.0206 0.02741,0.0416 0.04091,0.0636 0.01404,0.0206 0.02739,0.0415 0.04055,0.0631 0.01338,0.0196 0.02642,0.0396 0.04022,0.0627 0.01403,0.0206 0.02773,0.0421 0.0412,0.064 0.01469,0.0221 0.02904,0.0444 0.0432,0.0674 0.110232,0.18363 0.182856,0.40137 0.217829,0.63778 0.06149,0.41492 0,0.8462 -0.107594,1.234 -0.162892,0.58125 -0.272149,1.22466 -0.357852,1.83814 -0.113167,0.80834 -0.190718,1.63162 -0.249899,2.45117 -0.152125,2.10915 -0.190066,4.28276 -0.146219,6.40266 0.02284,1.10176 0.069,2.20726 0.153397,3.30295 0.06247,0.81393 0.145568,1.65639 0.285884,2.45116 0.02088,0.11819 0.04385,0.23549 0.06708,0.35277 0.171406,0.86768 0.233228,1.43678 -0.01305,2.32035 -0.105017,0.37754 -0.324151,0.81534 -0.494904,1.1396 -0.264319,0.50183 -0.561,0.98401 -0.87631,1.42136 -0.39155,0.54294 -0.856016,1.07841 -1.354183,1.40314 -0.549223,0.35743 -1.149435,0.45277 -1.678693,-0.0257 -0.128536,-0.11625 -0.243014,-0.25887 -0.343756,-0.421 -0.0137,-0.0206 -0.02742,-0.0416 -0.04057,-0.0631 -0.0137,-0.0209 -0.02739,-0.0421 -0.04087,-0.0635 -0.01501,-0.0229 -0.02969,-0.0453 -0.04055,-0.0636 -0.0137,-0.0206 -0.02707,-0.0415 -0.04025,-0.0627 -0.01403,-0.021 -0.02773,-0.0425 -0.0412,-0.064 -0.01338,-0.02 -0.02642,-0.0407 -0.03957,-0.0616 -0.01501,-0.0224 -0.02936,-0.0449 -0.04087,-0.0635 -0.01403,-0.021 -0.02739,-0.0421 -0.04091,-0.064 -0.0137,-0.0206 -0.02707,-0.0416 -0.04055,-0.0631 -0.0137,-0.0206 -0.02675,-0.041 -0.0399,-0.0622 -0.01435,-0.0215 -0.02839,-0.043 -0.04189,-0.0653 -0.01435,-0.022 -0.02839,-0.044 -0.04022,-0.0627 -0.01338,-0.02 -0.02675,-0.041 -0.0399,-0.0616 -0.01403,-0.0209 -0.02739,-0.0421 -0.04087,-0.0636 -0.0137,-0.0209 -0.02741,-0.0421 -0.04091,-0.0635 -0.0137,-0.0206 -0.02675,-0.041 -0.0399,-0.0622 -0.01469,-0.0224 -0.02871,-0.0444 -0.04022,-0.0625 -0.0137,-0.021 -0.02739,-0.0421 -0.04087,-0.0636 -0.01403,-0.0209 -0.02773,-0.0425 -0.04157,-0.0644 -0.01469,-0.022 -0.02871,-0.0438 -0.04055,-0.0631 -0.07588,-0.11395 -0.143935,-0.2383 -0.20478,-0.36913 -0.190685,-0.40929 -0.26037,-1.06579 -0.297659,-1.54705 -0.06182,-0.80224 -0.07259,-1.63396 -0.07259,-2.44041 v -0.55741 h 0.0045 c 0.0075,-0.57893 0.02577,-1.15878 0.04581,-1.73584 0.03197,-0.9172 0.07259,-1.83346 0.115128,-2.74973 3.25e-4,-0.007 0,-0.0159 0,-0.0229 -0.126255,0.22521 -0.252182,0.4509 -0.378143,0.67609 -0.664646,1.18868 -1.333892,2.37267 -2.011977,3.54547 l -0.260371,0.45041 c -1.204702,2.08299 -2.816972,4.83179 -4.707279,5.56631 -0.03892,0.0141 -0.07817,0.0285 -0.117422,0.0416 -0.828544,0.27426 -1.75031,0.0841 -2.513435,-0.44203 -0.40495,-0.27941 -0.77817,-0.66069 -1.072886,-1.13073 -0.01602,-0.0243 -0.03142,-0.0487 -0.04123,-0.064 -0.01471,-0.0224 -0.0291,-0.0449 -0.03794,-0.0588 -0.01635,-0.0247 -0.03239,-0.0494 -0.04188,-0.065 -0.01504,-0.0229 -0.03009,-0.0463 -0.03892,-0.0602 -0.01635,-0.0252 -0.03271,-0.0503 -0.04318,-0.0668 -0.01536,-0.0234 -0.03041,-0.0466 -0.03958,-0.0616 -0.0157,-0.0238 -0.03108,-0.0478 -0.04055,-0.0631 -0.0157,-0.0238 -0.03108,-0.0478 -0.04055,-0.0631 -0.01602,-0.0243 -0.03207,-0.0494 -0.04155,-0.065 -0.01471,-0.0224 -0.02943,-0.0453 -0.03794,-0.0588 -0.01635,-0.0247 -0.03239,-0.05 -0.04285,-0.0668 -0.0157,-0.0238 -0.03073,-0.0477 -0.04055,-0.0631 -0.01504,-0.0229 -0.03009,-0.0463 -0.03925,-0.0613 -0.01602,-0.0243 -0.03174,-0.0491 -0.04188,-0.065 -0.01602,-0.0243 -0.03174,-0.0491 -0.0412,-0.0644 -0.01504,-0.0229 -0.03008,-0.0463 -0.03892,-0.0602 -0.01602,-0.0243 -0.03171,-0.0491 -0.04188,-0.0653 -0.01504,-0.0234 -0.03009,-0.0466 -0.03925,-0.0613 -0.0157,-0.0238 -0.03106,-0.0478 -0.04023,-0.0627 -0.01635,-0.0247 -0.03271,-0.05 -0.04285,-0.0668 -0.313691,-0.47754 -0.545605,-1.04383 -0.666303,-1.67743 -0.0089,-0.0463 -0.01667,-0.0934 -0.0242,-0.1402 -0.03762,-0.23128 -0.0664,-0.46398 -0.087,-0.69761 z"
         id="path4814"
         inkscape:connector-curvature="0"
         style="clip-rule:evenodd;display:inline;fill:#2b2a29;fill-rule:nonzero;stroke-width:0.38991264;image-rendering:optimizeQuality;shape-rendering:geometricPrecision;text-rendering:geometricPrecision" />
      <path
         class="fil4"
         d="m 18.238375,258.52798 c -0.712098,1.21904 -2.847077,4.64721 -2.228858,8.45945 0.342145,2.10962 2.231148,3.21278 3.631788,2.66844 1.886385,-0.73311 3.587311,-3.88561 4.671304,-5.74291 2.000884,-3.4277 4.0433,-7.36891 4.518891,-7.66421 -0.06903,2.30024 -0.408874,7.76748 -0.408874,10.36629 0,1.64189 0.06574,3.08287 0.272148,3.52583 1.097759,2.35771 3.61283,-2.08345 3.883966,-3.05671 0.243048,-0.87189 0.06279,-1.3653 -0.07816,-2.16148 -0.25153,-1.42324 -0.407896,-3.58611 -0.45631,-5.93402 -0.08472,-4.09586 0.158324,-8.75336 0.795859,-11.02604 0.266244,-0.95084 -0.07722,-1.41529 -0.758896,-1.20923 -0.798109,0.24156 -1.933158,1.2284 -2.215452,1.80637 -0.190361,0.38969 -0.194927,0.83638 -0.323498,1.53724 -0.732699,1.51949 -1.425173,2.66843 -2.271697,4.07204 -2.033574,3.37258 -5.148877,8.44545 -5.552516,8.37163 -2.069232,-0.37941 3.281799,-13.6015 3.285062,-14.68223 0.0042,-1.498 -1.611944,-1.3452 -2.213496,-0.88311 -0.592038,0.45512 0.04189,0.48782 -0.875307,1.82507 -1.0634,1.54985 -2.41007,3.18147 -3.55165,4.65517 -4.469489,5.76906 -13.3198262,16.68577 -14.9301388,20.81433 -0.2587334,0.66351 -0.3869572,1.43492 -0.029753,2.12737 0.6522393,1.26345 2.3783441,0.41211 3.198709,-0.17384 0.7582168,-0.54154 1.2505016,-1.17372 2.0257292,-2.46799 2.7675906,-4.61919 6.6744686,-11.69326 9.6114956,-15.22656 z"
         id="path4816"
         inkscape:connector-curvature="0"
         style="clip-rule:evenodd;display:inline;fill:#e31e24;fill-rule:evenodd;stroke-width:0.38991264;image-rendering:optimizeQuality;shape-rendering:geometricPrecision;text-rendering:geometricPrecision" />
      <path
         class="fil41"
         d="m 18.238375,258.52798 c -0.08734,0.14953 -0.195932,0.33219 -0.318268,0.54433 h 3.667442 c 0.928954,-4.10661 3.412966,-10.47798 3.414924,-11.21435 0.0042,-1.49797 -1.611946,-1.3452 -2.213496,-0.88309 -0.592041,0.45509 0.04189,0.48781 -0.87531,1.82506 -1.0634,1.54986 -2.410071,3.18147 -3.551647,4.65515 -1.217137,1.57089 -2.759087,3.52398 -4.391314,5.61723 h 3.828702 c 0.148174,-0.18924 0.294717,-0.37099 0.438315,-0.54433 z m 8.81206,0.54433 c 0.865836,-1.53537 1.534102,-2.66983 1.781065,-2.82311 -0.02121,0.70275 -0.06737,1.70126 -0.121688,2.82311 h 3.33641 v -0.0831 c -0.08472,-4.09586 0.158323,-8.75335 0.795858,-11.02604 0.266242,-0.95084 -0.07722,-1.41528 -0.758897,-1.20923 -0.798109,0.24157 -1.933158,1.2284 -2.215452,1.80637 -0.190359,0.38968 -0.194928,0.83636 -0.323497,1.53725 -0.7327,1.51946 -1.425173,2.66842 -2.271697,4.07203 -0.903778,1.49891 -2.021144,3.33378 -3.019468,4.90325 h 2.799322 z"
         id="path4818"
         inkscape:connector-curvature="0"
         style="clip-rule:evenodd;display:inline;fill:#bc2322;fill-rule:evenodd;stroke-width:0.38991264;image-rendering:optimizeQuality;shape-rendering:geometricPrecision;text-rendering:geometricPrecision" />
    </g>
  </g>
</svg>
