<?xml version="1.0" encoding="UTF-8" standalone="no"?>
<!-- Created with Inkscape (http://www.inkscape.org/) -->

<svg
   xmlns:dc="http://purl.org/dc/elements/1.1/"
   xmlns:cc="http://creativecommons.org/ns#"
   xmlns:rdf="http://www.w3.org/1999/02/22-rdf-syntax-ns#"
   xmlns:svg="http://www.w3.org/2000/svg"
   xmlns="http://www.w3.org/2000/svg"
   xmlns:sodipodi="http://sodipodi.sourceforge.net/DTD/sodipodi-0.dtd"
   xmlns:inkscape="http://www.inkscape.org/namespaces/inkscape"
   width="97.379807"
   height="71.649811"
   viewBox="0 0 97.379807 71.64981"
   id="svg5871"
   version="1.1"
   inkscape:version="0.92.3 (2405546, 2018-03-11)"
   sodipodi:docname="m-logo2.svg">
  <defs
     id="defs5873">
    <mask
       id="id0">
      <linearGradient
         id="id1"
         gradientUnits="userSpaceOnUse"
         x1="614425"
         y1="-159234"
         x2="615682"
         y2="-159234">
        <stop
           offset="0"
           style="stop-opacity:0; stop-color:white"
           id="stop4195" />
        <stop
           offset="1"
           style="stop-opacity:1; stop-color:white"
           id="stop4197" />
      </linearGradient>
      <rect
         style="fill:url(#id1)"
         x="614421"
         y="-161417"
         width="1265"
         height="4366"
         id="rect4199" />
    </mask>
    <mask
       id="id2">
      <linearGradient
         id="id3"
         gradientUnits="userSpaceOnUse"
         x1="613818"
         y1="-167042"
         x2="615108"
         y2="-167042">
        <stop
           offset="0"
           style="stop-opacity:0; stop-color:white"
           id="stop4203" />
        <stop
           offset="1"
           style="stop-opacity:1; stop-color:white"
           id="stop4205" />
      </linearGradient>
      <rect
         style="fill:url(#id3)"
         x="613814"
         y="-172147"
         width="1298"
         height="10210"
         id="rect4207" />
    </mask>
    <mask
       id="id4">
      <linearGradient
         id="id5"
         gradientUnits="userSpaceOnUse"
         x1="615823"
         y1="-164426"
         x2="617356"
         y2="-164035">
        <stop
           offset="0"
           style="stop-opacity:0; stop-color:white"
           id="stop4211" />
        <stop
           offset="1"
           style="stop-opacity:1; stop-color:white"
           id="stop4213" />
      </linearGradient>
      <rect
         style="fill:url(#id5)"
         x="615544"
         y="-168159"
         width="2091"
         height="7856"
         id="rect4215" />
    </mask>
    <mask
       id="id6">
      <linearGradient
         id="id7"
         gradientUnits="userSpaceOnUse"
         x1="613796"
         y1="-163348"
         x2="612895"
         y2="-163118">
        <stop
           offset="0"
           style="stop-opacity:0; stop-color:white"
           id="stop4219" />
        <stop
           offset="1"
           style="stop-opacity:1; stop-color:white"
           id="stop4221" />
      </linearGradient>
      <rect
         style="fill:url(#id7)"
         x="612634"
         y="-166735"
         width="1424"
         height="7005"
         id="rect4223" />
    </mask>
    <mask
       id="id8">
      <linearGradient
         id="id9"
         gradientUnits="userSpaceOnUse"
         x1="614557"
         y1="-151601"
         x2="616131"
         y2="-151601">
        <stop
           offset="0"
           style="stop-opacity:0; stop-color:white"
           id="stop4227" />
        <stop
           offset="1"
           style="stop-opacity:1; stop-color:white"
           id="stop4229" />
      </linearGradient>
      <rect
         style="fill:url(#id9)"
         x="614553"
         y="-156234"
         width="1582"
         height="9267"
         id="rect4231" />
    </mask>
    <mask
       id="id10">
      <linearGradient
         id="id11"
         gradientUnits="userSpaceOnUse"
         x1="615947"
         y1="-153647"
         x2="617524"
         y2="-154049">
        <stop
           offset="0"
           style="stop-opacity:0; stop-color:white"
           id="stop4235" />
        <stop
           offset="1"
           style="stop-opacity:1; stop-color:white"
           id="stop4237" />
      </linearGradient>
      <rect
         style="fill:url(#id11)"
         x="615628"
         y="-158186"
         width="2216"
         height="8676"
         id="rect4239" />
    </mask>
    <mask
       id="id12">
      <linearGradient
         id="id13"
         gradientUnits="userSpaceOnUse"
         x1="614112"
         y1="-154845"
         x2="613260"
         y2="-155062">
        <stop
           offset="0"
           style="stop-opacity:0; stop-color:white"
           id="stop4243" />
        <stop
           offset="1"
           style="stop-opacity:1; stop-color:white"
           id="stop4245" />
      </linearGradient>
      <rect
         style="fill:url(#id13)"
         x="613095"
         y="-158215"
         width="1181"
         height="6522"
         id="rect4247" />
    </mask>
    <mask
       id="id14">
      <linearGradient
         id="id15"
         gradientUnits="userSpaceOnUse"
         x1="616244"
         y1="-159950"
         x2="618061"
         y2="-159486">
        <stop
           offset="0"
           style="stop-opacity:0; stop-color:white"
           id="stop4251" />
        <stop
           offset="1"
           style="stop-opacity:1; stop-color:white"
           id="stop4253" />
      </linearGradient>
      <rect
         style="fill:url(#id15)"
         x="616208"
         y="-161160"
         width="1889"
         height="2885"
         id="rect4255" />
    </mask>
    <mask
       id="id16">
      <linearGradient
         id="id17"
         gradientUnits="userSpaceOnUse"
         x1="613752"
         y1="-159358"
         x2="612569"
         y2="-159056">
        <stop
           offset="0"
           style="stop-opacity:0; stop-color:white"
           id="stop4259" />
        <stop
           offset="1"
           style="stop-opacity:1; stop-color:white"
           id="stop4261" />
      </linearGradient>
      <rect
         style="fill:url(#id17)"
         x="612512"
         y="-160803"
         width="1296"
         height="3193"
         id="rect4263" />
    </mask>
    <mask
       id="id18">
      <linearGradient
         id="id19"
         gradientUnits="userSpaceOnUse"
         x1="642812"
         y1="-183950"
         x2="654580"
         y2="-179290">
        <stop
           offset="0"
           style="stop-opacity:1; stop-color:white"
           id="stop4267" />
        <stop
           offset="1"
           style="stop-opacity:0; stop-color:white"
           id="stop4269" />
      </linearGradient>
      <rect
         style="fill:url(#id19)"
         x="639051"
         y="-185911"
         width="19291"
         height="8582"
         id="rect4271" />
    </mask>
    <mask
       id="id20">
      <linearGradient
         id="id21"
         gradientUnits="userSpaceOnUse"
         x1="643854"
         y1="-184104"
         x2="645691"
         y2="-186801">
        <stop
           offset="0"
           style="stop-opacity:1; stop-color:white"
           id="stop4275" />
        <stop
           offset="1"
           style="stop-opacity:0; stop-color:white"
           id="stop4277" />
      </linearGradient>
      <rect
         style="fill:url(#id21)"
         x="640230"
         y="-189958"
         width="9085"
         height="9012"
         id="rect4279" />
    </mask>
    <mask
       id="id22">
      <linearGradient
         id="id23"
         gradientUnits="userSpaceOnUse"
         x1="642509"
         y1="-185158"
         x2="644639"
         y2="-188286">
        <stop
           offset="0"
           style="stop-opacity:1; stop-color:white"
           id="stop4283" />
        <stop
           offset="1"
           style="stop-opacity:0; stop-color:white"
           id="stop4285" />
      </linearGradient>
      <rect
         style="fill:url(#id23)"
         x="637834"
         y="-192356"
         width="11481"
         height="11269"
         id="rect4287" />
    </mask>
    <mask
       id="id24">
      <linearGradient
         id="id25"
         gradientUnits="userSpaceOnUse"
         x1="641619"
         y1="-199480"
         x2="641619"
         y2="-198156">
        <stop
           offset="0"
           style="stop-opacity:0; stop-color:white"
           id="stop4291" />
        <stop
           offset="1"
           style="stop-opacity:1; stop-color:white"
           id="stop4293" />
      </linearGradient>
      <rect
         style="fill:url(#id25)"
         x="636303"
         y="-199671"
         width="10631"
         height="1706"
         id="rect4295" />
    </mask>
    <mask
       id="id26">
      <linearGradient
         id="id27"
         gradientUnits="userSpaceOnUse"
         x1="663255"
         y1="-198600"
         x2="662903"
         y2="-197338">
        <stop
           offset="0"
           style="stop-opacity:0; stop-color:white"
           id="stop4299" />
        <stop
           offset="1"
           style="stop-opacity:1; stop-color:white"
           id="stop4301" />
      </linearGradient>
      <rect
         style="fill:url(#id27)"
         x="655614"
         y="-199668"
         width="14930"
         height="3398"
         id="rect4303" />
    </mask>
  </defs>
  <sodipodi:namedview
     id="base"
     pagecolor="#000000"
     bordercolor="#666666"
     borderopacity="1.0"
     inkscape:pageopacity="0"
     inkscape:pageshadow="2"
     inkscape:zoom="1.8101934"
     inkscape:cx="91.417572"
     inkscape:cy="-38.496863"
     inkscape:document-units="px"
     inkscape:current-layer="layer1"
     showgrid="false"
     units="px"
     fit-margin-top="0"
     fit-margin-left="0"
     fit-margin-right="0"
     fit-margin-bottom="0"
     inkscape:window-width="1920"
     inkscape:window-height="1013"
     inkscape:window-x="-9"
     inkscape:window-y="-9"
     inkscape:window-maximized="1"
     inkscape:pagecheckerboard="true"
     borderlayer="false" />
  <metadata
     id="metadata5876">
    <rdf:RDF>
      <cc:Work
         rdf:about="">
        <dc:format>image/svg+xml</dc:format>
        <dc:type
           rdf:resource="http://purl.org/dc/dcmitype/StillImage" />
        <dc:title></dc:title>
      </cc:Work>
    </rdf:RDF>
  </metadata>
  <g
     inkscape:label="Layer 1"
     inkscape:groupmode="layer"
     id="layer1"
     transform="translate(-939.02068,-412.6139)"
     style="display:inline">
    <path
       style="clip-rule:evenodd;display:inline;fill:#2b2a29;fill-rule:nonzero;image-rendering:optimizeQuality;shape-rendering:geometricPrecision;text-rendering:geometricPrecision"
       inkscape:connector-curvature="0"
       id="path4814"
       d="m 978.12029,456.93969 c -3.67769,4.16497 -7.24408,8.4332 -10.80646,12.69442 -1.9371,2.3171 -3.8742,4.63621 -5.83837,6.93025 -1.03072,1.20517 -2.11156,2.40834 -3.31473,3.44507 -1.07383,0.92544 -2.18676,1.65636 -3.4551,2.29003 l -1.09588,0.54744 -0.016,-0.0351 c -1.80175,0.77203 -3.88724,1.37462 -5.75215,1.44481 -1.83684,0.0702 -3.66064,-0.36898 -4.91294,-1.79172 -0.0391,-0.0411 -0.0772,-0.0822 -0.1143,-0.12433 -0.0431,-0.0451 -0.0852,-0.0912 -0.12733,-0.13836 -0.0421,-0.0441 -0.0842,-0.0902 -0.12533,-0.13636 -0.0421,-0.0441 -0.0822,-0.0882 -0.12232,-0.13335 -0.0431,-0.0451 -0.0852,-0.0912 -0.12634,-0.13737 -0.0421,-0.0441 -0.0832,-0.0892 -0.12332,-0.13435 -0.0431,-0.0451 -0.0852,-0.0912 -0.12633,-0.13736 -0.0421,-0.0441 -0.0832,-0.0892 -0.12433,-0.13536 -0.0421,-0.0441 -0.0832,-0.0892 -0.12333,-0.13435 -0.0411,-0.0431 -0.0812,-0.0872 -0.12132,-0.13235 -0.0431,-0.0461 -0.0862,-0.0922 -0.12833,-0.13937 -0.0421,-0.0451 -0.0842,-0.0902 -0.12533,-0.13636 -0.0411,-0.0441 -0.0822,-0.0882 -0.12233,-0.13335 -0.0421,-0.0441 -0.0842,-0.0892 -0.12432,-0.13535 -0.0431,-0.0451 -0.0852,-0.0912 -0.12734,-0.13837 -0.0421,-0.0441 -0.0822,-0.0882 -0.12232,-0.13335 -0.0421,-0.0451 -0.0842,-0.0902 -0.12533,-0.13636 -0.0421,-0.0441 -0.0832,-0.0882 -0.12333,-0.13435 -0.0421,-0.0441 -0.0832,-0.0892 -0.12432,-0.13536 -0.0431,-0.0451 -0.0842,-0.0902 -0.12533,-0.13636 -0.14338,-0.1514 -0.27773,-0.31082 -0.40206,-0.47926 -0.76301,-1.03472 -1.10591,-2.22285 -1.00665,-3.50322 0.0822,-1.05879 0.46222,-2.07146 0.97557,-2.99288 0.99963,-1.79473 2.43541,-3.56439 3.76491,-5.1255 1.89399,-2.22285 3.92032,-4.35647 5.96671,-6.43895 5.0894,-5.17764 10.44149,-10.15173 15.80261,-15.04762 4.47478,-4.08777 8.99368,-8.1264 13.51458,-12.16303 2.36323,-2.11056 4.72946,-4.22011 7.08065,-6.34471 0.97557,-0.88132 1.95815,-1.75361 2.94174,-2.62491 2.66703,-2.36523 5.37115,-4.74349 7.86672,-7.29019 0.46923,-0.47926 1.12997,-1.14201 1.24929,-1.83784 0.21657,-1.26634 0.74295,-1.79874 1.8629,-2.40132 1.157,-0.62264 2.7662,-0.90439 4.0737,-0.89937 0.8763,0.003 1.7817,0.12934 2.6008,0.44818 0.6768,0.26369 1.2914,0.65773 1.7717,1.20617 0.042,0.0441 0.083,0.0892 0.1233,0.13436 0.042,0.0441 0.083,0.0882 0.1234,0.13435 0.043,0.0441 0.084,0.0902 0.1253,0.13636 0.042,0.0441 0.084,0.0892 0.1243,0.13536 0.043,0.0451 0.085,0.0902 0.1263,0.13736 0.041,0.0431 0.082,0.0872 0.1214,0.13235 0.043,0.0451 0.085,0.0902 0.1263,0.13736 0.042,0.0441 0.084,0.0892 0.1243,0.13535 0.043,0.0451 0.084,0.0902 0.1253,0.13636 0.042,0.0431 0.082,0.0872 0.1224,0.13335 0.043,0.0451 0.085,0.0912 0.1263,0.13837 0.042,0.0431 0.083,0.0882 0.1233,0.13335 0.042,0.0441 0.084,0.0892 0.1244,0.13536 0.042,0.0441 0.084,0.0892 0.1243,0.13535 0.043,0.0451 0.085,0.0902 0.1263,0.13736 0.042,0.0441 0.083,0.0882 0.1233,0.13436 0.042,0.0441 0.084,0.0892 0.1244,0.13636 0.042,0.0441 0.083,0.0892 0.1243,0.13535 0.042,0.0441 0.083,0.0892 0.1243,0.13536 0.043,0.0451 0.085,0.0902 0.1254,0.13636 0.2446,0.25467 0.4531,0.54042 0.6206,0.85124 0.3349,0.62164 0.4823,1.30544 0.4792,2.00929 0,0.84623 -0.6848,2.32813 -1.0307,3.10518 -0.7319,1.64533 -1.528,3.27161 -2.309,4.89388 -1.2112,2.51462 -2.4204,5.03025 -3.5735,7.57294 -0.8813,1.94312 -1.7355,3.90428 -2.5116,5.89152 -0.015,0.0381 -0.03,0.0762 -0.044,0.1143 0.1063,-0.11531 0.2116,-0.22961 0.3179,-0.34491 3.5252,-3.82808 6.9493,-7.76846 10.3452,-11.71184 1.2062,-1.39969 2.4144,-2.79937 3.5784,-4.23515 1.0769,-1.3275 2.1076,-2.68307 3.0831,-4.08576 0.068,-0.28575 0.1284,-0.57251 0.1875,-0.86026 0.2076,-1.00365 0.3951,-1.85389 0.9936,-2.71114 0.7651,-1.09589 2.3903,-2.17373 3.5404,-2.83046 1.3134,-0.74997 2.8685,-1.45984 4.3464,-1.77266 0.9184,-0.19452 1.9171,-0.22159 2.8014,0.13235 0.4682,0.18749 0.8823,0.47224 1.2122,0.85424 0.043,0.0441 0.084,0.0892 0.1243,0.13536 0.043,0.0441 0.084,0.0892 0.1243,0.13536 0.043,0.0441 0.085,0.0892 0.1254,0.13636 0.043,0.0441 0.084,0.0882 0.1233,0.13535 0.043,0.0441 0.084,0.0892 0.1253,0.13636 0.043,0.0441 0.084,0.0892 0.1243,0.13536 0.041,0.0421 0.081,0.0862 0.1234,0.13435 0.043,0.0441 0.085,0.0902 0.1263,0.13736 0.043,0.0441 0.084,0.0892 0.1243,0.13536 0.042,0.0431 0.083,0.0872 0.1224,0.13335 0.044,0.0451 0.086,0.0902 0.1263,0.13837 0.043,0.0441 0.084,0.0892 0.1243,0.13535 0.043,0.0441 0.084,0.0892 0.1243,0.13536 0.043,0.0441 0.084,0.0892 0.1244,0.13535 0.043,0.0441 0.085,0.0892 0.1253,0.13636 0.043,0.0441 0.084,0.0882 0.1233,0.13536 0.043,0.0441 0.084,0.0892 0.1254,0.13636 0.043,0.0441 0.084,0.0892 0.1243,0.13536 0.041,0.0421 0.081,0.0852 0.1233,0.13435 0.043,0.0441 0.085,0.0902 0.1263,0.13736 0.045,0.0471 0.089,0.0953 0.1324,0.14438 0.3379,0.39404 0.5605,0.86127 0.6677,1.36861 0.1885,0.89034 0,1.81578 -0.3298,2.64797 -0.4993,1.24728 -0.8342,2.62792 -1.0969,3.94438 -0.3469,1.73457 -0.5846,3.50122 -0.766,5.25985 -0.4663,4.52592 -0.5826,9.1902 -0.4482,13.73918 0.07,2.36422 0.2115,4.73647 0.4702,7.08766 0.1915,1.7466 0.4462,3.55436 0.8763,5.25985 0.064,0.25367 0.1344,0.50533 0.2056,0.75699 0.5254,1.86191 0.7149,3.08312 -0.04,4.97911 -0.3219,0.81014 -0.9936,1.74961 -1.517,2.44544 -0.8102,1.07684 -1.7196,2.11156 -2.6861,3.05003 -1.2002,1.16507 -2.6239,2.3141 -4.1509,3.01093 -1.6835,0.76702 -3.5233,0.97156 -5.1456,-0.0551 -0.394,-0.24966 -0.7449,-0.55547 -1.0537,-0.90338 -0.042,-0.0441 -0.084,-0.0892 -0.1244,-0.13536 -0.042,-0.0451 -0.084,-0.0902 -0.1253,-0.13636 -0.046,-0.0491 -0.091,-0.0972 -0.1243,-0.13636 -0.042,-0.0441 -0.083,-0.0892 -0.1234,-0.13435 -0.043,-0.0451 -0.085,-0.0912 -0.1263,-0.13736 -0.041,-0.0431 -0.081,-0.0872 -0.1213,-0.13235 -0.046,-0.0481 -0.09,-0.0962 -0.1253,-0.13636 -0.043,-0.0451 -0.084,-0.0902 -0.1254,-0.13736 -0.042,-0.0441 -0.083,-0.0892 -0.1243,-0.13536 -0.042,-0.0441 -0.082,-0.0882 -0.1223,-0.13335 -0.044,-0.0461 -0.087,-0.0922 -0.1284,-0.14037 -0.044,-0.0471 -0.087,-0.0943 -0.1233,-0.13435 -0.041,-0.0431 -0.082,-0.0882 -0.1223,-0.13235 -0.043,-0.0451 -0.084,-0.0902 -0.1253,-0.13636 -0.042,-0.0451 -0.084,-0.0902 -0.1254,-0.13636 -0.042,-0.0441 -0.082,-0.0882 -0.1223,-0.13335 -0.045,-0.0481 -0.088,-0.0953 -0.1233,-0.13435 -0.042,-0.0451 -0.084,-0.0902 -0.1253,-0.13636 -0.043,-0.0451 -0.085,-0.0912 -0.1274,-0.13837 -0.045,-0.0471 -0.088,-0.0942 -0.1243,-0.13535 -0.2326,-0.24465 -0.4412,-0.51135 -0.6277,-0.79209 -0.5845,-0.87831 -0.7981,-2.28702 -0.9124,-3.31974 -0.1895,-1.72153 -0.2225,-3.50623 -0.2225,-5.23679 v -1.19615 h 0.014 c 0.023,-1.24227 0.079,-2.48655 0.1404,-3.72481 0.098,-1.96818 0.2225,-3.93436 0.3529,-5.90053 10e-4,-0.016 0,-0.0331 0,-0.0491 -0.387,0.48327 -0.773,0.96755 -1.1591,1.45082 -2.0373,2.55071 -4.0887,5.0914 -6.1672,7.60803 l -0.7981,0.96655 c -3.6927,4.46976 -8.6347,10.3683 -14.42895,11.94445 -0.11931,0.0321 -0.23963,0.0612 -0.35994,0.0892 -2.53969,0.58855 -5.36513,0.18048 -7.70429,-0.9485 -1.24127,-0.59958 -2.38528,-1.41773 -3.28866,-2.42639 -0.0491,-0.0521 -0.0963,-0.10427 -0.12633,-0.13736 -0.0451,-0.0481 -0.0892,-0.0962 -0.11631,-0.12633 -0.0501,-0.0531 -0.0993,-0.10628 -0.12834,-0.13937 -0.0461,-0.0491 -0.0922,-0.0993 -0.11931,-0.12934 -0.0501,-0.0541 -0.10026,-0.10828 -0.13235,-0.14338 -0.0471,-0.0501 -0.0932,-0.10026 -0.12132,-0.13234 -0.0481,-0.0511 -0.0953,-0.10227 -0.12433,-0.13536 -0.0481,-0.0511 -0.0953,-0.10227 -0.12432,-0.13536 -0.0491,-0.0521 -0.0983,-0.10628 -0.12734,-0.13936 -0.0451,-0.0481 -0.0902,-0.0973 -0.1163,-0.12634 -0.0501,-0.0531 -0.0993,-0.10728 -0.13135,-0.14337 -0.0481,-0.0511 -0.0942,-0.10227 -0.12433,-0.13536 -0.0461,-0.0491 -0.0922,-0.0993 -0.12031,-0.13135 -0.0491,-0.0521 -0.0973,-0.10527 -0.12834,-0.13936 -0.0491,-0.0521 -0.0973,-0.10528 -0.12633,-0.13837 -0.0461,-0.0491 -0.0922,-0.0993 -0.11932,-0.12934 -0.0491,-0.0521 -0.0972,-0.10527 -0.12834,-0.14037 -0.0461,-0.0501 -0.0922,-0.10026 -0.12031,-0.13134 -0.0481,-0.0511 -0.0952,-0.10227 -0.12333,-0.13436 -0.0501,-0.0531 -0.10026,-0.10728 -0.13134,-0.14337 -0.96154,-1.0247 -1.67241,-2.2399 -2.04238,-3.59948 -0.0271,-0.0993 -0.0511,-0.20053 -0.0742,-0.30079 -0.1153,-0.49631 -0.20353,-0.99563 -0.2667,-1.49695 z"
       class="fil32" />
    <path
       style="clip-rule:evenodd;display:inline;fill:#e31e24;fill-rule:evenodd;image-rendering:optimizeQuality;shape-rendering:geometricPrecision;text-rendering:geometricPrecision"
       inkscape:connector-curvature="0"
       id="path4816"
       d="m 986.9756,439.86874 c -2.18275,2.61589 -8.72698,9.97226 -6.83199,18.1528 1.04876,4.52692 6.83901,6.89415 11.13231,5.72607 5.78223,-1.57314 10.99598,-8.33795 14.31868,-12.32344 6.1332,-7.35537 12.3937,-15.81264 13.8515,-16.44631 -0.2116,4.936 -1.2533,16.66789 -1.2533,22.24457 0,3.52328 0.2015,6.61542 0.8342,7.56592 3.3649,5.05933 11.0742,-4.47077 11.9053,-6.55927 0.745,-1.87092 0.1925,-2.92971 -0.2396,-4.63821 -0.771,-3.05404 -1.2503,-7.69526 -1.3987,-12.73353 -0.2597,-8.78914 0.4853,-18.78345 2.4395,-23.6603 0.8161,-2.04037 -0.2367,-3.03699 -2.3262,-2.59483 -2.4464,0.51837 -5.9256,2.63594 -6.7909,3.87621 -0.5835,0.8362 -0.5975,1.79472 -0.9916,3.29868 -2.2459,3.26059 -4.3685,5.72608 -6.9633,8.73801 -6.2334,7.23706 -15.78256,18.12272 -17.01981,17.9643 -6.3427,-0.81414 10.05951,-29.18685 10.06951,-31.50595 0.013,-3.21447 -4.941,-2.8866 -6.7849,-1.89499 -1.81474,0.97657 0.1284,1.04675 -2.68303,3.91631 -3.25958,3.32575 -7.38745,6.82697 -10.88667,9.9893 -13.70007,12.3796 -40.8285,35.80528 -45.7645,44.6646 -0.79308,1.42375 -1.18612,3.07911 -0.0912,4.56502 1.99927,2.71114 7.2902,0.88433 9.80482,-0.37298 2.32412,-1.16206 3.83309,-2.51863 6.20935,-5.29594 8.48334,-9.9121 20.45887,-25.09207 29.46157,-32.67403 z"
       class="fil4" />
    <path
       style="clip-rule:evenodd;display:inline;fill:#bc2322;fill-rule:evenodd;image-rendering:optimizeQuality;shape-rendering:geometricPrecision;text-rendering:geometricPrecision"
       inkscape:connector-curvature="0"
       id="path4818"
       d="m 986.9756,439.86874 c -0.2677,0.32084 -0.60058,0.71288 -0.97557,1.16808 h 11.2416 c 2.84747,-8.81221 10.46157,-22.48421 10.46757,-24.06437 0.013,-3.21446 -4.941,-2.8866 -6.7849,-1.89499 -1.81475,0.97657 0.1284,1.04676 -2.68304,3.91632 -3.25958,3.32575 -7.38745,6.82697 -10.88666,9.9893 -3.73082,3.37087 -8.45727,7.56191 -13.46044,12.05374 h 11.7359 c 0.45419,-0.40607 0.90338,-0.7961 1.34354,-1.16808 z m 27.0111,1.16808 c 2.654,-3.29468 4.7024,-5.72909 5.4594,-6.05796 -0.065,1.50798 -0.2065,3.65062 -0.373,6.05796 H 1029.3 v -0.17847 c -0.2597,-8.78915 0.4853,-18.78346 2.4395,-23.6603 0.8161,-2.04038 -0.2367,-3.037 -2.3262,-2.59484 -2.4464,0.51837 -5.9256,2.63595 -6.7909,3.87621 -0.5835,0.8362 -0.5975,1.79473 -0.9916,3.29869 -2.2459,3.26058 -4.3685,5.72607 -6.9633,8.738 -2.7703,3.21647 -6.1953,7.15384 -9.2554,10.52171 h 8.5806 z"
       class="fil41" />
  </g>
</svg>
