<?xml version="1.0" encoding="UTF-8" standalone="no"?>
<!-- Created with Inkscape (http://www.inkscape.org/) -->

<svg
   xmlns:dc="http://purl.org/dc/elements/1.1/"
   xmlns:cc="http://creativecommons.org/ns#"
   xmlns:rdf="http://www.w3.org/1999/02/22-rdf-syntax-ns#"
   xmlns:svg="http://www.w3.org/2000/svg"
   xmlns="http://www.w3.org/2000/svg"
   xmlns:xlink="http://www.w3.org/1999/xlink"
   xmlns:sodipodi="http://sodipodi.sourceforge.net/DTD/sodipodi-0.dtd"
   xmlns:inkscape="http://www.inkscape.org/namespaces/inkscape"
   width="600.00287"
   height="95.526588"
   viewBox="0 0 600.00287 95.526588"
   id="svg5871"
   version="1.1"
   inkscape:version="0.91 r13725"
   sodipodi:docname="ms-logo.svg">
  <defs
     id="defs5873">
    <linearGradient
       id="id35"
       gradientUnits="userSpaceOnUse"
       x1="658673"
       y1="-165736"
       x2="662469"
       y2="-152697">
      <stop
         offset="0"
         style="stop-color:#353534"
         id="stop4355" />
      <stop
         offset="1"
         style="stop-color:gray"
         id="stop4357" />
    </linearGradient>
    <linearGradient
       id="id37"
       gradientUnits="userSpaceOnUse"
       x1="670505"
       y1="-200657"
       x2="619479"
       y2="-211389">
      <stop
         offset="0"
         style="stop-color:#76ABBD"
         id="stop4367" />
      <stop
         offset="0.831373"
         style="stop-color:#BAD5DE"
         id="stop4369" />
      <stop
         offset="1"
         style="stop-color:white"
         id="stop4371" />
    </linearGradient>
    <linearGradient
       id="id36"
       gradientUnits="userSpaceOnUse"
       x1="609496"
       y1="-201138"
       x2="628497"
       y2="-199726">
      <stop
         offset="0"
         style="stop-color:#496D8C"
         id="stop4360" />
      <stop
         offset="0.388235"
         style="stop-color:white"
         id="stop4362" />
      <stop
         offset="1"
         style="stop-color:white"
         id="stop4364" />
    </linearGradient>
    <linearGradient
       id="id40"
       gradientUnits="userSpaceOnUse"
       x1="706241"
       y1="-155299"
       x2="692149"
       y2="-158032">
      <stop
         offset="0"
         style="stop-color:#737373"
         id="stop4380" />
      <stop
         offset="0.639216"
         style="stop-color:#989898"
         id="stop4382" />
      <stop
         offset="1"
         style="stop-color:#BDBEBE"
         id="stop4384" />
    </linearGradient>
    <linearGradient
       id="id41"
       gradientUnits="userSpaceOnUse"
       xlink:href="#id38"
       x1="689186"
       y1="-159763"
       x2="691394"
       y2="-159154" />
    <linearGradient
       id="id38"
       gradientUnits="userSpaceOnUse"
       x1="711442"
       y1="-162181"
       x2="713783"
       y2="-161611">
      <stop
         offset="0"
         style="stop-color:#737373"
         id="stop4374" />
      <stop
         offset="1"
         style="stop-color:#BDBEBE"
         id="stop4376" />
    </linearGradient>
    <linearGradient
       id="id39"
       gradientUnits="userSpaceOnUse"
       xlink:href="#id38"
       x1="701384"
       y1="-160812"
       x2="703605"
       y2="-160222" />
    <linearGradient
       inkscape:collect="always"
       xlink:href="#id38"
       id="linearGradient4837"
       gradientUnits="userSpaceOnUse"
       x1="711442"
       y1="-162181"
       x2="713783"
       y2="-161611" />
    <linearGradient
       id="id42"
       gradientUnits="userSpaceOnUse"
       xlink:href="#id38"
       x1="719486"
       y1="-163874"
       x2="721200"
       y2="-163332" />
    <linearGradient
       id="id43"
       gradientUnits="userSpaceOnUse"
       xlink:href="#id38"
       x1="725191"
       y1="-165809"
       x2="726369"
       y2="-165357" />
    <mask
       id="id0">
      <linearGradient
         id="id1"
         gradientUnits="userSpaceOnUse"
         x1="614425"
         y1="-159234"
         x2="615682"
         y2="-159234">
        <stop
           offset="0"
           style="stop-opacity:0; stop-color:white"
           id="stop4195" />
        <stop
           offset="1"
           style="stop-opacity:1; stop-color:white"
           id="stop4197" />
      </linearGradient>
      <rect
         style="fill:url(#id1)"
         x="614421"
         y="-161417"
         width="1265"
         height="4366"
         id="rect4199" />
    </mask>
    <mask
       id="id2">
      <linearGradient
         id="id3"
         gradientUnits="userSpaceOnUse"
         x1="613818"
         y1="-167042"
         x2="615108"
         y2="-167042">
        <stop
           offset="0"
           style="stop-opacity:0; stop-color:white"
           id="stop4203" />
        <stop
           offset="1"
           style="stop-opacity:1; stop-color:white"
           id="stop4205" />
      </linearGradient>
      <rect
         style="fill:url(#id3)"
         x="613814"
         y="-172147"
         width="1298"
         height="10210"
         id="rect4207" />
    </mask>
    <mask
       id="id4">
      <linearGradient
         id="id5"
         gradientUnits="userSpaceOnUse"
         x1="615823"
         y1="-164426"
         x2="617356"
         y2="-164035">
        <stop
           offset="0"
           style="stop-opacity:0; stop-color:white"
           id="stop4211" />
        <stop
           offset="1"
           style="stop-opacity:1; stop-color:white"
           id="stop4213" />
      </linearGradient>
      <rect
         style="fill:url(#id5)"
         x="615544"
         y="-168159"
         width="2091"
         height="7856"
         id="rect4215" />
    </mask>
    <mask
       id="id6">
      <linearGradient
         id="id7"
         gradientUnits="userSpaceOnUse"
         x1="613796"
         y1="-163348"
         x2="612895"
         y2="-163118">
        <stop
           offset="0"
           style="stop-opacity:0; stop-color:white"
           id="stop4219" />
        <stop
           offset="1"
           style="stop-opacity:1; stop-color:white"
           id="stop4221" />
      </linearGradient>
      <rect
         style="fill:url(#id7)"
         x="612634"
         y="-166735"
         width="1424"
         height="7005"
         id="rect4223" />
    </mask>
    <mask
       id="id8">
      <linearGradient
         id="id9"
         gradientUnits="userSpaceOnUse"
         x1="614557"
         y1="-151601"
         x2="616131"
         y2="-151601">
        <stop
           offset="0"
           style="stop-opacity:0; stop-color:white"
           id="stop4227" />
        <stop
           offset="1"
           style="stop-opacity:1; stop-color:white"
           id="stop4229" />
      </linearGradient>
      <rect
         style="fill:url(#id9)"
         x="614553"
         y="-156234"
         width="1582"
         height="9267"
         id="rect4231" />
    </mask>
    <mask
       id="id10">
      <linearGradient
         id="id11"
         gradientUnits="userSpaceOnUse"
         x1="615947"
         y1="-153647"
         x2="617524"
         y2="-154049">
        <stop
           offset="0"
           style="stop-opacity:0; stop-color:white"
           id="stop4235" />
        <stop
           offset="1"
           style="stop-opacity:1; stop-color:white"
           id="stop4237" />
      </linearGradient>
      <rect
         style="fill:url(#id11)"
         x="615628"
         y="-158186"
         width="2216"
         height="8676"
         id="rect4239" />
    </mask>
    <mask
       id="id12">
      <linearGradient
         id="id13"
         gradientUnits="userSpaceOnUse"
         x1="614112"
         y1="-154845"
         x2="613260"
         y2="-155062">
        <stop
           offset="0"
           style="stop-opacity:0; stop-color:white"
           id="stop4243" />
        <stop
           offset="1"
           style="stop-opacity:1; stop-color:white"
           id="stop4245" />
      </linearGradient>
      <rect
         style="fill:url(#id13)"
         x="613095"
         y="-158215"
         width="1181"
         height="6522"
         id="rect4247" />
    </mask>
    <mask
       id="id14">
      <linearGradient
         id="id15"
         gradientUnits="userSpaceOnUse"
         x1="616244"
         y1="-159950"
         x2="618061"
         y2="-159486">
        <stop
           offset="0"
           style="stop-opacity:0; stop-color:white"
           id="stop4251" />
        <stop
           offset="1"
           style="stop-opacity:1; stop-color:white"
           id="stop4253" />
      </linearGradient>
      <rect
         style="fill:url(#id15)"
         x="616208"
         y="-161160"
         width="1889"
         height="2885"
         id="rect4255" />
    </mask>
    <mask
       id="id16">
      <linearGradient
         id="id17"
         gradientUnits="userSpaceOnUse"
         x1="613752"
         y1="-159358"
         x2="612569"
         y2="-159056">
        <stop
           offset="0"
           style="stop-opacity:0; stop-color:white"
           id="stop4259" />
        <stop
           offset="1"
           style="stop-opacity:1; stop-color:white"
           id="stop4261" />
      </linearGradient>
      <rect
         style="fill:url(#id17)"
         x="612512"
         y="-160803"
         width="1296"
         height="3193"
         id="rect4263" />
    </mask>
    <linearGradient
       id="id30"
       gradientUnits="userSpaceOnUse"
       x1="631549"
       y1="-198200"
       x2="653182"
       y2="-179943">
      <stop
         offset="0"
         style="stop-color:#FEFEFE"
         id="stop4326" />
      <stop
         offset="0.211765"
         style="stop-color:#FFF7B2"
         id="stop4328" />
      <stop
         offset="0.588235"
         style="stop-color:#FEFEFE"
         id="stop4330" />
      <stop
         offset="1"
         style="stop-color:#FFF7B2"
         id="stop4332" />
    </linearGradient>
    <mask
       id="id18">
      <linearGradient
         id="id19"
         gradientUnits="userSpaceOnUse"
         x1="642812"
         y1="-183950"
         x2="654580"
         y2="-179290">
        <stop
           offset="0"
           style="stop-opacity:1; stop-color:white"
           id="stop4267" />
        <stop
           offset="1"
           style="stop-opacity:0; stop-color:white"
           id="stop4269" />
      </linearGradient>
      <rect
         style="fill:url(#id19)"
         x="639051"
         y="-185911"
         width="19291"
         height="8582"
         id="rect4271" />
    </mask>
    <radialGradient
       id="id34"
       gradientUnits="userSpaceOnUse"
       cx="644772"
       cy="-185452"
       r="4538.4302"
       fx="644772"
       fy="-185452">
      <stop
         offset="0"
         style="stop-color:white"
         id="stop4348" />
      <stop
         offset="0.780392"
         style="stop-color:#EBEFF5"
         id="stop4350" />
      <stop
         offset="1"
         style="stop-color:#D7DFEC"
         id="stop4352" />
    </radialGradient>
    <mask
       id="id20">
      <linearGradient
         id="id21"
         gradientUnits="userSpaceOnUse"
         x1="643854"
         y1="-184104"
         x2="645691"
         y2="-186801">
        <stop
           offset="0"
           style="stop-opacity:1; stop-color:white"
           id="stop4275" />
        <stop
           offset="1"
           style="stop-opacity:0; stop-color:white"
           id="stop4277" />
      </linearGradient>
      <rect
         style="fill:url(#id21)"
         x="640230"
         y="-189958"
         width="9085"
         height="9012"
         id="rect4279" />
    </mask>
    <radialGradient
       id="id33"
       gradientUnits="userSpaceOnUse"
       cx="643574"
       cy="-186159"
       r="5736.5098"
       fx="643574"
       fy="-186159">
      <stop
         offset="0"
         style="stop-color:white"
         id="stop4341" />
      <stop
         offset="0.8"
         style="stop-color:#E3E7ED"
         id="stop4343" />
      <stop
         offset="1"
         style="stop-color:#C8D0DC"
         id="stop4345" />
    </radialGradient>
    <mask
       id="id22">
      <linearGradient
         id="id23"
         gradientUnits="userSpaceOnUse"
         x1="642509"
         y1="-185158"
         x2="644639"
         y2="-188286">
        <stop
           offset="0"
           style="stop-opacity:1; stop-color:white"
           id="stop4283" />
        <stop
           offset="1"
           style="stop-opacity:0; stop-color:white"
           id="stop4285" />
      </linearGradient>
      <rect
         style="fill:url(#id23)"
         x="637834"
         y="-192356"
         width="11481"
         height="11269"
         id="rect4287" />
    </mask>
    <linearGradient
       id="id29"
       gradientUnits="userSpaceOnUse"
       x1="719249"
       y1="-192441"
       x2="732947"
       y2="-181903">
      <stop
         offset="0"
         style="stop-color:#FFF7B2"
         id="stop4317" />
      <stop
         offset="0.360784"
         style="stop-color:#FEFEFE"
         id="stop4319" />
      <stop
         offset="0.729412"
         style="stop-color:#FFF7B2"
         id="stop4321" />
      <stop
         offset="1"
         style="stop-color:#FEFEFE"
         id="stop4323" />
    </linearGradient>
    <linearGradient
       id="id32"
       gradientUnits="userSpaceOnUse"
       xlink:href="#id31"
       x1="674674"
       y1="-180402"
       x2="656793"
       y2="-196088" />
    <linearGradient
       id="id31"
       gradientUnits="userSpaceOnUse"
       x1="720576"
       y1="-177844"
       x2="708543"
       y2="-193058">
      <stop
         offset="0"
         style="stop-color:#E31E24"
         id="stop4335" />
      <stop
         offset="1"
         style="stop-color:#FEFEFE"
         id="stop4337" />
    </linearGradient>
    <mask
       id="id24">
      <linearGradient
         id="id25"
         gradientUnits="userSpaceOnUse"
         x1="641619"
         y1="-199480"
         x2="641619"
         y2="-198156">
        <stop
           offset="0"
           style="stop-opacity:0; stop-color:white"
           id="stop4291" />
        <stop
           offset="1"
           style="stop-opacity:1; stop-color:white"
           id="stop4293" />
      </linearGradient>
      <rect
         style="fill:url(#id25)"
         x="636303"
         y="-199671"
         width="10631"
         height="1706"
         id="rect4295" />
    </mask>
    <mask
       id="id26">
      <linearGradient
         id="id27"
         gradientUnits="userSpaceOnUse"
         x1="663255"
         y1="-198600"
         x2="662903"
         y2="-197338">
        <stop
           offset="0"
           style="stop-opacity:0; stop-color:white"
           id="stop4299" />
        <stop
           offset="1"
           style="stop-opacity:1; stop-color:white"
           id="stop4301" />
      </linearGradient>
      <rect
         style="fill:url(#id27)"
         x="655614"
         y="-199668"
         width="14930"
         height="3398"
         id="rect4303" />
    </mask>
    <linearGradient
       inkscape:collect="always"
       xlink:href="#id31"
       id="linearGradient4839"
       gradientUnits="userSpaceOnUse"
       x1="720576"
       y1="-177844"
       x2="708543"
       y2="-193058" />
    <linearGradient
       id="id28"
       gradientUnits="userSpaceOnUse"
       x1="145490"
       y1="-192068"
       x2="205073"
       y2="-185236">
      <stop
         offset="0"
         style="stop-color:#B2B3B3"
         id="stop4306" />
      <stop
         offset="0.180392"
         style="stop-color:#E7E7E7"
         id="stop4308" />
      <stop
         offset="0.45098"
         style="stop-color:silver"
         id="stop4310" />
      <stop
         offset="0.65098"
         style="stop-color:#FEFEFE"
         id="stop4312" />
      <stop
         offset="1"
         style="stop-color:#C3C3C3"
         id="stop4314" />
    </linearGradient>
  </defs>
  <sodipodi:namedview
     id="base"
     pagecolor="#ffffff"
     bordercolor="#666666"
     borderopacity="1.0"
     inkscape:pageopacity="0.0"
     inkscape:pageshadow="2"
     inkscape:zoom="1.8101934"
     inkscape:cx="343.68512"
     inkscape:cy="-14.620096"
     inkscape:document-units="px"
     inkscape:current-layer="layer1"
     showgrid="false"
     units="px"
     fit-margin-top="0"
     fit-margin-left="0"
     fit-margin-right="0"
     fit-margin-bottom="0"
     inkscape:window-width="1536"
     inkscape:window-height="811"
     inkscape:window-x="-8"
     inkscape:window-y="-8"
     inkscape:window-maximized="1" />
  <metadata
     id="metadata5876">
    <rdf:RDF>
      <cc:Work
         rdf:about="">
        <dc:format>image/svg+xml</dc:format>
        <dc:type
           rdf:resource="http://purl.org/dc/dcmitype/StillImage" />
        <dc:title></dc:title>
      </cc:Work>
    </rdf:RDF>
  </metadata>
  <g
     inkscape:label="Layer 1"
     inkscape:groupmode="layer"
     id="layer1"
     transform="translate(-800.00069,-412.61391)">
    <g
       style="clip-rule:evenodd;fill-rule:evenodd;image-rendering:optimizeQuality;shape-rendering:geometricPrecision;text-rendering:geometricPrecision"
       id="_174592320"
       transform="matrix(0.00100264,0,0,0.00100264,659.0281,646.2682)">
      <path
         class="fil4"
         d="m 610879,-167120 c -403,7660 -879,24166 9335,25942 8918,1551 13875,-848 14913,-1480 5611,2429 16653,2867 23109,2670 19222,-587 12309,-5457 27535,-6186 14239,-682 53872,-4165 51648,-25761 4491,-9936 -12311,-25372 -33330,-26376 -1076,-51 -8839,541 -12482,-134 -7728,-1431 -12592,-1782 -13732,-2025 -2473,-2215 -4633,-1512 -5446,270 -3730,-4193 -12399,-6921 -21955,-8645 319,58 636,116 953,176 13456,2843 16846,6767 18554,7902 -20096,-911 -40557,-243 -60836,-364 2390,-5415 5216,-8964 8892,-10356 -360,6 -701,14 -1020,24 -1822,57 -4167,2182 -5734,4324 -1004,1373 -1517,3794 -2863,3837 -2603,84 -32,-3830 -7563,-3165 -3029,268 -5202,1278 -5878,3830 -622,2344 7593,27810 9499,30875 906,1457 4040,2155 6401,4642 z"
         id="path4603"
         inkscape:connector-curvature="0"
         style="fill:#e31e24" />
      <path
         class="fil5"
         d="m 619494,-201127 c 14075,16728 24239,24069 30781,24293 6922,237 9312,3551 12746,3193 1573,-164 2438,-1198 1231,-2323 -2213,-2064 -1605,-2480 -2208,-4119 -1762,-4787 -26821,-18815 -31092,-21113 -69,0 -138,1 -208,1 -3750,26 -7501,54 -11249,68 z"
         id="path4605"
         inkscape:connector-curvature="0"
         style="fill:#fefefe;fill-opacity:0.2" />
      <path
         class="fil6"
         d="m 670149,-160569 1214,5096 c 509,2137 3,3331 -2726,3154 l -10583,-687 c -3042,-197 -3861,-1919 -7708,-8744 -440,-780 -2162,-4667 1743,-4393 l 14142,992 c 3328,233 3407,2441 3917,4582 z"
         id="path4607"
         inkscape:connector-curvature="0"
         style="fill:#2b2a29" />
      <path
         class="fil7"
         d="m 649597,-164113 374,337 1074,-968 -988,-890 c 106,-104 232,-196 383,-272 l 947,853 1074,-968 -116,-105 851,60 -50,45 1062,956 958,-863 994,70 868,782 743,-669 635,45 -1036,933 1062,956 1075,-968 -1016,-915 743,52 616,555 527,-475 635,45 -820,739 1062,956 1074,-967 -764,-689 743,52 364,328 312,-281 635,45 -605,545 1062,956 1075,-968 -513,-462 743,52 112,101 96,-87 629,44 3,3 -386,348 1062,956 1024,-922 c 154,70 296,148 426,233 l -1107,997 1062,956 1000,-901 c 76,139 143,284 204,433 l -862,776 1062,956 233,-210 c 38,171 74,343 112,516 l -2,2 4,3 c 32,145 64,290 99,435 l 82,344 -527,-474 -1074,968 1062,956 728,-656 121,508 -507,457 784,706 219,919 -1016,915 1062,956 327,-295 c 39,186 70,364 92,534 l -77,69 94,85 c 22,224 26,432 10,626 l -446,-402 -1074,968 804,724 c -132,82 -284,151 -457,205 l -689,-621 -853,769 c -57,-3 -115,-6 -175,-9 l -1037,-67 -755,-680 -654,589 -639,-41 950,-856 -1062,-956 -1074,968 918,827 -738,-48 -523,-471 -453,408 -639,-41 749,-674 -1062,-956 -1074,968 686,617 -738,-48 -290,-261 -251,226 -639,-41 547,-493 -1062,-956 -1088,980 438,394 -738,-48 -42,-38 -36,33 -279,-18 c -121,-8 -237,-18 -351,-31 l 324,-292 -1062,-956 -870,783 c -139,-73 -275,-156 -408,-249 l 936,-843 -1062,-956 -918,826 c -96,-112 -192,-230 -290,-356 l 865,-779 -1062,-956 -625,562 c -81,-126 -164,-257 -249,-393 l 531,-478 -1062,-956 -215,194 c -77,-132 -155,-267 -235,-405 l 108,-97 -338,-304 c -227,-397 -466,-820 -721,-1271 l 1084,-977 -1062,-956 -737,664 -230,-409 625,-563 -1062,-956 -157,141 c -107,-347 -192,-725 -217,-1095 z m 717,645 1062,956 1074,-968 -1062,-956 -1074,968 z m 1417,-1276 1062,956 1074,-968 -1062,-956 -1074,968 z m -13,2540 1062,956 1074,-968 -1062,-956 -1074,968 z m 1417,-1276 1062,956 1074,-968 -1062,-956 -1074,968 z m 1417,-1276 1062,956 1074,-968 -1062,-956 -1074,968 z m -1429,3816 1062,956 1074,-968 -1062,-956 -1074,968 z m 1417,-1276 1062,956 1074,-968 -1062,-956 -1074,968 z m 1417,-1276 1062,956 1075,-968 -1062,-956 -1075,968 z m -4263,3840 1062,956 1088,-980 -1062,-956 -1088,980 z m 2834,-23 1062,956 1074,-968 -1062,-956 -1074,968 z m 1417,-1276 1062,956 1074,-968 -1062,-956 -1074,968 z m 1417,-1276 1062,956 1075,-968 -1062,-956 -1074,968 z m 1417,-1276 1062,956 1075,-968 -1062,-956 -1075,968 z m -5680,5116 1062,956 1088,-980 -1062,-956 -1088,980 z m 2834,-23 1062,956 1074,-968 -1062,-956 -1074,968 z m 1417,-1276 1062,956 1074,-968 -1062,-956 -1074,968 z m 1417,-1276 1062,956 1075,-968 -1062,-956 -1074,968 z m 1417,-1276 1062,956 1075,-968 -1062,-956 -1075,968 z m 1417,-1276 1062,956 1074,-968 -1062,-956 -1074,968 z m -7097,6391 1062,956 1088,-980 -1062,-956 -1088,979 z m 2834,-23 1062,956 1074,-968 -1062,-956 -1074,968 z m 1417,-1276 1062,956 1074,-968 -1062,-956 -1074,968 z m 1417,-1276 1062,956 1074,-968 -1062,-956 -1074,968 z m 1417,-1276 1062,956 1075,-968 -1062,-956 -1074,968 z m 1417,-1276 1062,956 1074,-968 -1062,-956 -1074,967 z m 1417,-1276 1062,956 1074,-968 -1062,-956 -1074,968 z m -8514,7667 1062,956 1088,-979 -1062,-956 -1088,980 z m 2834,-23 1062,956 1074,-968 -1062,-956 -1074,968 z m 1417,-1276 1062,956 1074,-968 -1062,-956 -1074,968 z m 1417,-1276 1062,956 1074,-968 -1062,-956 -1074,968 z m 1417,-1276 1062,956 1074,-968 -1062,-956 -1074,968 z m 1417,-1276 1062,956 1074,-968 -1062,-956 -1074,968 z m 1417,-1276 1062,956 1074,-968 -1062,-956 -1074,968 z m -8514,7667 1062,956 1088,-980 -1062,-956 -1088,980 z m 2834,-23 1062,956 1074,-968 -1062,-956 -1074,968 z m 1417,-1276 1062,956 1074,-968 -1062,-956 -1074,968 z m 1417,-1276 1062,956 1074,-968 -1062,-956 -1074,968 z m 1417,-1276 1062,956 1074,-968 -1062,-956 -1074,968 z m 1417,-1276 1062,956 1074,-968 -1062,-956 -1074,968 z m 1417,-1276 1062,956 1074,-968 -1062,-956 -1074,968 z m -4263,6368 1062,956 1074,-968 -1062,-956 -1074,968 z m 1417,-1276 1062,956 1074,-968 -1062,-956 -1074,968 z m 1417,-1276 1062,956 1074,-968 -1062,-956 -1074,968 z m 1417,-1276 1062,956 1074,-968 -1062,-956 -1074,968 z m 2478,297 -1074,968 1062,956 1074,-968 -1062,-956 z m -1417,1276 -1074,968 1062,956 1074,-968 -1062,-956 z m -1417,1276 -1074,968 1062,956 1074,-968 -1062,-956 z m 2821,-11 -1074,968 1062,956 1074,-968 -1062,-956 z m -1417,1276 -1074,968 1062,956 1074,-968 -1062,-956 z"
         id="path4609"
         style="fill:url(#id35);fill-rule:nonzero"
         inkscape:connector-curvature="0" />
      <path
         class="fil8"
         d="m 618071,-211501 c -3693,1383 -6529,4938 -8926,10369 20279,121 40740,-546 60836,364 -1708,-1135 -5098,-5059 -18554,-7902 -12345,-2337 -26437,-2944 -33356,-2831 z"
         id="path4611"
         style="fill:url(#id37);fill-opacity:0.50196078"
         inkscape:connector-curvature="0" />
      <path
         class="fil9"
         d="m 632263,-205782 c -1018,2697 5226,4341 7087,4537 7003,-27 13995,-9 20954,151 1786,-1985 287,-3167 -913,-2953 -2500,446 -6298,-7189 -23824,-3656 -1618,326 -2938,947 -3305,1920 z"
         id="path4613"
         inkscape:connector-curvature="0"
         style="fill:#466788;fill-opacity:0.50196078" />
      <path
         class="fil10"
         d="m 652019,-202095 c -1207,-245 -11902,-818 -11940,848 5861,-20 11714,-6 17547,99 -308,-1128 -4542,-731 -5607,-947 z"
         id="path4615"
         inkscape:connector-curvature="0"
         style="fill:#2b2a29;fill-opacity:0.50196078" />
      <path
         class="fil11"
         d="m 629090,-208630 c 4030,5316 17037,6852 22313,6011 -7783,-390 -12635,-2634 -13752,-3749 -431,102 370,878 -319,1164 -1956,811 -6730,-2436 -8242,-3425 z"
         id="path4617"
         inkscape:connector-curvature="0"
         style="fill:#fefefe;fill-opacity:0.50196078" />
      <path
         class="fil12"
         d="m 630743,-201195 c -1987,-4473 -10126,-9709 -11110,-10319 -554,0 -1076,5 -1562,13 -3693,1383 -6529,4938 -8926,10369 7185,43 14392,-13 21598,-63 z"
         id="path4619"
         style="fill:url(#id36);fill-opacity:0.50196078"
         inkscape:connector-curvature="0" />
      <path
         class="fil6"
         d="m 677469,-154199 c 569,4943 15850,2905 29301,503 13954,-2491 21260,-3597 24086,-15424 619,-2589 884,-4235 -876,-3401 -9921,4698 -37612,5340 -48525,5340 -5941,0 -6903,1689 -6134,5691 902,4690 2108,6948 2147,7291 z"
         id="path4621"
         inkscape:connector-curvature="0"
         style="fill:#2b2a29" />
      <path
         class="fil13"
         d="m 728441,-162939 c -9753,7059 -33595,10283 -51132,8280 94,237 152,389 160,460 569,4943 15850,2905 29301,503 11002,-1964 17872,-3067 21671,-9244 z"
         id="path4623"
         style="fill:url(#id40);fill-opacity:0.50196078"
         inkscape:connector-curvature="0" />
      <path
         class="fil14"
         d="m 690222,-167250 -795,13171 2529,1467 1545,-14784 c -845,30 -2470,123 -3279,146 z"
         id="path4625"
         style="fill:url(#id41);fill-opacity:0.50196078"
         inkscape:connector-curvature="0" />
      <path
         class="fil15"
         d="m 701687,-167784 -1787,13126 2219,773 2350,-14084 c -879,68 -1905,126 -2782,185 z"
         id="path4627"
         style="fill:url(#id39);fill-opacity:0.50196078"
         inkscape:connector-curvature="0" />
      <path
         class="fil16"
         d="m 711722,-168608 -1828,12492 2546,592 1920,-13396 c -924,128 -1683,200 -2639,312 z"
         id="path4629"
         style="fill:url(#linearGradient4837);fill-opacity:0.50196078"
         inkscape:connector-curvature="0" />
      <path
         class="fil17"
         d="m 720635,-169863 -2231,11606 2355,548 2176,-12613 c -741,161 -1509,314 -2299,460 z"
         id="path4631"
         style="fill:url(#id42);fill-opacity:0.50196078"
         inkscape:connector-curvature="0" />
      <path
         class="fil18"
         d="m 725797,-171026 -1447,10463 1657,264 1685,-11309 c -596,203 -1229,397 -1894,582 z"
         id="path4633"
         style="fill:url(#id43);fill-opacity:0.50196078"
         inkscape:connector-curvature="0" />
      <path
         class="fil10"
         d="m 732749,-170302 c 1600,-1326 77,-3737 -2571,-2306 1250,-500 1309,469 970,2180 642,-1247 1488,-880 1600,126 z"
         id="path4635"
         inkscape:connector-curvature="0"
         style="fill:#2b2a29;fill-opacity:0.50196078" />
      <path
         class="fil19"
         d="m 729882,-172450 c 330,-189 750,-74 939,255 189,330 74,750 -255,939 -5005,2865 -14506,4241 -24129,4875 -9545,629 -19246,531 -24718,432 -2327,-42 -3813,307 -4571,1009 -480,445 -662,1083 -579,1899 10386,-284 23624,-1097 34541,-2561 8433,-1131 15448,-2641 18608,-4577 324,-197 746,-95 944,229 197,324 95,746 -229,944 -3338,2045 -10537,3612 -19141,4766 -10864,1457 -24018,2272 -34407,2564 l 786,2569 c 9934,-276 21658,-1213 31518,-2733 8326,-1284 15281,-2973 18611,-5014 324,-197 746,-95 944,229 197,324 95,746 -229,944 -3502,2146 -10632,3895 -19117,5203 -9766,1506 -21385,2442 -31311,2733 l 610,1994 c 9714,-271 20257,-1159 29127,-2609 7819,-1278 14309,-2985 17724,-5078 324,-197 746,-95 944,229 94,154 120,330 87,494 514,-589 948,-1213 1286,-1876 172,-339 587,-473 925,-301 339,172 473,587 301,925 -5112,10035 -28832,11749 -41498,12664 l -1135,82 c -2117,155 -4030,93 -5558,-395 -1636,-523 -2823,-1514 -3351,-3204 -6,-17 -12,-35 -17,-53 l -1012,-3308 c -5,-15 -10,-30 -14,-45 l -1020,-3335 c -65,-212 -120,-419 -165,-621 l -4,-17 c -349,-1578 -85,-2836 894,-3743 1024,-949 2826,-1424 5529,-1375 5439,98 15086,196 24611,-432 9446,-622 18738,-1953 23532,-4698 z m -50639,18053 c 461,716 1173,1184 2071,1471 1334,426 3081,474 5047,330 l 1135,-82 c 11214,-810 31280,-2261 38529,-9448 -3628,2125 -10173,3842 -17980,5118 -8769,1434 -19167,2321 -28802,2610 z"
         id="path4637"
         inkscape:connector-curvature="0"
         style="fill:#83c3e6;fill-rule:nonzero" />
      <path
         class="fil6"
         d="m 635127,-142658 c -13585,-4107 -14379,-18422 -15503,-29972 -240,-2468 -1870,-7976 -5113,-7194 -4005,966 -3653,10118 -3632,12703 -403,7660 -879,24166 9335,25942 8918,1551 13875,-848 14913,-1480 z m -16430,-17206 c 292,7476 -950,13594 -2774,13666 -1824,71 -3539,-5932 -3830,-13408 -292,-7476 950,-13594 2774,-13665 1824,-71 3539,5932 3830,13408 z"
         id="path4639"
         inkscape:connector-curvature="0"
         style="fill:#2b2a29" />
      <path
         class="fil20"
         d="m 605751,-202203 c -16,333 126,619 81,899 l 3389,0 c 2374,-5317 5178,-8807 8816,-10184 -360,6 -701,14 -1020,25 -1822,57 -4167,2182 -5734,4324 -1004,1373 -1517,3794 -2863,3837 -2603,84 -32,-3830 -7563,-3165 -3029,268 -5202,1278 -5878,3830 -62,232 -36,692 61,1334 l 1172,0 c -418,-2223 1406,-4084 5400,-4103 2014,-9 4253,873 4140,3204 z"
         id="path4641"
         inkscape:connector-curvature="0"
         style="fill:#fefefe" />
      <path
         class="fil21"
         d="m 635665,-173598 c -379,-22 -668,-347 -645,-726 22,-379 347,-668 726,-645 7810,489 12856,1452 17355,2310 4106,784 7751,1479 12619,1636 3917,126 6294,-144 8953,-445 1307,-148 2681,-304 4330,-426 2685,-197 6516,-203 10977,-209 12602,-17 30288,-41 41523,-4518 352,-140 751,33 890,385 140,352 -33,751 -385,890 -11477,4573 -29316,4598 -42028,4615 -4408,6 -8193,11 -10880,209 -1634,120 -2989,274 -4276,420 -2702,306 -5117,581 -9147,451 -4984,-160 -8673,-864 -12829,-1658 -4459,-851 -9461,-1806 -17183,-2289 z"
         id="path4643"
         inkscape:connector-curvature="0"
         style="fill:#fefefe;fill-rule:nonzero" />
      <path
         class="fil21"
         d="m 655062,-199827 c -379,-6 -681,-318 -675,-697 6,-379 318,-681 697,-675 7781,140 16202,3210 23755,7407 9548,5306 17738,12435 21480,17713 220,309 148,738 -161,957 -309,220 -738,148 -957,-161 -3643,-5140 -11657,-12103 -21028,-17310 -7379,-4100 -15579,-7099 -23109,-7234 z"
         id="path4645"
         inkscape:connector-curvature="0"
         style="fill:#fefefe;fill-rule:nonzero" />
      <path
         class="fil21"
         d="m 707571,-174934 c -379,22 -704,-267 -726,-645 -22,-379 267,-704 645,-726 3963,-244 7447,-675 10260,-1279 2677,-575 4722,-1300 5965,-2161 784,-543 855,-1091 465,-1663 -568,-831 -1850,-1761 -3456,-2777 -7937,-5027 -15147,-8872 -23366,-11375 -8222,-2504 -17479,-3674 -29520,-3355 -379,9 -693,-291 -702,-670 -9,-379 291,-693 670,-702 12194,-323 21588,868 29950,3414 8365,2547 15672,6441 23700,11526 1748,1107 3163,2147 3859,3165 873,1278 775,2461 -820,3567 -1397,968 -3610,1764 -6460,2376 -2877,618 -6430,1058 -10465,1306 z"
         id="path4647"
         inkscape:connector-curvature="0"
         style="fill:#fefefe;fill-rule:nonzero" />
      <path
         class="fil21"
         d="m 699421,-196487 c -379,31 -711,-251 -742,-629 -31,-379 251,-711 629,-742 3688,-309 8433,-112 13035,610 4092,642 8078,1702 11120,3193 1907,935 6810,3702 9794,6719 1963,1984 3134,4117 2297,6059 -563,1308 -1443,1893 -2617,1803 -1003,-77 -2191,-714 -3550,-1873 -1368,-1165 -3019,-2453 -4620,-3655 -2549,-1914 -5001,-3634 -5956,-4286 -1323,-903 -2184,-2078 -2407,-3068 -114,-507 -74,-984 135,-1390 218,-424 599,-743 1157,-909 l 109,-29 c -1797,-500 -3720,-902 -5672,-1208 -4485,-703 -9113,-895 -12712,-594 z m 32857,10119 c -2858,-2890 -7570,-5550 -9411,-6453 -157,337 -554,489 -897,340 -1965,-863 -3211,-1057 -3882,-857 -175,52 -282,129 -329,221 -56,109 -60,268 -16,460 153,679 810,1530 1842,2235 949,647 3403,2370 6004,4324 1634,1227 3314,2536 4690,3709 1133,965 2058,1491 2760,1545 530,41 950,-276 1251,-975 563,-1306 -424,-2941 -2012,-4547 z"
         id="path4649"
         inkscape:connector-curvature="0"
         style="fill:#fefefe;fill-rule:nonzero" />
      <path
         class="fil21"
         d="m 735619,-171322 c -328,189 -747,75 -936,-253 -189,-328 -75,-747 253,-936 3787,-2181 2794,-5311 1403,-7727 -390,-678 -844,-1349 -1234,-1925 -290,-429 -546,-807 -732,-1125 -191,-328 -81,-750 247,-941 328,-191 750,-81 941,247 169,289 410,645 683,1049 386,571 836,1236 1282,2011 1709,2967 2903,6827 -1908,9598 z"
         id="path4651"
         inkscape:connector-curvature="0"
         style="fill:#fefefe;fill-rule:nonzero" />
      <path
         class="fil21"
         d="m 670509,-148192 c 377,42 649,381 608,758 -42,377 -381,649 -758,608 -5372,-593 -9661,-1294 -13038,-2484 -3462,-1221 -5968,-2955 -7682,-5596 -722,-1113 -1636,-2759 -2401,-4415 -630,-1366 -1165,-2752 -1419,-3878 -278,-1233 -430,-2370 147,-3267 573,-891 1784,-1402 4164,-1279 1665,86 4400,406 7409,759 3028,355 6336,742 9072,953 379,28 663,358 635,737 -28,379 -358,663 -737,635 -2756,-212 -6082,-602 -9126,-958 -3001,-351 -5728,-671 -7323,-753 -1795,-93 -2630,172 -2937,650 -304,472 -172,1298 36,2223 229,1019 731,2312 1327,3603 740,1603 1617,3183 2304,4243 1534,2364 3815,3929 6988,5048 3260,1150 7456,1832 12731,2414 z"
         id="path4653"
         inkscape:connector-curvature="0"
         style="fill:#fefefe;fill-rule:nonzero" />
      <path
         class="fil21"
         d="m 619333,-166443 c -104,-364 107,-743 471,-847 364,-104 743,107 847,471 408,1415 749,2764 1091,4119 1705,6743 3451,13646 9864,16865 2614,1312 7283,2337 12302,3059 6598,949 13754,1366 17683,1229 3047,-106 6611,-2030 9558,-3622 l 132,-71 c 5768,-3114 8324,-3221 19052,-3669 l 313,-13 c 6968,-291 22304,-1930 33173,-7088 6647,-3155 11595,-7622 11775,-13890 10,-379 326,-677 705,-667 379,10 677,326 667,705 -198,6896 -5474,11731 -12560,15094 -11072,5255 -26638,6922 -33705,7217 l -313,13 c -10467,437 -12961,542 -18455,3507 l -132,71 c -3074,1660 -6789,3666 -10166,3783 -3998,139 -11254,-281 -17920,-1240 -5141,-739 -9957,-1805 -12721,-3193 -6980,-3504 -8803,-10714 -10585,-17758 -356,-1410 -711,-2813 -1075,-4075 z"
         id="path4655"
         inkscape:connector-curvature="0"
         style="fill:#fefefe;fill-rule:nonzero" />
      <path
         class="fil20"
         d="m 618697,-159864 c -292,-7476 -2007,-13479 -3830,-13408 -1824,71 -3065,6189 -2774,13665 292,7476 2007,13479 3830,13408 1823,-71 3065,-6189 2774,-13666 z"
         id="path4657"
         inkscape:connector-curvature="0"
         style="fill:#fefefe" />
      <path
         class="fil22"
         style="fill:#898989"
         d="m 615053,-161413 c 347,0 629,975 629,2179 0,1203 -282,2179 -629,2179 -347,0 -629,-975 -629,-2179 0,-1203 282,-2179 629,-2179 z"
         id="path4659"
         mask="url(#id0)"
         inkscape:connector-curvature="0" />
      <path
         class="fil22"
         style="fill:#898989"
         d="m 614789,-172143 c -414,96 -972,1583 -971,2306 l 657,7896 c 160,-408 414,-513 633,-292 l -318,-9910 z"
         id="path4661"
         mask="url(#id2)"
         inkscape:connector-curvature="0" />
      <path
         class="fil22"
         style="fill:#898989"
         d="m 617630,-163752 c 24,-521 -508,-3983 -968,-4402 l -1114,6150 c 189,314 423,1082 478,1699 l 1604,-3446 z"
         id="path4663"
         mask="url(#id4)"
         inkscape:connector-curvature="0" />
      <path
         class="fil22"
         style="fill:#898989"
         d="m 612640,-163912 c -24,-521 179,-1916 395,-2820 l 1019,5332 c -157,414 -238,1049 -293,1665 l -1121,-4177 z"
         id="path4665"
         mask="url(#id6)"
         inkscape:connector-curvature="0" />
      <path
         class="fil22"
         style="fill:#898989"
         d="m 616131,-147135 c -796,751 -1575,-1280 -1574,-2003 l 107,-7092 c 160,408 421,271 640,50 l 827,9045 z"
         id="path4667"
         mask="url(#id8)"
         inkscape:connector-curvature="0" />
      <path
         class="fil22"
         style="fill:#898989"
         d="m 617838,-154378 c 24,521 -316,4445 -775,4864 l -1432,-6938 c 226,-163 437,-1114 491,-1730 l 1715,3805 z"
         id="path4669"
         mask="url(#id10)"
         inkscape:connector-curvature="0" />
      <path
         class="fil22"
         style="fill:#898989"
         d="m 613101,-154516 c -24,521 179,1916 395,2820 l 776,-5074 c -226,-163 -293,-824 -348,-1441 l -823,3695 z"
         id="path4671"
         mask="url(#id12)"
         inkscape:connector-curvature="0" />
      <path
         class="fil22"
         style="fill:#898989"
         d="m 618072,-158279 c 24,-521 53,-2243 -72,-2877 l -1788,1539 c 68,323 62,586 19,1052 l 1841,286 z"
         id="path4673"
         mask="url(#id14)"
         inkscape:connector-curvature="0" />
      <path
         class="fil22"
         style="fill:#898989"
         d="m 612646,-157614 c -30,-411 -212,-2551 -87,-3185 l 1150,1345 c 6,363 60,696 94,996 l -1158,844 z"
         id="path4675"
         mask="url(#id16)"
         inkscape:connector-curvature="0" />
      <path
         class="fil21"
         d="m 609651,-168968 c 82,-370 448,-603 817,-522 370,82 603,448 522,817 -246,1103 -410,4316 -319,8050 82,3348 374,7092 1004,10073 585,2769 1414,4822 2553,5075 79,17 161,25 246,23 653,-16 1228,-691 1720,-1630 572,-1092 1002,-2511 1328,-3780 94,-367 467,-588 834,-495 367,94 588,467 495,834 -347,1350 -810,2871 -1441,4075 -711,1357 -1648,2336 -2903,2367 -196,5 -388,-14 -574,-56 -1773,-395 -2909,-2858 -3602,-6135 -648,-3064 -947,-6898 -1031,-10320 -94,-3837 86,-7189 351,-8378 z"
         id="path4677"
         inkscape:connector-curvature="0"
         style="fill:#fefefe;fill-rule:nonzero" />
      <path
         class="fil0 str3"
         d="m 732385,-175712 c 2867,2730 4886,1483 4270,-3946"
         id="path4679"
         inkscape:connector-curvature="0"
         style="fill:none;stroke:#fefefe;stroke-width:3" />
      <path
         class="fil23"
         d="m 717750,-177585 c 2677,-575 4722,-1300 5965,-2161 784,-543 855,-1091 465,-1663 -568,-831 -1850,-1761 -3456,-2777 -340,-216 -680,-429 -1018,-640 5732,3894 -4395,7535 -5890,7917 1422,-193 2738,-418 3933,-675 z"
         id="path4681"
         inkscape:connector-curvature="0"
         style="fill:#b5312c" />
      <path
         class="fil23"
         d="m 670359,-146826 c -5372,-593 -9661,-1294 -13038,-2484 -487,-172 -955,-354 -1405,-547 675,2260 506,3687 -2163,3882 -1610,118 -6401,287 -7486,205 8274,2353 17495,2553 23443,1372 492,-260 974,-520 1440,-771 l 132,-71 c 5768,-3114 8324,-3221 19052,-3669 l 313,-13 c 6968,-291 22304,-1930 33173,-7088 6647,-3155 11595,-7622 11775,-13890 10,-379 326,-677 705,-667 379,10 677,326 667,705 -198,6896 -5474,11731 -12560,15094 -11072,5255 -26638,6922 -33705,7217 l -313,13 c -10467,437 -12961,542 -18455,3507 l -132,71 c -3074,1660 -6789,3666 -10166,3783 -3998,139 -11254,-281 -17920,-1240 -5141,-739 -9957,-1805 -12721,-3193 -968,-486 -1837,-1043 -2620,-1661 1805,1547 4020,2787 6754,3613 5611,2429 16653,2867 23109,2670 19222,-587 12309,-5457 27535,-6186 14239,-682 53872,-4165 51648,-25761 175,-387 318,-783 429,-1186 -527,633 -1255,1239 -2228,1799 -328,189 -747,75 -936,-253 -189,-328 -75,-747 253,-936 3491,-2011 2920,-4828 1720,-7148 616,5429 -1403,6676 -4270,3946 -70,161 -201,296 -377,365 -11477,4573 -29316,4598 -42028,4615 -4408,6 -8193,11 -10880,209 -1634,120 -2989,274 -4276,420 -2702,306 -5117,581 -9147,451 -4984,-160 -8673,-864 -12829,-1658 -692,-132 -1396,-266 -2122,-401 698,696 2518,2963 3113,4300 1138,124 2393,271 3700,424 3028,355 6336,742 9072,953 379,28 663,358 635,737 -7,101 -37,196 -82,279 282,65 533,149 757,251 155,70 296,148 426,233 427,281 729,641 954,1053 76,139 144,283 204,433 191,470 316,989 433,1523 37,171 74,343 112,516 0,2 1,3 1,5 l 99,435 82,344 189,793 121,508 277,1163 219,919 326,1369 c 17,70 32,139 47,207 40,186 71,364 92,534 7,52 13,103 17,154 22,224 26,432 10,626 -46,574 -267,1010 -717,1289 -132,82 -284,151 -457,205 -397,125 -905,176 -1543,148 -57,-3 -116,-6 -175,-10 l -1037,-67 -1409,-91 -639,-41 -267,-17 -738,-48 -975,-63 -639,-41 -702,-46 -738,-48 -541,-35 -639,-41 -1164,-76 -738,-48 -78,-5 -279,-18 c -120,-8 -237,-18 -351,-31 -610,-68 -1129,-212 -1607,-465 -139,-73 -275,-156 -408,-249 -356,-247 -696,-566 -1044,-972 -96,-112 -192,-230 -290,-356 -194,-249 -392,-526 -598,-834 490,1550 1060,2976 1531,4237 760,398 1590,752 2491,1069 3260,1150 7456,1832 12731,2414 377,42 649,381 608,758 -42,377 -381,649 -758,608 z m 31328,-20958 c 3,0 5,0 8,-1 528,-35 1111,-70 1682,-108 299,-20 596,-40 880,-61 72,-5 143,-11 213,-15 -930,67 -1859,128 -2782,184 z m -26365,6294 c -562,-2919 -201,-4608 2341,-5308 1020,-375 2368,-553 4077,-523 1746,32 3926,63 6397,70 1675,-33 3477,-80 5365,-146 2605,-90 5371,-216 8186,-387 l -39,286 c 918,-40 1841,-85 2766,-137 l 56,-333 c 2434,-174 4876,-385 7253,-640 1,0 1,0 2,0 955,-113 1713,-184 2637,-312 l -1,7 c 2193,-273 4305,-588 6275,-950 791,-145 1558,-299 2299,-460 1007,-219 1965,-453 2863,-703 665,-185 1298,-379 1894,-582 840,-286 1606,-590 2289,-913 69,-33 135,-62 198,-87 2647,-1431 4171,980 2571,2306 -112,-1006 -959,-1372 -1600,-126 -79,399 -180,838 -292,1308 -448,1876 -1009,3482 -1691,4866 -4,96 -28,192 -74,283 -277,544 -609,1063 -991,1559 -2549,3769 -6370,5529 -11743,6837 -6300,1952 -13821,2969 -20415,3595 -3870,508 -7520,834 -10538,814 -1470,54 -2819,-21 -3979,-306 -2325,-411 -3787,-1262 -3956,-2728 -8,-71 -66,-222 -160,-460 -363,-916 -1271,-3106 -1987,-6831 z"
         id="path4683"
         inkscape:connector-curvature="0"
         style="fill:#b5312c" />
      <path
         class="fil5"
         d="m 665720,-171023 c 1817,59 3302,32 4638,-44 -2583,-544 -2343,-3444 -3069,-4374 -3,35 -6,70 -10,105 -518,4625 -13398,2232 -16533,2232 808,149 1589,298 2354,444 4106,784 7751,1479 12619,1636 z"
         id="path4685"
         inkscape:connector-curvature="0"
         style="fill:#fefefe;fill-opacity:0.2" />
      <path
         class="fil5"
         d="m 632339,-152400 c 275,495 2411,3422 460,4261 -2167,933 -9312,-8406 -9341,-8416 1501,4489 3704,8488 8148,10719 2614,1312 7283,2337 12302,3059 6598,949 13754,1366 17683,1229 2565,-89 5497,-1467 8119,-2850 -8552,1698 -23868,541 -33411,-5763 -2369,-1565 -4170,-2618 -3959,-2238 z"
         id="path4687"
         inkscape:connector-curvature="0"
         style="fill:#fefefe;fill-opacity:0.2" />
      <path
         class="fil24"
         d="m 623661,-201147 c 5652,6898 19419,20927 28929,23530 2090,572 5762,670 7121,-175 1360,-847 471,-1901 -1727,-4963 -1558,-2171 -5262,-5235 -6391,-6148 -8012,-5300 -18076,-10911 -20642,-12292 -69,0 -138,1 -208,1 -2361,16 -4722,33 -7083,47 z"
         id="path4689"
         style="fill:url(#id30)"
         inkscape:connector-curvature="0" />
      <path
         class="fil25"
         style="fill:#727271"
         d="m 647107,-182949 c 513,-1797 -2229,-3589 -3957,-2749 -1913,-148 -3218,-232 -4099,-52 4647,3830 9481,7021 13539,8132 1035,283 4754,289 5736,288 488,-4879 -9957,-6552 -11218,-5619 z"
         id="path4691"
         mask="url(#id18)"
         inkscape:connector-curvature="0" />
      <path
         class="fil26"
         style="fill:url(#id34)"
         d="m 644772,-189954 c 2507,0 4538,2032 4538,4538 0,2229 -1607,4083 -3726,4466 -1747,-1106 -3532,-2400 -5303,-3804 -32,-216 -48,-437 -48,-662 0,-2506 2032,-4538 4538,-4538 z m 106,3417 c 1214,0 2199,985 2199,2199 0,1214 -985,2199 -2199,2199 -1214,0 -2199,-985 -2199,-2199 0,-1214 985,-2199 2199,-2199 z"
         id="path4693"
         mask="url(#id20)"
         inkscape:connector-curvature="0" />
      <path
         class="fil27"
         style="fill:url(#id33)"
         d="m 643573,-192353 c 3169,0 5738,2569 5738,5737 0,214 -12,426 -35,634 -278,-2240 -2188,-3974 -4504,-3974 -2506,0 -4538,2032 -4538,4538 0,225 17,445 48,661 -820,-650 -1636,-1324 -2444,-2013 81,-3098 2618,-5585 5735,-5585 z m -382,9790 c 2154,1533 3296,2346 0,0 z"
         id="path4695"
         mask="url(#id22)"
         inkscape:connector-curvature="0" />
      <path
         class="fil28"
         d="m 719586,-190424 c 949,647 3403,2370 6004,4324 1634,1227 3314,2536 4690,3709 1133,965 2058,1491 2760,1545 530,41 950,-276 1251,-975 205,-477 204,-998 43,-1545 -17,-40 -30,-82 -39,-123 -308,-917 -1051,-1903 -2016,-2879 -2858,-2890 -7570,-5550 -9411,-6453 -157,337 -554,489 -897,340 -1965,-863 -3211,-1057 -3882,-857 -175,52 -282,129 -329,221 -56,109 -60,268 -16,460 153,679 810,1530 1842,2235 z"
         id="path4697"
         style="fill:url(#id29)"
         inkscape:connector-curvature="0" />
      <path
         class="fil23"
         d="m 630951,-201196 c 2566,1380 12630,6992 20642,12292 4651,3077 8611,6048 10009,8025 1429,1202 5311,4037 4401,6378 -580,1493 -8228,1559 -9491,1861 4745,352 10427,344 10768,-2696 l 5,-53 c -2600,-6926 -24861,-21568 -34058,-25822 -759,5 -1517,10 -2276,15 z"
         id="path4699"
         inkscape:connector-curvature="0"
         style="fill:#b5312c" />
      <path
         class="fil29"
         d="m 633208,-201211 c 9196,4254 31458,18896 34058,25822 l 5,-52 c 49,63 94,134 135,214 9033,-1941 21380,-1300 30855,-1277 -3968,-4983 -11460,-11283 -20107,-16088 -1897,-1054 -10257,-7115 -23207,-8598 -4951,-67 -9915,-74 -14885,-57 -243,1 -486,2 -729,3 -2040,8 -4082,20 -6123,33 z"
         id="path4701"
         style="fill:url(#id32)"
         inkscape:connector-curvature="0" />
      <path
         class="fil30"
         style="fill:#64221c"
         d="m 646930,-197969 c -3621,-1581 -6804,-1730 -10624,-1693 882,472 1821,994 2804,1559 1719,-164 7428,69 7819,134 z"
         id="path4703"
         mask="url(#id24)"
         inkscape:connector-curvature="0" />
      <path
         class="fil30"
         style="fill:#64221c"
         d="m 657735,-199664 c -290,5 -3577,1712 -1344,1786 2672,89 10230,757 14149,1604 -4253,-1735 -8604,-2961 -12805,-3390 z"
         id="path4705"
         mask="url(#id26)"
         inkscape:connector-curvature="0" />
      <path
         class="fil31"
         d="m 714316,-175591 -5876,3091 c 8360,-491 16734,-1600 23062,-4121 352,-140 751,33 890,385 70,176 62,364 -8,525 2867,2730 4886,1483 4270,-3946 -102,-197 -208,-390 -317,-579 -230,-399 -482,-796 -730,-1173 -17,44 -35,88 -54,132 -563,1308 -1443,1893 -2617,1803 -1003,-77 -2191,-714 -3550,-1873 -1368,-1165 -3019,-2453 -4620,-3655 -2549,-1914 -5001,-3634 -5956,-4286 -1323,-903 -2184,-2078 -2407,-3068 -114,-507 -74,-984 135,-1390 218,-424 599,-743 1157,-909 l 109,-29 c -1797,-500 -3720,-902 -5672,-1208 -4485,-703 -9113,-895 -12712,-594 -379,31 -711,-251 -742,-629 -31,-379 251,-711 629,-742 3359,-282 7596,-143 11802,429 -2268,-463 -4618,-766 -7022,-881 -1053,-50 -8507,515 -12240,-92 2037,438 4000,949 5908,1530 8365,2547 15672,6441 23700,11526 1748,1107 3163,2147 3859,3165 873,1278 775,2461 -820,3567 -1397,968 -3610,1764 -6460,2376 -1138,245 -2382,461 -3719,649 z"
         id="path4707"
         style="fill:url(#linearGradient4839)"
         inkscape:connector-curvature="0" />
      <path
         class="fil21"
         d="m 644265,-177843 c -374,-59 -629,-411 -570,-785 59,-374 411,-629 785,-570 312,50 522,88 795,136 3192,564 12815,2264 14359,292 620,-791 -434,-2509 -4606,-5777 -1801,-1411 -8948,-6088 -15231,-10035 -5149,-3235 -9514,-6094 -9548,-6067 -297,235 -728,184 -963,-113 -235,-297 -184,-728 113,-963 505,-399 5539,2469 11129,5981 6309,3964 13504,8675 15344,10116 4968,3892 5959,6277 4842,7703 -2056,2624 -12284,818 -15677,219 l -774,-136 z"
         id="path4709"
         inkscape:connector-curvature="0"
         style="fill:#fefefe;fill-rule:nonzero" />
      <path
         class="fil19"
         d="m 638288,-202331 c 379,0 686,307 686,686 0,379 -307,686 -686,686 -2156,-7 -11941,-65 -18872,-262 -4012,-114 -7148,-306 -7550,-624 -577,-457 -742,-991 -655,-1584 69,-468 313,-934 624,-1414 258,-398 514,-834 777,-1283 738,-1256 1533,-2609 2528,-3504 2014,-1811 4242,-1773 6641,-1732 l 238,4 c 8336,136 19578,794 29467,2873 7183,1510 13669,3773 17862,7137 295,238 342,670 105,965 -238,295 -670,342 -965,105 -4004,-3212 -10290,-5394 -17281,-6863 -9794,-2058 -20940,-2711 -29208,-2845 l -238,-4 c -2118,-36 -4085,-70 -5700,1382 -845,760 -1581,2013 -2264,3176 -277,472 -547,931 -810,1337 -214,331 -379,631 -414,865 -16,109 21,212 144,310 134,106 2986,222 6738,328 6934,197 16686,255 18834,262 z"
         id="path4711"
         inkscape:connector-curvature="0"
         style="fill:#83c3e6;fill-rule:nonzero" />
    </g>
    <g
       style="clip-rule:evenodd;fill-rule:evenodd;image-rendering:optimizeQuality;shape-rendering:geometricPrecision;text-rendering:geometricPrecision"
       id="_174592368"
       transform="matrix(0.00100264,0,0,0.00100264,659.0281,646.2682)">
      <path
         class="fil6"
         d="m 160809,-207833 c 33320,-8028 53342,211 80704,3063 7002,730 15331,895 24080,496 l 4116,0 0,33713 c -8627,3795 -16516,7602 -21702,10416 -4892,2654 -9240,6910 -12040,7008 -4569,7823 -12075,15330 -19345,15330 -8179,0 -13736,-4249 -17093,-11536 -4582,956 -15861,-5753 -19111,-6890 -3787,-1325 -19423,-4009 -26480,-9389 -1757,-1339 -3155,-3137 -4041,-5841 -3335,-2666 -8655,-7753 -9110,-11118 -555,-4104 609,-5774 1504,-9822 2443,-11051 9774,-13323 18517,-15429 z"
         id="path4714"
         inkscape:connector-curvature="0"
         style="fill:#2b2a29" />
      <path
         class="fil32"
         d="m 160799,-207875 c 24548,-5914 41878,-3003 60241,81 6569,1103 13269,2229 20478,2980 6735,702 14697,882 23081,539 l 1924,0 c -9130,461 -17733,306 -25014,-452 -7213,-752 -13914,-1878 -20484,-2981 -18353,-3083 -35676,-5993 -60206,-83 -4367,1052 -8382,2146 -11607,4354 -3222,2207 -5659,5529 -6878,11042 -253,1147 -528,2102 -779,2975 -636,2210 -1121,3898 -724,6832 191,1413 1249,3136 2657,4855 1929,2354 4514,4698 6437,6236 l 10,8 4,12 c 441,1347 1010,2469 1688,3420 677,951 1463,1732 2338,2399 5313,4051 15504,6573 21819,8136 2064,511 3715,920 4649,1246 890,311 2377,1038 4163,1910 4746,2318 11609,5671 14925,4979 l 34,-7 14,31 c 1714,3722 4004,6650 6924,8621 2785,1879 6145,2890 10129,2890 3345,0 6742,-1596 9878,-4081 3663,-2903 6971,-7019 9429,-11227 l 12,-21 24,-1 c 1688,-59 3957,-1651 6571,-3484 1692,-1187 3529,-2476 5450,-3518 5191,-2816 13088,-6627 21723,-10426 l 0,95 c -8619,3792 -16499,7596 -21681,10407 -1917,1040 -3752,2327 -5441,3513 -2613,1833 -4882,3425 -6594,3499 -2461,4209 -5772,8326 -9438,11231 -3151,2497 -6566,4101 -9932,4101 -4002,0 -7378,-1015 -10177,-2905 -2926,-1975 -5221,-4904 -6940,-8626 -3358,669 -10206,-2676 -14947,-4992 -1783,-871 -3269,-1597 -4153,-1906 -930,-325 -2579,-734 -4641,-1244 -6322,-1565 -16524,-4090 -21851,-8152 -882,-672 -1674,-1460 -2356,-2418 -680,-955 -1252,-2081 -1696,-3431 -1926,-1541 -4511,-3886 -6440,-6240 -1417,-1730 -2482,-3467 -2676,-4898 -399,-2952 88,-4648 727,-6868 251,-873 526,-1828 778,-2970 1224,-5538 3674,-8877 6914,-11095 3237,-2216 7260,-3312 11635,-4367 z m 108911,3601 c -581,38 -1198,16 -1808,0 l 1808,0 z"
         id="path4716"
         inkscape:connector-curvature="0"
         style="fill:#2b2a29;fill-rule:nonzero" />
      <path
         class="fil33"
         d="m 163652,-193558 c 352,-2579 1324,-4051 -11,-5497 -2871,-1023 -8687,-83 -12784,309 -2288,219 -5573,1924 -7058,4738 3151,-10675 9276,-10426 17360,-12374 9087,-2189 18211,-3383 27562,-3380 7988,3 15801,889 23681,2110 9667,1499 19212,3350 28957,4365 6028,628 12166,788 18223,692 3375,-54 6754,-191 10128,-409 l 0,30811 c -3096,1356 -6176,2750 -9237,4180 -4432,2071 -8876,4223 -13177,6556 -490,266 -973,546 -1450,836 -2091,1272 -4027,2733 -6054,4093 -885,594 -2789,1861 -3877,1899 466,-947 1463,-4227 2309,-8638 l 18891,-10256 -177,-331 -18458,9191 c 2308,-13230 2814,-34687 -14369,-36363 -15548,-1517 -26985,19590 -24153,49170 -1194,3249 -12531,-2739 -15079,-3982 -20910,-11843 -16392,-15077 -23491,-19503 -1095,-682 -5406,-1347 -6679,-1556 -1540,-253 -3516,89 471,6254 -3338,-911 -6413,-3567 -8762,-5991 -2402,-2479 -5947,-6902 -3717,-10563 48317,9808 54542,-2367 20951,-6361 z"
         id="path4718"
         inkscape:connector-curvature="0"
         style="fill:#5b5b5b" />
      <path
         class="fil21"
         d="m 194388,-152566 c -42,-16 -80,-37 -116,-61 -406,324 -880,500 -1387,449 -3289,-1246 -6737,-3041 -8005,-3660 -20910,-11843 -16392,-15077 -23491,-19503 -1095,-682 -5406,-1347 -6679,-1556 -1540,-253 -3516,89 471,6254 -3338,-911 -6413,-3567 -8762,-5991 -1055,-1088 -2329,-2551 -3239,-4160 897,-1085 1028,-473 3706,2253 2846,2897 3747,-176 7456,26 7647,417 8059,1412 13768,4587 5032,2798 13208,6968 17119,7050 3742,78 6344,-1048 9461,-3702 -1135,4787 -547,10741 670,13539 474,1090 272,2480 -316,3495 1053,346 1617,95 1878,-583 509,-1313 278,-3960 0,-7141 -517,-5921 -1190,-13628 2422,-18998 176,-262 531,-333 793,-157 262,176 333,531 157,793 -3385,5033 -2732,12515 -2230,18263 290,3321 531,6084 -76,7652 -546,1408 -1621,1917 -3599,1151 z"
         id="path4720"
         inkscape:connector-curvature="0"
         style="fill:#fefefe;fill-rule:nonzero" />
      <path
         class="fil20"
         d="m 142100,-183576 c 11326,4657 47077,7750 56863,3605 -25037,2140 -48791,-2575 -56927,-5346 -75,577 -46,1160 64,1742 z"
         id="path4722"
         inkscape:connector-curvature="0"
         style="fill:#fefefe" />
      <path
         class="fil34"
         d="m 176050,-188936 c 1626,3526 2127,4630 -1625,4570 -6859,-111 -24276,-1896 -29445,-3950 264,-1343 727,-2520 1366,-3693 l 25523,827 c 1901,0 3417,588 4181,2246 z m -11483,-4604 c -1056,-7 -13791,-358 -17483,-325 471,-1095 859,-1607 1876,-3129 -1666,1311 -5240,3217 -6260,9798 5446,3143 38329,6886 59856,5426 1372,-4225 3168,-7874 5305,-10827 -22385,117 -34145,-778 -43294,-942 z"
         id="path4724"
         style="fill:url(#id28)"
         inkscape:connector-curvature="0" />
      <path
         class="fil6"
         d="m 173088,-178341 c 8327,7691 17161,6983 22250,-606 -5376,1030 -13660,1135 -22250,606 z"
         id="path4726"
         inkscape:connector-curvature="0"
         style="fill:#2b2a29" />
      <path
         class="fil21"
         d="m 150625,-172114 c 2021,2054 8442,3793 11265,4464 l 17,4 c 1072,255 2113,492 3062,709 1725,394 3150,719 3917,957 1172,365 2149,1692 3178,3092 1337,1818 2771,3767 4684,3598 158,-14 297,103 310,261 14,158 -103,297 -261,310 -2232,197 -3765,-1887 -5195,-3831 -972,-1322 -1894,-2575 -2887,-2884 -377,-117 -918,-257 -1579,-415 304,1002 782,1863 1331,2576 793,1029 1732,1744 2511,2123 142,69 202,240 133,382 -69,142 -240,202 -382,133 -847,-411 -1864,-1183 -2715,-2289 -644,-836 -1197,-1865 -1514,-3075 -507,-118 -1064,-245 -1657,-381 -815,-186 -1698,-387 -2609,-602 304,1002 782,1864 1331,2576 793,1029 1732,1744 2511,2123 142,69 202,240 133,382 -69,142 -240,202 -382,133 -847,-411 -1864,-1183 -2715,-2289 -644,-836 -1197,-1865 -1515,-3077 -1778,-426 -3634,-903 -5301,-1420 305,990 778,1842 1322,2547 793,1029 1732,1744 2511,2123 142,69 202,240 133,382 -69,142 -240,202 -382,133 -847,-411 -1864,-1183 -2715,-2289 -649,-842 -1205,-1881 -1522,-3104 -1663,-544 -3087,-1129 -3981,-1744 290,686 658,1301 1065,1836 798,1051 1739,1795 2513,2171 142,69 202,240 133,382 -69,142 -240,202 -382,133 -843,-409 -1862,-1213 -2719,-2342 -444,-585 -1696,-2507 -1650,-3791 z"
         id="path4728"
         inkscape:connector-curvature="0"
         style="fill:#fefefe;fill-rule:nonzero" />
      <path
         class="fil35"
         d="m 146879,-196759 c -364,191 -814,52 -1005,-312 -191,-364 -52,-814 312,-1005 793,-418 2847,-953 5293,-1354 2029,-333 4358,-582 6486,-606 l 358,-4 c 1448,-18 2745,-34 3787,218 1969,477 2962,1706 2190,4892 -214,881 -195,1420 103,1695 380,351 1207,507 2533,561 5412,218 11417,-76 16926,-346 7954,-390 14889,-729 17820,613 1628,746 2213,1907 1411,3656 -4044,8827 -5585,8831 -8258,8836 -277,0 -568,1 -901,18 -6012,303 -19328,-339 -30989,-1517 -9416,-951 -17796,-2264 -20504,-3734 -360,-196 -493,-648 -297,-1008 196,-360 648,-493 1008,-297 2516,1366 10690,2626 19939,3560 11599,1171 24821,1811 30774,1511 331,-17 660,-17 971,-18 2067,-4 3259,-7 6907,-7968 366,-800 88,-1336 -677,-1687 -2600,-1191 -9369,-859 -17132,-479 -5537,271 -11572,567 -17054,346 -1689,-68 -2811,-330 -3483,-951 -754,-697 -892,-1684 -540,-3139 501,-2069 -19,-2837 -1095,-3097 -863,-209 -2071,-194 -3420,-177 l -361,4 c -2037,23 -4289,266 -6262,589 -2296,376 -4171,850 -4838,1202 z"
         id="path4730"
         inkscape:connector-curvature="0"
         style="fill:#83c3e6;fill-rule:nonzero" />
      <path
         class="fil21"
         d="m 144658,-194295 c -104,298 -430,456 -728,352 -298,-104 -456,-430 -352,-728 3147,-9027 8748,-10333 15728,-11959 24117,-5617 38371,-4413 62294,-381 6574,1108 13280,2238 20478,2989 7941,828 17595,928 27632,298 l 0,1145 c -10077,629 -19770,527 -27749,-305 -7246,-755 -13964,-1888 -20550,-2997 -23759,-4005 -37887,-5213 -61845,368 -6640,1548 -11968,2790 -14907,11220 z"
         id="path4732"
         inkscape:connector-curvature="0"
         style="fill:#fefefe;fill-rule:nonzero" />
      <path
         class="fil20"
         d="m 181028,-208119 c -4969,881 -17799,2451 -20981,6876 -2610,-102 -7396,317 -8791,386 4198,-3622 17132,-6480 29772,-7262 z"
         id="path4734"
         inkscape:connector-curvature="0"
         style="fill:#fefefe" />
      <path
         class="fil36"
         d="m 178042,-194977 c 6843,9 4918,831 9545,-2837 3690,-2925 5844,-5453 10082,-8406 -418,-26 -851,-46 -1295,-62 -3575,2640 -5665,4982 -9040,7658 -4628,3668 -2703,2846 -9545,2837 l -10511,-14 c -168,264 -331,534 -490,809 l 11254,15 z"
         id="path4736"
         inkscape:connector-curvature="0"
         style="fill:#ffed00" />
      <path
         class="fil37"
         d="m 177789,-195787 c 6843,9 4918,831 9545,-2837 3690,-2925 5844,-5453 10082,-8406 -7181,-440 -18472,564 -23578,3683 -3012,1840 -5451,4344 -7303,7544 l 11254,15 z"
         id="path4738"
         inkscape:connector-curvature="0"
         style="fill:#194f9c" />
      <path
         class="fil20"
         d="m 195901,-207098 c 245,-178 497,-357 756,-538 -13312,-963 -26608,-107 -31425,12113 l 1696,2 c 156,179 411,296 699,296 475,0 860,-317 860,-708 0,-391 -385,-708 -860,-708 -475,0 -860,317 -860,708 0,45 5,90 15,133 l -248,0 363,-606 c 1804,-2912 4121,-5216 6940,-6938 4760,-2908 14894,-3977 22063,-3753 z m -25933,10456 c 475,0 860,317 860,708 0,391 -385,708 -860,708 -475,0 -860,-317 -860,-708 0,-391 385,-708 860,-708 z m 2125,0 c 475,0 860,317 860,708 0,391 -385,708 -860,708 -475,0 -860,-317 -860,-708 0,-391 385,-708 860,-708 z m 2302,0 c 475,0 860,317 860,708 0,391 -385,708 -860,708 -475,0 -860,-317 -860,-708 0,-391 385,-708 860,-708 z m 2296,-145 c 475,0 860,317 860,708 0,391 -385,708 -860,708 -475,0 -860,-317 -860,-708 0,-391 385,-708 860,-708 z m 2353,-127 c 475,0 860,317 860,708 0,391 -385,708 -860,708 -475,0 -860,-317 -860,-708 0,-391 385,-708 860,-708 z m 2517,-126 c 475,0 860,317 860,708 0,391 -385,708 -860,708 -475,0 -860,-317 -860,-708 0,-391 385,-708 860,-708 z m 2441,-519 c 475,0 860,317 860,708 0,391 -385,708 -860,708 -475,0 -860,-317 -860,-708 0,-391 385,-708 860,-708 z m 1974,-1695 c 475,0 860,357 860,797 0,440 -385,797 -860,797 -475,0 -860,-357 -860,-797 0,-440 385,-797 860,-797 z m 1790,-1644 c 475,0 860,357 860,797 0,440 -385,797 -860,797 -475,0 -860,-357 -860,-797 0,-440 385,-797 860,-797 z m 1695,-1530 c 475,0 860,357 860,797 0,440 -385,797 -860,797 -475,0 -860,-357 -860,-797 0,-440 385,-797 860,-797 z m 1746,-1467 c 475,0 860,357 860,797 0,440 -385,797 -860,797 -475,0 -860,-357 -860,-797 0,-440 385,-797 860,-797 z m 1885,-1682 c 475,0 860,357 860,797 0,440 -385,797 -860,797 -475,0 -860,-357 -860,-797 0,-440 385,-797 860,-797 z m 1897,-1315 c 475,0 860,357 860,797 0,440 -385,797 -860,797 -475,0 -860,-357 -860,-797 0,-440 385,-797 860,-797 z"
         id="path4740"
         inkscape:connector-curvature="0"
         style="fill:#fefefe" />
      <path
         class="fil20"
         d="m 176979,-193940 c 6843,9 7347,831 11974,-2837 5683,-4504 4709,-5734 12178,-6757 8734,-1197 26125,-389 35183,2069 2010,545 4726,1602 7122,2202 l 1731,-3688 c -1273,-93 -2543,-204 -3809,-336 -9745,-1016 -19290,-2867 -28957,-4365 -4067,-630 -4758,-824 -8822,-1201 -3015,202 -9210,67 -9980,188 3279,249 5361,639 5474,1512 66,513 -817,1376 -1529,2053 l 21,-16 c -3470,2587 -5546,4897 -8866,7529 -4627,3668 -5132,2846 -11974,2837 l -10839,-14 c 279,839 275,809 1255,810 l 9838,13 z"
         id="path4742"
         inkscape:connector-curvature="0"
         style="fill:#fefefe" />
      <path
         class="fil20"
         d="m 177649,-204258 c 3232,-204 -109,4893 -1012,5485 -13,8 4073,-2106 4073,-4798 0,-1695 -2092,-1540 -3061,-687 z"
         id="path4744"
         inkscape:connector-curvature="0"
         style="fill:#fefefe" />
      <path
         class="fil20"
         d="m 185669,-205776 c 3358,-330 131,3926 -25,4423 1476,-1079 3917,-3161 5410,-4500 1491,-1336 -4309,-658 -5385,77 z"
         id="path4746"
         inkscape:connector-curvature="0"
         style="fill:#fefefe" />
      <path
         class="fil37"
         d="m 186131,-194806 c 15007,1274 17037,-3021 22696,-4878 1344,-441 2841,-946 5450,-1227 l 1691,-637 c -4660,-428 -10754,194 -15758,2976 -2911,1619 -8706,2805 -12157,2491 -728,544 -1349,960 -1921,1275 z"
         id="path4748"
         inkscape:connector-curvature="0"
         style="fill:#194f9c" />
      <path
         class="fil21"
         d="m 190082,-193457 c -316,-7 -565,-269 -558,-585 7,-316 269,-565 585,-558 l 2209,57 c 4337,113 5229,136 7893,60 3668,-104 5892,-1751 8331,-3557 3316,-2456 7011,-5192 15004,-5084 3293,44 8415,1452 14018,3384 5547,1913 11616,4359 16824,6493 292,120 431,454 311,746 -120,292 -454,431 -746,311 -5167,-2118 -11196,-4546 -16761,-6466 -5510,-1900 -10516,-3284 -13660,-3326 -7608,-103 -11140,2513 -14309,4860 -2590,1918 -4951,3667 -8980,3781 -2691,76 -3588,53 -7951,-60 l -2209,-57 z"
         id="path4750"
         inkscape:connector-curvature="0"
         style="fill:#fefefe;fill-rule:nonzero" />
      <path
         class="fil21"
         d="m 239966,-162613 c -960,2732 -1139,3720 -895,3807 283,100 1263,-538 2359,-1251 l 665,-431 c 4083,-2637 13003,-8398 27425,-14034 62,-24 126,-37 190,-39 l 0,1195 c -14180,5566 -22964,11238 -26996,13842 l -660,427 c -1346,876 -2550,1659 -3363,1372 -813,-288 -1004,-1450 -143,-4243 l 1418,-644 z"
         id="path4752"
         inkscape:connector-curvature="0"
         style="fill:#fefefe;fill-rule:nonzero" />
      <path
         class="fil38"
         d="m 237903,-161675 25950,-11790 -6738,-58 -18891,10256 c -105,549 -213,1080 -321,1591 z"
         id="path4754"
         inkscape:connector-curvature="0"
         style="fill:#83c3e6" />
      <path
         class="fil6"
         d="m 223111,-200041 c 11051,202 18740,16223 15203,32636 -3538,16413 -11912,28877 -23671,28472 -11760,-405 -16869,-13577 -15354,-30699 1514,-17122 12772,-30613 23823,-30410 z"
         id="path4756"
         inkscape:connector-curvature="0"
         style="fill:#2b2a29" />
      <path
         class="fil21"
         d="m 223120,-200612 c 792,14 1562,105 2308,266 4287,924 7943,4160 10489,8764 2512,4544 3947,10436 3831,16748 -45,2475 -327,5010 -875,7548 -1866,8658 -5074,16239 -9415,21460 -4026,4843 -9024,7665 -14835,7465 -289,-10 -578,-28 -866,-53 l 0,2 c -5391,-477 -9358,-3616 -11905,-8572 -2501,-4867 -3621,-11496 -3360,-19060 42,-1213 116,-2426 223,-3636 756,-8546 3912,-16206 8261,-21757 4523,-5774 10349,-9281 16143,-9175 z m 2071,1386 c -685,-148 -1383,-230 -2089,-243 -5422,-99 -10919,3240 -15224,8736 -4220,5387 -7283,12832 -8019,21152 -109,1236 -184,2428 -223,3573 -254,7373 824,13808 3235,18500 2365,4602 6027,7516 10986,7954 l 0,2 c 261,23 529,39 803,49 5426,187 10118,-2479 13921,-7053 4218,-5073 7344,-12481 9173,-20967 534,-2475 809,-4936 852,-7329 112,-6108 -1271,-11800 -3692,-16179 -2387,-4318 -5779,-7345 -9722,-8195 z"
         id="path4758"
         inkscape:connector-curvature="0"
         style="fill:#fefefe;fill-rule:nonzero" />
      <path
         class="fil37"
         d="m 232909,-191368 2412,1107 c -132,-261 -268,-517 -408,-769 -2387,-4318 -5779,-7345 -9722,-8195 -685,-148 -1383,-230 -2089,-243 -5422,-99 -10919,3240 -15224,8736 -2615,3339 -4787,7468 -6235,12107 -995,3846 -1663,8093 -1953,12667 l 2228,1985 c -15,-2118 83,-4342 287,-6643 1349,-15255 11843,-26244 21689,-26065 3764,69 6834,2062 9015,5315 z"
         id="path4760"
         inkscape:connector-curvature="0"
         style="fill:#194f9c" />
      <path
         class="fil39"
         d="m 224332,-195327 c 9676,177 14688,13294 11590,27664 -3098,14371 -10429,25283 -20725,24929 -10296,-354 -13504,-11989 -12179,-26979 1326,-14991 11638,-25790 21314,-25614 z"
         id="path4762"
         inkscape:connector-curvature="0"
         style="fill:#9d9e9e" />
      <path
         class="fil20"
         d="m 199690,-165961 c 110,6578 1132,12789 6344,19400 -3170,-4181 -5166,-12802 -4769,-17996 l -1575,-1404 z"
         id="path4764"
         inkscape:connector-curvature="0"
         style="fill:#fefefe" />
      <polygon
         class="fil6"
         points="217331,-173462 226882,-190948 227725,-187233 "
         id="polygon4766"
         style="fill:#2b2a29" />
      <polygon
         class="fil6"
         points="224859,-189465 222329,-193917 220204,-184405 "
         id="polygon4768"
         style="fill:#2b2a29" />
      <path
         class="fil6"
         d="m 216677,-179434 2768,-12939 c -2444,61 -4403,1406 -5768,3086 l 2606,-278 -3263,2909 3015,6171 c 243,310 458,663 642,1051 z"
         id="path4770"
         inkscape:connector-curvature="0"
         style="fill:#2b2a29" />
      <path
         class="fil6"
         d="m 214331,-168512 c -1461,1517 -2826,3363 -6112,1682 577,784 1384,1250 2426,1286 1398,48 2588,-697 3522,-1949 27,-200 137,-557 164,-1018 z"
         id="path4772"
         inkscape:connector-curvature="0"
         style="fill:#2b2a29" />
      <path
         class="fil20"
         d="m 209358,-169017 c 236,2381 3762,2502 4606,3 -1734,1217 -3272,1109 -4606,-3 z m 8159,-3750 12668,-12921 -1436,3054 3615,5090 711,1032 0,1366 -194,2865 -312,2448 -5303,331 c -1140,1015 -6786,1793 -9250,1768 1252,279 2398,360 4829,538 4083,-266 7163,-773 11676,-1888 -3435,6620 -8946,12325 -14345,10922 2403,2155 5027,3901 8209,5747 -6471,-2233 -11920,-7665 -14248,-12697 l -265,-631 c 541,-525 1032,-1170 1467,-1909 l -576,-771 c -1002,1801 -2403,2935 -4118,2876 -2698,-93 -3817,-3066 -3469,-6994 173,-1954 1080,-4877 2842,-6600 -365,737 -596,1282 -649,2049 435,-823 1117,-1365 1411,-1551 722,-456 1498,-701 2259,-687 2522,46 3405,3815 4292,5864 183,-505 6647,-12181 7506,-13742 l -7355,11898 c 38,-3680 -1574,-6592 -4218,-6640 -3264,-60 -6743,3584 -7191,8642 -209,2367 -84,4485 465,6082 l -18,-54 c -794,1802 -1348,3947 -1610,6184 -198,-619 -340,-1337 -438,-2116 -775,3139 460,10443 3129,15072 -4868,-5517 -4743,-16172 -3932,-21605 l -927,-980 c -573,6703 -1566,16516 3644,23127 l 1,1 1,1 c 2006,2959 4895,4724 8809,4858 10296,354 17627,-10558 20725,-24929 1995,-9253 627,-17986 -3183,-23080 -5816,5783 -10009,11482 -15223,17976 z m -8247,8433 c 175,46 128,34 0,0 z m -7,-2 -42,-12 c -644,3838 1499,9144 2065,10841 -657,-832 -3022,-5670 -4529,-6792 -378,-282 -635,1870 -876,1809 154,-2530 1307,-6172 1698,-6883 -24,-26 -48,-53 -71,-80 467,544 1048,928 1756,1118 z m -2922,16672 45,67 c -17,-23 -32,-45 -45,-67 z m 45,67 1,1 0,1 0,0 m 11433,2352 c -4435,-5215 -6361,-12664 -5804,-18180 562,7440 2428,12159 5804,18180 z m 6178,-3322 c -5732,-3743 -9691,-10340 -10722,-15788 2649,6975 5777,10971 10722,15788 z m -7748,-1660 c -802,-1376 -1354,-3052 -1959,-5671 1420,920 5449,5223 6640,6817 -2273,-1136 -4141,-1110 -4681,-1146 z m 4448,-2693 c -1077,-1063 -1784,-1922 -3207,-4126 2113,518 5393,2433 7015,3587 -1526,271 -2923,503 -3807,539 z"
         id="path4774"
         inkscape:connector-curvature="0"
         style="fill:#fefefe" />
      <polygon
         class="fil6 str2"
         points="228748,-182633 232364,-177543 218670,-171341 218344,-171980 "
         id="polygon4776"
         style="fill:#2b2a29;stroke:#2b2a29;stroke-width:3" />
      <polygon
         class="fil6"
         points="233074,-176511 233074,-175145 216985,-169731 "
         id="polygon4778"
         style="fill:#2b2a29" />
      <polygon
         class="fil6"
         points="232880,-172280 232569,-169832 217183,-168873 "
         id="polygon4780"
         style="fill:#2b2a29" />
      <path
         class="fil6"
         d="m 217820,-145243 c -4435,-5215 -6361,-12664 -5804,-18180 562,7440 2428,12159 5804,18180 z"
         id="path4782"
         inkscape:connector-curvature="0"
         style="fill:#2b2a29" />
      <path
         class="fil6"
         d="m 214291,-155895 c 605,2619 1157,4295 1959,5671 540,36 2408,10 4681,1146 -1191,-1594 -5221,-5897 -6640,-6817 z"
         id="path4784"
         inkscape:connector-curvature="0"
         style="fill:#2b2a29" />
      <path
         class="fil6"
         d="m 206049,-173007 c -355,-813 -599,-1209 -903,-1930 -451,1388 -1535,9775 -235,13844 262,-2237 816,-4382 1610,-6184 -511,-1523 -643,-3510 -471,-5730 z"
         id="path4786"
         inkscape:connector-curvature="0"
         style="fill:#2b2a29" />
      <path
         class="fil6"
         d="m 223998,-148564 c -5732,-3743 -9691,-10340 -10722,-15788 2649,6975 5777,10971 10722,15788 z"
         id="path4788"
         inkscape:connector-curvature="0"
         style="fill:#2b2a29" />
      <path
         class="fil6"
         d="m 228385,-152415 c -6471,-2233 -11920,-7665 -14248,-12697 168,-67 417,-253 533,-375 3842,464 9565,89 10867,-372 -488,2822 -2080,6633 -5454,7612 2429,2193 5079,3961 8301,5831 z"
         id="path4790"
         inkscape:connector-curvature="0"
         style="fill:#2b2a29" />
      <path
         class="fil6"
         d="m 215368,-170998 c 614,-1532 780,-4489 576,-5865 -664,-1334 -1547,-2439 -2905,-2464 -214,-4 -429,13 -643,49 -2568,1911 -4550,6127 -3386,9069 -25,-1343 635,-4707 1942,-4450 879,173 925,2985 1068,3894 249,-1503 877,-3429 2213,-3099 697,172 1080,2175 1135,2867 z"
         id="path4792"
         inkscape:connector-curvature="0"
         style="fill:#2b2a29" />
      <path
         class="fil6"
         d="m 234521,-169084 c -5088,2449 -11351,2618 -17493,2123 7578,-184 11096,-541 17493,-2123 z"
         id="path4794"
         inkscape:connector-curvature="0"
         style="fill:#2b2a29" />
      <path
         class="fil6"
         d="m 217490,-157043 c 1423,2203 2131,3063 3207,4126 884,-36 2281,-268 3807,-539 -1621,-1154 -4901,-3069 -7015,-3587 z"
         id="path4796"
         inkscape:connector-curvature="0"
         style="fill:#2b2a29" />
      <polygon
         class="fil6 str2"
         points="214973,-182001 211572,-186423 212042,-187122 "
         id="polygon4798"
         style="fill:#2b2a29;stroke:#2b2a29;stroke-width:3" />
      <polygon
         class="fil6"
         points="211657,-183182 210327,-184930 209442,-183734 210781,-182391 "
         id="polygon4800"
         style="fill:#2b2a29" />
      <path
         class="fil6"
         d="m 209794,-180668 -1300,-1264 -1258,4459 c 665,-1329 1558,-2422 2557,-3196 z"
         id="path4802"
         inkscape:connector-curvature="0"
         style="fill:#2b2a29" />
      <path
         class="fil6"
         d="m 211285,-153506 c -566,-1697 -2709,-7003 -2065,-10841 -654,-184 -1198,-535 -1643,-1026 -390,711 -1543,4352 -1698,6883 241,62 498,-2090 876,-1809 1508,1123 3872,5961 4529,6792 z"
         id="path4804"
         inkscape:connector-curvature="0"
         style="fill:#2b2a29" />
    </g>
    <g
       style="clip-rule:evenodd;fill-rule:evenodd;image-rendering:optimizeQuality;shape-rendering:geometricPrecision;text-rendering:geometricPrecision"
       id="_174592248"
       transform="matrix(0.00100264,0,0,0.00100264,659.0281,646.2682)">
      <path
         class="fil6"
         d="m 228443,-170489 88432,0 231638,0 88432,0 c 2653,0 4804,-2214 4804,-4946 0,-1262 -459,-2413 -1215,-3287 l 0,0 -14658,-20830 0,0 c -1804,-2884 -4951,-4795 -8531,-4795 l -68832,0 -231638,0 -68832,0 c -3580,0 -6727,1910 -8531,4795 l 0,0 -14658,20830 0,0 c -756,874 -1215,2025 -1215,3287 0,2732 2151,4946 4804,4946 z"
         id="path4807"
         inkscape:connector-curvature="0"
         style="fill:#2b2a29" />
      <path
         class="fil40"
         d="m 228434,-170489 88436,0 231648,0 88436,0 c 2556,0 4645,-2055 4795,-4647 l -418110,0 c 150,2592 2240,4647 4795,4647 z m 397356,-29211 c -1819,-2802 -4919,-4647 -8437,-4647 l -68835,0 -231648,0 -68835,0 c -3519,0 -6619,1845 -8437,4647 l 386192,0 z"
         id="path4809"
         inkscape:connector-curvature="0"
         style="fill:#b2b3b3" />
    </g>
    <path
       class="fil20"
       d="m 1056.3884,454.17842 -15.2351,0 -1.4138,2.65599 15.2351,0 1.4138,-2.65599 z m 35.6729,7.57695 -27.9807,0 c -2.667,0 -3.3929,-1.52502 -2.5076,-3.18739 l 2.4234,-4.55099 c 0.8843,-1.66037 2.3622,-2.38427 3.6526,-2.38427 l 29.3333,0 1.4137,-2.656 -31.2684,0 c -2.7552,0.007 -5.8423,1.35758 -7.8035,5.04027 l -2.285,4.2903 c -1.2082,2.26998 -0.6237,6.73373 5.4684,6.73373 l 27.8052,0 1.7496,-3.28565 z m 146.4566,0 c 0.741,0 1.3496,-0.19552 1.878,-1.04275 0.3539,-0.66475 0.7279,-1.27235 0.7901,-2.01029 0.065,-0.77203 -0.3239,-1.25029 -1.2904,-1.25029 l -25.6025,0 -1.3385,2.51261 -4.6733,0 c 1.9501,-3.66364 3.9013,-7.32629 5.8524,-10.98893 l 4.6733,0 -3.0991,5.82032 27.0432,0 c 3.1463,0 4.6121,1.2884 3.6726,3.1904 l -2.1276,4.31035 c -1.146,2.32112 -2.9337,2.74423 -7.5278,2.74423 l -31.2683,0 1.7496,-3.28565 31.2683,0 z m -36.467,-10.12366 c 1.3816,0 1.6905,0.96454 0.9635,2.42038 -1.8448,3.69172 -3.9012,7.32528 -5.8514,10.98893 l 4.6733,0 c 1.9502,-3.66365 3.9946,-7.30022 5.8525,-10.98893 1.6934,-3.36186 1.3515,-5.07537 -2.0334,-5.07537 l -21.9869,0 c -1.7235,0 -3.6356,0.85926 -5.3401,2.21183 l -17.4599,13.85347 4.955,0 14.7639,-11.72888 c 1.2964,-1.02971 2.6279,-1.68042 3.7589,-1.68042 l 17.7066,0 z m -44.7358,1.05679 -20.4869,10.9769 c -7.3995,3.96444 -12.6824,2.17873 -9.7186,-3.69974 1.8599,-3.68872 3.9023,-7.32629 5.8524,-10.98894 l 4.6733,0 c -1.9501,3.66265 -3.9735,7.30524 -5.8514,10.98894 -1.0598,2.07747 0.5093,2.79536 2.7863,1.57514 l 20.5963,-11.03806 c 7.3092,-3.91731 12.7194,-2.04138 9.6093,3.7609 l -5.7763,10.77738 -4.6733,0 5.8525,-10.98893 c 0.3489,-0.65573 0.5654,-3.19943 -2.8616,-1.36359 z m -40.3883,-1.05679 11.4391,0 1.4137,-2.65599 -28.8891,0 -1.4137,2.65599 12.7757,0 c -2.3793,4.46777 -4.7786,8.93252 -7.1629,13.40931 l 4.6733,0 c 2.3783,-4.46776 4.7786,-8.93252 7.1629,-13.40931 z"
       id="path4811"
       inkscape:connector-curvature="0"
       style="clip-rule:evenodd;fill:#fefefe;fill-rule:evenodd;image-rendering:optimizeQuality;shape-rendering:geometricPrecision;text-rendering:geometricPrecision" />
    <path
       style="clip-rule:evenodd;fill:#2b2a29;fill-rule:nonzero;image-rendering:optimizeQuality;shape-rendering:geometricPrecision;text-rendering:geometricPrecision"
       inkscape:connector-curvature="0"
       id="path4814"
       d="m 978.12029,456.93969 c -3.67769,4.16497 -7.24408,8.4332 -10.80646,12.69442 -1.9371,2.3171 -3.8742,4.63621 -5.83837,6.93025 -1.03072,1.20517 -2.11156,2.40834 -3.31473,3.44507 -1.07383,0.92544 -2.18676,1.65636 -3.4551,2.29003 l -1.09588,0.54744 -0.016,-0.0351 c -1.80175,0.77203 -3.88724,1.37462 -5.75215,1.44481 -1.83684,0.0702 -3.66064,-0.36898 -4.91294,-1.79172 -0.0391,-0.0411 -0.0772,-0.0822 -0.1143,-0.12433 -0.0431,-0.0451 -0.0852,-0.0912 -0.12733,-0.13836 -0.0421,-0.0441 -0.0842,-0.0902 -0.12533,-0.13636 -0.0421,-0.0441 -0.0822,-0.0882 -0.12232,-0.13335 -0.0431,-0.0451 -0.0852,-0.0912 -0.12634,-0.13737 -0.0421,-0.0441 -0.0832,-0.0892 -0.12332,-0.13435 -0.0431,-0.0451 -0.0852,-0.0912 -0.12633,-0.13736 -0.0421,-0.0441 -0.0832,-0.0892 -0.12433,-0.13536 -0.0421,-0.0441 -0.0832,-0.0892 -0.12333,-0.13435 -0.0411,-0.0431 -0.0812,-0.0872 -0.12132,-0.13235 -0.0431,-0.0461 -0.0862,-0.0922 -0.12833,-0.13937 -0.0421,-0.0451 -0.0842,-0.0902 -0.12533,-0.13636 -0.0411,-0.0441 -0.0822,-0.0882 -0.12233,-0.13335 -0.0421,-0.0441 -0.0842,-0.0892 -0.12432,-0.13535 -0.0431,-0.0451 -0.0852,-0.0912 -0.12734,-0.13837 -0.0421,-0.0441 -0.0822,-0.0882 -0.12232,-0.13335 -0.0421,-0.0451 -0.0842,-0.0902 -0.12533,-0.13636 -0.0421,-0.0441 -0.0832,-0.0882 -0.12333,-0.13435 -0.0421,-0.0441 -0.0832,-0.0892 -0.12432,-0.13536 -0.0431,-0.0451 -0.0842,-0.0902 -0.12533,-0.13636 -0.14338,-0.1514 -0.27773,-0.31082 -0.40206,-0.47926 -0.76301,-1.03472 -1.10591,-2.22285 -1.00665,-3.50322 0.0822,-1.05879 0.46222,-2.07146 0.97557,-2.99288 0.99963,-1.79473 2.43541,-3.56439 3.76491,-5.1255 1.89399,-2.22285 3.92032,-4.35647 5.96671,-6.43895 5.0894,-5.17764 10.44149,-10.15173 15.80261,-15.04762 4.47478,-4.08777 8.99368,-8.1264 13.51458,-12.16303 2.36323,-2.11056 4.72946,-4.22011 7.08065,-6.34471 0.97557,-0.88132 1.95815,-1.75361 2.94174,-2.62491 2.66703,-2.36523 5.37115,-4.74349 7.86672,-7.29019 0.46923,-0.47926 1.12997,-1.14201 1.24929,-1.83784 0.21657,-1.26634 0.74295,-1.79874 1.86294,-2.40132 1.157,-0.62264 2.7662,-0.90439 4.0737,-0.89937 0.8763,0.003 1.7817,0.12934 2.6008,0.44818 0.6768,0.26369 1.2914,0.65773 1.7717,1.20617 0.042,0.0441 0.083,0.0892 0.1233,0.13436 0.042,0.0441 0.083,0.0882 0.1234,0.13435 0.043,0.0441 0.084,0.0902 0.1253,0.13636 0.042,0.0441 0.084,0.0892 0.1243,0.13536 0.043,0.0451 0.085,0.0902 0.1263,0.13736 0.041,0.0431 0.082,0.0872 0.1214,0.13235 0.043,0.0451 0.085,0.0902 0.1263,0.13736 0.042,0.0441 0.084,0.0892 0.1243,0.13535 0.043,0.0451 0.084,0.0902 0.1253,0.13636 0.042,0.0431 0.082,0.0872 0.1224,0.13335 0.043,0.0451 0.085,0.0912 0.1263,0.13837 0.042,0.0431 0.083,0.0882 0.1233,0.13335 0.042,0.0441 0.084,0.0892 0.1244,0.13536 0.042,0.0441 0.084,0.0892 0.1243,0.13535 0.043,0.0451 0.085,0.0902 0.1263,0.13736 0.042,0.0441 0.083,0.0882 0.1233,0.13436 0.042,0.0441 0.084,0.0892 0.1244,0.13636 0.042,0.0441 0.083,0.0892 0.1243,0.13535 0.042,0.0441 0.083,0.0892 0.1243,0.13536 0.043,0.0451 0.085,0.0902 0.1254,0.13636 0.2446,0.25467 0.4531,0.54042 0.6206,0.85124 0.3349,0.62164 0.4823,1.30544 0.4792,2.00929 -0,0.84623 -0.6848,2.32813 -1.0307,3.10518 -0.7319,1.64533 -1.528,3.27161 -2.309,4.89388 -1.2112,2.51462 -2.4204,5.03025 -3.5735,7.57294 -0.8813,1.94312 -1.7355,3.90428 -2.5116,5.89152 -0.015,0.0381 -0.03,0.0762 -0.044,0.1143 0.1063,-0.11531 0.2116,-0.22961 0.3179,-0.34491 3.5252,-3.82808 6.9493,-7.76846 10.3452,-11.71184 1.2062,-1.39969 2.4144,-2.79937 3.5784,-4.23515 1.0769,-1.3275 2.1076,-2.68307 3.0831,-4.08576 0.068,-0.28575 0.1284,-0.57251 0.1875,-0.86026 0.2076,-1.00365 0.3951,-1.85389 0.9936,-2.71114 0.7651,-1.09589 2.3903,-2.17373 3.5404,-2.83046 1.3134,-0.74997 2.8685,-1.45984 4.3464,-1.77266 0.9184,-0.19452 1.9171,-0.22159 2.8014,0.13235 0.4682,0.18749 0.8823,0.47224 1.2122,0.85424 0.043,0.0441 0.084,0.0892 0.1243,0.13536 0.043,0.0441 0.084,0.0892 0.1243,0.13536 0.043,0.0441 0.085,0.0892 0.1254,0.13636 0.043,0.0441 0.084,0.0882 0.1233,0.13535 0.043,0.0441 0.084,0.0892 0.1253,0.13636 0.043,0.0441 0.084,0.0892 0.1243,0.13536 0.041,0.0421 0.081,0.0862 0.1234,0.13435 0.043,0.0441 0.085,0.0902 0.1263,0.13736 0.043,0.0441 0.084,0.0892 0.1243,0.13536 0.042,0.0431 0.083,0.0872 0.1224,0.13335 0.044,0.0451 0.086,0.0902 0.1263,0.13837 0.043,0.0441 0.084,0.0892 0.1243,0.13535 0.043,0.0441 0.084,0.0892 0.1243,0.13536 0.043,0.0441 0.084,0.0892 0.1244,0.13535 0.043,0.0441 0.085,0.0892 0.1253,0.13636 0.043,0.0441 0.084,0.0882 0.1233,0.13536 0.043,0.0441 0.084,0.0892 0.1254,0.13636 0.043,0.0441 0.084,0.0892 0.1243,0.13536 0.041,0.0421 0.081,0.0852 0.1233,0.13435 0.043,0.0441 0.085,0.0902 0.1263,0.13736 0.045,0.0471 0.089,0.0953 0.1324,0.14438 0.3379,0.39404 0.5605,0.86127 0.6677,1.36861 0.1885,0.89034 0,1.81578 -0.3298,2.64797 -0.4993,1.24728 -0.8342,2.62792 -1.0969,3.94438 -0.3469,1.73457 -0.5846,3.50122 -0.766,5.25985 -0.4663,4.52592 -0.5826,9.1902 -0.4482,13.73918 0.07,2.36422 0.2115,4.73647 0.4702,7.08766 0.1915,1.7466 0.4462,3.55436 0.8763,5.25985 0.064,0.25367 0.1344,0.50533 0.2056,0.75699 0.5254,1.86191 0.7149,3.08312 -0.04,4.97911 -0.3219,0.81014 -0.9936,1.74961 -1.517,2.44544 -0.8102,1.07684 -1.7196,2.11156 -2.6861,3.05003 -1.2002,1.16507 -2.6239,2.3141 -4.1509,3.01093 -1.6835,0.76702 -3.5233,0.97156 -5.1456,-0.0551 -0.394,-0.24966 -0.7449,-0.55547 -1.0537,-0.90338 -0.042,-0.0441 -0.084,-0.0892 -0.1244,-0.13536 -0.042,-0.0451 -0.084,-0.0902 -0.1253,-0.13636 -0.046,-0.0491 -0.091,-0.0972 -0.1243,-0.13636 -0.042,-0.0441 -0.083,-0.0892 -0.1234,-0.13435 -0.043,-0.0451 -0.085,-0.0912 -0.1263,-0.13736 -0.041,-0.0431 -0.081,-0.0872 -0.1213,-0.13235 -0.046,-0.0481 -0.09,-0.0962 -0.1253,-0.13636 -0.043,-0.0451 -0.084,-0.0902 -0.1254,-0.13736 -0.042,-0.0441 -0.083,-0.0892 -0.1243,-0.13536 -0.042,-0.0441 -0.082,-0.0882 -0.1223,-0.13335 -0.044,-0.0461 -0.087,-0.0922 -0.1284,-0.14037 -0.044,-0.0471 -0.087,-0.0943 -0.1233,-0.13435 -0.041,-0.0431 -0.082,-0.0882 -0.1223,-0.13235 -0.043,-0.0451 -0.084,-0.0902 -0.1253,-0.13636 -0.042,-0.0451 -0.084,-0.0902 -0.1254,-0.13636 -0.042,-0.0441 -0.082,-0.0882 -0.1223,-0.13335 -0.045,-0.0481 -0.088,-0.0953 -0.1233,-0.13435 -0.042,-0.0451 -0.084,-0.0902 -0.1253,-0.13636 -0.043,-0.0451 -0.085,-0.0912 -0.1274,-0.13837 -0.045,-0.0471 -0.088,-0.0942 -0.1243,-0.13535 -0.2326,-0.24465 -0.4412,-0.51135 -0.6277,-0.79209 -0.5845,-0.87831 -0.7981,-2.28702 -0.9124,-3.31974 -0.1895,-1.72153 -0.2225,-3.50623 -0.2225,-5.23679 l 0,-1.19615 0.014,0 c 0.023,-1.24227 0.079,-2.48655 0.1404,-3.72481 0.098,-1.96818 0.2225,-3.93436 0.3529,-5.90053 10e-4,-0.016 0,-0.0331 0,-0.0491 -0.387,0.48327 -0.773,0.96755 -1.1591,1.45082 -2.0373,2.55071 -4.0887,5.0914 -6.1672,7.60803 l -0.7981,0.96655 c -3.6927,4.46976 -8.6347,10.3683 -14.42899,11.94445 -0.11931,0.0321 -0.23963,0.0612 -0.35994,0.0892 -2.53969,0.58855 -5.36513,0.18048 -7.70429,-0.9485 -1.24127,-0.59958 -2.38528,-1.41773 -3.28866,-2.42639 -0.0491,-0.0521 -0.0963,-0.10427 -0.12633,-0.13736 -0.0451,-0.0481 -0.0892,-0.0962 -0.11631,-0.12633 -0.0501,-0.0531 -0.0993,-0.10628 -0.12834,-0.13937 -0.0461,-0.0491 -0.0922,-0.0993 -0.11931,-0.12934 -0.0501,-0.0541 -0.10026,-0.10828 -0.13235,-0.14338 -0.0471,-0.0501 -0.0932,-0.10026 -0.12132,-0.13234 -0.0481,-0.0511 -0.0953,-0.10227 -0.12433,-0.13536 -0.0481,-0.0511 -0.0953,-0.10227 -0.12432,-0.13536 -0.0491,-0.0521 -0.0983,-0.10628 -0.12734,-0.13936 -0.0451,-0.0481 -0.0902,-0.0973 -0.1163,-0.12634 -0.0501,-0.0531 -0.0993,-0.10728 -0.13135,-0.14337 -0.0481,-0.0511 -0.0942,-0.10227 -0.12433,-0.13536 -0.0461,-0.0491 -0.0922,-0.0993 -0.12031,-0.13135 -0.0491,-0.0521 -0.0973,-0.10527 -0.12834,-0.13936 -0.0491,-0.0521 -0.0973,-0.10528 -0.12633,-0.13837 -0.0461,-0.0491 -0.0922,-0.0993 -0.11932,-0.12934 -0.0491,-0.0521 -0.0972,-0.10527 -0.12834,-0.14037 -0.0461,-0.0501 -0.0922,-0.10026 -0.12031,-0.13134 -0.0481,-0.0511 -0.0952,-0.10227 -0.12333,-0.13436 -0.0501,-0.0531 -0.10026,-0.10728 -0.13134,-0.14337 -0.96154,-1.0247 -1.67241,-2.2399 -2.04238,-3.59948 -0.0271,-0.0993 -0.0511,-0.20053 -0.0742,-0.30079 -0.1153,-0.49631 -0.20353,-0.99563 -0.2667,-1.49695 z"
       class="fil32" />
    <path
       style="clip-rule:evenodd;fill:#e31e24;fill-rule:evenodd;image-rendering:optimizeQuality;shape-rendering:geometricPrecision;text-rendering:geometricPrecision"
       inkscape:connector-curvature="0"
       id="path4816"
       d="m 986.9756,439.86874 c -2.18275,2.61589 -8.72698,9.97226 -6.83199,18.1528 1.04876,4.52692 6.83901,6.89415 11.13231,5.72607 5.78223,-1.57314 10.99598,-8.33795 14.31868,-12.32344 6.1332,-7.35537 12.3937,-15.81264 13.8515,-16.44631 -0.2116,4.936 -1.2533,16.66789 -1.2533,22.24457 0,3.52328 0.2015,6.61542 0.8342,7.56592 3.3649,5.05933 11.0742,-4.47077 11.9053,-6.55927 0.745,-1.87092 0.1925,-2.92971 -0.2396,-4.63821 -0.771,-3.05404 -1.2503,-7.69526 -1.3987,-12.73353 -0.2597,-8.78914 0.4853,-18.78345 2.4395,-23.6603 0.8161,-2.04037 -0.2367,-3.03699 -2.3262,-2.59483 -2.4464,0.51837 -5.9256,2.63594 -6.7909,3.87621 -0.5835,0.8362 -0.5975,1.79472 -0.9916,3.29868 -2.2459,3.26059 -4.3685,5.72608 -6.9633,8.73801 -6.2334,7.23706 -15.78256,18.12272 -17.01981,17.9643 -6.3427,-0.81414 10.05951,-29.18685 10.06951,-31.50595 0.013,-3.21447 -4.941,-2.8866 -6.7849,-1.89499 -1.81474,0.97657 0.1284,1.04675 -2.68303,3.91631 -3.25958,3.32575 -7.38745,6.82697 -10.88667,9.9893 -13.70007,12.3796 -40.8285,35.80528 -45.7645,44.6646 -0.79308,1.42375 -1.18612,3.07911 -0.0912,4.56502 1.99927,2.71114 7.2902,0.88433 9.80482,-0.37298 2.32412,-1.16206 3.83309,-2.51863 6.20935,-5.29594 8.48334,-9.9121 20.45887,-25.09207 29.46157,-32.67403 z"
       class="fil4" />
    <path
       style="clip-rule:evenodd;fill:#bc2322;fill-rule:evenodd;image-rendering:optimizeQuality;shape-rendering:geometricPrecision;text-rendering:geometricPrecision"
       inkscape:connector-curvature="0"
       id="path4818"
       d="m 986.9756,439.86874 c -0.2677,0.32084 -0.60058,0.71288 -0.97557,1.16808 l 11.2416,0 c 2.84747,-8.81221 10.46157,-22.48421 10.46757,-24.06437 0.013,-3.21446 -4.941,-2.8866 -6.7849,-1.89499 -1.81475,0.97657 0.1284,1.04676 -2.68304,3.91632 -3.25958,3.32575 -7.38745,6.82697 -10.88666,9.9893 -3.73082,3.37087 -8.45727,7.56191 -13.46044,12.05374 l 11.7359,0 c 0.45419,-0.40607 0.90338,-0.7961 1.34354,-1.16808 z m 27.0111,1.16808 c 2.654,-3.29468 4.7024,-5.72909 5.4594,-6.05796 -0.065,1.50798 -0.2065,3.65062 -0.373,6.05796 l 10.2269,0 -0,-0.17847 c -0.2597,-8.78915 0.4853,-18.78346 2.4395,-23.6603 0.8161,-2.04038 -0.2367,-3.037 -2.3262,-2.59484 -2.4464,0.51837 -5.9256,2.63595 -6.7909,3.87621 -0.5835,0.8362 -0.5975,1.79473 -0.9916,3.29869 -2.2459,3.26058 -4.3685,5.72607 -6.9633,8.738 -2.7703,3.21647 -6.1953,7.15384 -9.2554,10.52171 l 8.5806,0 z"
       class="fil41" />
    <g
       style="clip-rule:evenodd;fill-rule:evenodd;image-rendering:optimizeQuality;shape-rendering:geometricPrecision;text-rendering:geometricPrecision"
       id="_174589584"
       transform="matrix(0.00100264,0,0,0.00100264,659.0281,646.2682)">
      <path
         class="fil40"
         d="m 328869,-165652 48296,0 126507,0 48296,0 c 22,0 44,0 65,1 l 2,0 c 21,1 42,1 62,2 l 5,0 23,1 40,2 27,2 38,3 24,2 41,4 23,3 42,5 28,4 32,5 36,6 29,5 31,6 32,6 33,7 28,6 33,8 29,7 33,9 27,7 34,10 25,7 34,10 28,9 30,10 27,9 32,11 27,10 30,11 29,12 28,11 28,12 29,13 25,11 33,15 22,11 31,15 25,13 30,16 19,10 35,19 13,7 40,23 8,4 42,25 18,11 c 143,89 275,191 396,303 l 8,7 c 13,13 27,25 40,38 l 0,0 c 12,12 25,24 37,37 l 6,6 c 12,12 24,25 36,38 l 3,3 c 12,13 25,27 37,40 l 1,2 c 12,14 25,28 37,42 l 1,1 c 11,14 23,27 34,41 l 4,5 c 23,29 45,58 67,87 l 1,2 c 10,14 20,28 30,42 l 5,7 c 9,13 18,26 26,39 l 6,9 c 9,13 17,26 25,40 l 4,6 c 188,304 305,650 330,1019 l 0,1 c 3,48 5,96 5,144 0,607 -251,1162 -663,1582 l 0,0 -8005,10027 0,0 c -17,24 -34,48 -52,71 l -7,10 -39,52 -11,14 c -29,37 -57,74 -87,111 -16,20 -32,39 -48,59 l -2,2 c -17,20 -33,40 -50,59 l -1,1 c -52,60 -105,118 -159,176 l -2,2 -53,55 c -35,36 -70,71 -106,106 l -7,7 -38,36 -21,20 -39,36 -19,17 -44,39 -17,15 -46,40 -13,12 -46,39 -16,14 -43,35 -21,17 -38,30 -27,21 -42,33 -20,15 -45,34 -20,15 -40,29 -27,19 -42,29 -23,16 -42,28 -29,20 -34,22 -35,23 -35,22 -33,21 -36,22 -36,22 -38,23 -28,16 -46,27 -25,15 -49,27 -23,13 -42,23 -35,19 -39,20 -31,16 -48,24 -24,12 -47,23 -31,15 -43,20 -34,16 -41,18 -35,16 -42,18 -37,16 -39,16 -37,15 -41,17 -42,17 -33,13 -42,16 -43,16 -34,12 -43,15 -41,14 -38,13 -41,13 -41,13 -38,12 -43,13 -44,13 -37,11 -43,12 -42,12 -42,11 -40,10 -38,9 -49,12 -31,7 -54,12 -34,7 -46,10 -49,10 -36,7 -50,9 -37,7 -43,7 -44,7 -42,7 -43,7 -46,6 -43,6 -33,4 -56,7 -24,3 c -22,2 -43,5 -65,7 l -19,2 -69,6 -28,2 -59,5 -31,2 -60,4 -14,1 c -55,3 -110,5 -165,7 -29,1 -59,2 -88,2 l -2,0 c -30,0 -60,1 -90,1 l -37592,0 -126507,0 -37592,0 c -30,0 -60,0 -90,-1 l -2,0 c -29,0 -59,-1 -88,-2 l -3,0 c -29,-1 -57,-2 -86,-3 -25,-1 -49,-2 -73,-4 l -17,-1 c -19,-1 -39,-2 -58,-4 l -32,-2 -57,-4 -31,-2 -65,-6 -23,-2 -63,-7 -25,-3 -56,-7 -33,-4 -42,-6 -48,-7 -39,-6 -47,-7 -41,-7 -46,-8 -36,-7 -52,-10 -32,-6 -51,-10 -46,-10 -34,-7 -54,-12 -31,-7 -49,-12 -38,-9 -39,-10 -45,-12 -39,-11 -45,-13 -37,-11 -44,-13 -42,-13 -41,-13 -36,-12 -47,-15 -34,-11 -44,-15 -43,-15 -34,-12 -43,-16 -42,-16 -33,-13 -42,-16 -44,-18 -32,-13 -42,-18 -36,-15 -42,-18 -35,-16 -41,-18 -34,-16 -43,-20 -31,-15 -46,-23 -27,-14 -43,-22 -35,-18 -37,-20 -35,-19 -42,-23 -27,-15 -44,-24 -29,-17 -44,-26 -26,-16 -42,-25 -34,-21 -34,-21 -37,-23 -33,-21 -35,-23 -34,-22 -33,-22 -35,-24 -29,-20 -38,-27 -27,-19 -40,-29 -20,-15 -45,-34 -22,-17 -40,-31 -25,-19 -40,-32 -18,-15 -48,-39 -2,-2 c -19,-16 -38,-32 -57,-48 l -11,-9 -51,-44 -3,-2 c -19,-17 -37,-33 -56,-50 l -16,-15 -42,-39 -21,-20 -38,-36 -7,-7 c -131,-127 -254,-260 -370,-398 l -1,-1 -2,-2 c -16,-19 -32,-39 -48,-59 -68,-84 -133,-170 -196,-258 l 0,0 -8005,-10027 0,0 c -413,-421 -664,-975 -664,-1582 0,-444 134,-859 367,-1215 l 1,-2 c 10,-16 21,-31 31,-46 l 0,0 c 11,-15 21,-30 32,-45 l 1,-2 c 33,-46 68,-90 105,-134 l 1,-1 c 12,-14 24,-28 37,-42 l 1,-2 c 12,-14 24,-27 37,-40 l 3,-3 c 12,-13 24,-25 36,-38 l 6,-6 c 12,-12 24,-25 37,-37 l 0,0 c 13,-13 26,-26 40,-38 l 8,-7 c 124,-116 260,-220 408,-311 l 4,-3 c 15,-9 30,-18 45,-27 l 5,-3 c 13,-8 27,-15 40,-23 l 13,-7 35,-19 19,-10 30,-16 25,-13 31,-15 22,-11 33,-15 25,-11 29,-13 28,-12 28,-11 29,-12 30,-11 27,-10 32,-11 27,-9 30,-10 28,-9 34,-10 25,-7 34,-10 27,-7 33,-9 29,-7 33,-8 28,-6 33,-7 32,-6 31,-6 29,-5 36,-6 32,-5 28,-4 42,-5 23,-3 41,-4 24,-2 38,-3 27,-2 c 13,-1 27,-2 40,-2 l 23,-1 5,0 c 21,-1 42,-2 62,-2 l 2,0 c 22,0 43,-1 65,-1 z"
         id="path4821"
         inkscape:connector-curvature="0"
         style="fill:#b2b3b3" />
      <path
         class="fil4"
         d="m 554457,-162516 c -114,309 -295,590 -529,827 l 0,0 -7345,9199 -212330,0 -7345,-9199 0,0 0,-827 227548,0 z"
         id="path4823"
         inkscape:connector-curvature="0"
         style="fill:#e31e24" />
      <path
         class="fil23"
         d="m 546989,-152996 c -25743,-5767 -172045,-8891 -208147,507 l 207742,0 405,-507 z"
         id="path4825"
         inkscape:connector-curvature="0"
         style="fill:#b5312c" />
      <g
         transform="matrix(0.973617,0,0,1,54671.1,-201690)"
         id="g4827">
        <text
           x="299213"
           y="47638"
           class="fil20 fnt0"
           id="text4829"
           style="font-weight:normal;font-size:9704.25px;font-family:Gabriola;fill:#fefefe">-.</text>
      </g>
    </g>
  </g>
</svg>
