<svg xmlns="http://www.w3.org/2000/svg" width="97.38" height="71.65"><g style="display:inline"><path style="clip-rule:evenodd;display:inline;fill:#2b2a29;fill-rule:nonzero;image-rendering:optimizeQuality;shape-rendering:geometricPrecision;text-rendering:geometricPrecision" d="M978.12 456.94c-3.677 4.165-7.244 8.433-10.806 12.694-1.937 2.317-3.874 4.636-5.839 6.93-1.03 1.206-2.111 2.409-3.314 3.445a16.399 16.399 0 0 1-3.455 2.29l-1.096.548-.016-.035c-1.802.772-3.887 1.374-5.752 1.445-1.837.07-3.661-.37-4.913-1.792a4.383 4.383 0 0 1-.115-.124 5.59 5.59 0 0 1-.127-.139 5.424 5.424 0 0 1-.125-.136 5.033 5.033 0 0 1-.123-.134 5.358 5.358 0 0 1-.126-.137 5.112 5.112 0 0 1-.123-.134 5.356 5.356 0 0 1-.127-.138 5.342 5.342 0 0 1-.124-.135 5.13 5.13 0 0 1-.123-.134 5.098 5.098 0 0 1-.122-.133l-.128-.139-.125-.136a7.663 7.663 0 0 1-.123-.134 3.958 3.958 0 0 1-.124-.135 5.592 5.592 0 0 1-.127-.138 5.033 5.033 0 0 1-.123-.134l-.125-.136a3.908 3.908 0 0 1-.123-.135 5.323 5.323 0 0 1-.125-.135 5.275 5.275 0 0 1-.125-.136 5.111 5.111 0 0 1-.402-.48 5.108 5.108 0 0 1-1.007-3.503c.083-1.058.463-2.071.976-2.993 1-1.794 2.435-3.564 3.765-5.125 1.894-2.223 3.92-4.357 5.967-6.439 5.089-5.178 10.441-10.152 15.802-15.048 4.475-4.087 8.994-8.126 13.515-12.163 2.363-2.11 4.73-4.22 7.08-6.344a404.29 404.29 0 0 1 2.942-2.625c2.667-2.366 5.371-4.744 7.867-7.29.47-.48 1.13-1.143 1.25-1.838.216-1.267.742-1.8 1.862-2.402 1.157-.622 2.766-.904 4.074-.899.876.003 1.781.13 2.6.448.677.264 1.292.658 1.772 1.206.042.044.083.09.124.135.042.044.083.088.123.134.043.044.084.09.125.136.042.044.084.09.125.136.043.045.085.09.126.137.04.043.082.087.121.132.043.046.085.09.127.138.042.044.084.089.124.135.043.045.084.09.125.137.042.043.082.087.123.133.043.045.085.091.126.138.042.043.083.088.123.134.042.044.084.089.125.135.042.044.084.09.124.135.043.045.085.09.126.138.042.044.083.088.123.134a3.5 3.5 0 0 1 .125.136c.042.044.083.09.124.136.042.044.083.089.124.135.043.045.085.09.126.136.244.255.453.54.62.852.335.621.483 1.305.48 2.009 0 .846-.685 2.328-1.031 3.105-.732 1.646-1.528 3.272-2.309 4.894-1.211 2.515-2.42 5.03-3.574 7.573a119.878 119.878 0 0 0-2.555 6.006l.318-.345c3.525-3.828 6.95-7.769 10.345-11.712 1.206-1.4 2.414-2.8 3.578-4.235a69.206 69.206 0 0 0 3.083-4.086c.068-.286.129-.572.188-.86.208-1.004.395-1.854.994-2.711.765-1.096 2.39-2.174 3.54-2.83 1.313-.75 2.868-1.46 4.346-1.773.919-.195 1.917-.222 2.802.132.468.187.882.472 1.212.854.043.044.084.09.124.136.043.044.084.089.125.135.043.044.085.09.125.136.043.044.084.089.123.136.043.044.084.089.126.136.043.044.084.09.124.135.04.042.08.087.123.135.043.044.085.09.127.137.043.044.084.09.124.135.042.044.083.088.122.134.044.045.086.09.127.138.043.044.084.09.124.136.043.044.084.089.124.135.043.044.084.09.125.135.043.044.085.09.125.137.043.044.084.088.123.135.043.044.084.09.126.136.043.044.084.09.124.136.04.042.08.085.123.134.043.044.085.09.126.137a3.056 3.056 0 0 1 .8 1.513c.19.89 0 1.816-.33 2.648-.499 1.248-.833 2.628-1.096 3.945-.347 1.734-.585 3.5-.766 5.26-.466 4.525-.583 9.19-.448 13.739.07 2.364.211 4.736.47 7.087.191 1.747.446 3.555.876 5.26.064.254.135.506.206.757.525 1.862.715 3.083-.04 4.98-.322.81-.994 1.749-1.517 2.445a26.415 26.415 0 0 1-2.686 3.05c-1.2 1.165-2.624 2.314-4.151 3.01-1.684.768-3.524.972-5.146-.054a4.962 4.962 0 0 1-1.054-.904 4.38 4.38 0 0 1-.124-.135l-.125-.136a4.202 4.202 0 0 1-.125-.137 5.874 5.874 0 0 1-.123-.134 5.895 5.895 0 0 1-.126-.138 5.651 5.651 0 0 1-.122-.132 4.548 4.548 0 0 1-.125-.136 4.486 4.486 0 0 1-.125-.138 5.898 5.898 0 0 1-.125-.135 5.561 5.561 0 0 1-.122-.133 3.639 3.639 0 0 1-.128-.14 12.21 12.21 0 0 1-.124-.135l-.122-.132a5.806 5.806 0 0 1-.125-.137l-.126-.136a5.561 5.561 0 0 1-.122-.133 10.758 10.758 0 0 1-.123-.135l-.125-.136a6.397 6.397 0 0 1-.128-.139 4.715 4.715 0 0 1-.124-.135 5.826 5.826 0 0 1-.628-.792c-.584-.878-.798-2.287-.912-3.32-.19-1.721-.223-3.506-.223-5.236v-1.197h.014c.023-1.242.08-2.486.14-3.724.099-1.969.223-3.935.354-5.901v-.05l-1.16 1.452a598.001 598.001 0 0 1-6.167 7.608l-.798.966c-3.693 4.47-8.635 10.369-14.429 11.945-.12.032-.24.061-.36.089-2.54.589-5.365.18-7.704-.949-1.241-.6-2.385-1.417-3.289-2.426l-.126-.137a9.13 9.13 0 0 1-.116-.127c-.05-.053-.1-.106-.129-.139l-.119-.13a36.25 36.25 0 0 1-.378-.41 5.953 5.953 0 0 1-.124-.136 5.931 5.931 0 0 1-.128-.14 9.058 9.058 0 0 1-.116-.125c-.05-.054-.1-.108-.131-.144-.048-.05-.094-.102-.125-.135l-.12-.132-.128-.139a5.767 5.767 0 0 1-.127-.138l-.119-.13a24.972 24.972 0 0 1-.372-.406c-.05-.053-.1-.107-.131-.143-.962-1.025-1.673-2.24-2.043-3.6-.027-.099-.05-.2-.074-.3a14.773 14.773 0 0 1-.266-1.497z" class="fil32" transform="translate(-939.02 -412.614)"/><path style="clip-rule:evenodd;display:inline;fill:#e31e24;fill-rule:evenodd;image-rendering:optimizeQuality;shape-rendering:geometricPrecision;text-rendering:geometricPrecision" d="M986.976 439.869c-2.183 2.616-8.727 9.972-6.832 18.153 1.048 4.526 6.839 6.894 11.132 5.726 5.782-1.574 10.996-8.338 14.319-12.324 6.133-7.355 12.393-15.812 13.851-16.446-.212 4.936-1.253 16.668-1.253 22.244 0 3.524.201 6.616.834 7.566 3.365 5.06 11.074-4.47 11.905-6.559.745-1.87.193-2.93-.24-4.638-.77-3.054-1.25-7.695-1.398-12.734-.26-8.789.485-18.783 2.44-23.66.816-2.04-.237-3.037-2.327-2.595-2.446.519-5.925 2.636-6.79 3.876-.584.837-.598 1.795-.992 3.3-2.246 3.26-4.369 5.725-6.964 8.737-6.233 7.237-15.782 18.123-17.02 17.964-6.342-.814 10.06-29.186 10.07-31.506.013-3.214-4.94-2.886-6.785-1.895-1.814.977.129 1.047-2.683 3.917-3.26 3.326-7.387 6.827-10.886 9.99-13.7 12.379-40.829 35.804-45.765 44.664-.793 1.423-1.186 3.079-.091 4.565 2 2.71 7.29.884 9.805-.373 2.324-1.162 3.833-2.519 6.21-5.296 8.482-9.912 20.458-25.092 29.46-32.674z" class="fil4" transform="translate(-939.02 -412.614)"/><path style="clip-rule:evenodd;display:inline;fill:#bc2322;fill-rule:evenodd;image-rendering:optimizeQuality;shape-rendering:geometricPrecision;text-rendering:geometricPrecision" d="M986.976 439.869c-.268.32-.601.713-.976 1.168h11.242c2.847-8.812 10.461-22.484 10.467-24.065.013-3.214-4.94-2.886-6.785-1.895-1.814.977.129 1.047-2.683 3.917-3.26 3.326-7.387 6.827-10.886 9.99-3.731 3.37-8.458 7.561-13.46 12.053h11.735c.454-.406.903-.796 1.344-1.168zm27.01 1.168c2.655-3.295 4.703-5.73 5.46-6.058-.065 1.508-.206 3.65-.373 6.058h10.227v-.179c-.26-8.789.485-18.783 2.44-23.66.816-2.04-.237-3.037-2.327-2.595-2.446.519-5.925 2.636-6.79 3.876-.584.837-.598 1.795-.992 3.3-2.246 3.26-4.369 5.725-6.963 8.737-2.77 3.217-6.196 7.154-9.256 10.522h8.58z" class="fil41" transform="translate(-939.02 -412.614)"/></g></svg>