<svg xmlns="http://www.w3.org/2000/svg" width="400" height="265" viewBox="0 0 105.833 70.115" shape-rendering="crispEdges"><path style="fill:#e6e6e6;stroke:none;stroke-width:.26896214" d="M0 .006h105.833v70.108H0z"/><g style="opacity:1"><path style="clip-rule:evenodd;display:inline;fill:#fff;fill-rule:evenodd;stroke:#000;stroke-width:.38991264;image-rendering:optimizeQuality;shape-rendering:geometricPrecision;text-rendering:geometricPrecision" d="M40.883 265.196h-4.97l-.461 1.238h4.97zm11.638 3.531h-9.128c-.87 0-1.107-.71-.818-1.485l.79-2.12c.289-.775.771-1.112 1.192-1.112h9.57l.461-1.238H44.387c-.899.003-1.906.633-2.546 2.35l-.745 1.999c-.394 1.057-.204 3.138 1.784 3.138h9.07l.572-1.532zm47.78 0c.242 0 .44-.09.613-.485.115-.31.237-.593.258-.937.02-.36-.106-.583-.421-.583h-8.353l-.437 1.171h-1.524l1.91-5.121h1.524l-1.011 2.712h8.822c1.027 0 1.505.6 1.198 1.487l-.694 2.009c-.374 1.081-.957 1.279-2.456 1.279h-10.2l.57-1.532zm-11.897-4.717c.45 0 .552.45.315 1.128-.602 1.72-1.273 3.413-1.91 5.12h1.525c.636-1.707 1.303-3.401 1.91-5.12.552-1.567.44-2.366-.664-2.366h-7.173c-.562 0-1.186.4-1.742 1.031l-5.696 6.456h1.616l4.817-5.466c.423-.48.857-.783 1.226-.783h5.777zm-14.594.492-6.684 5.116c-2.414 1.847-4.137 1.015-3.17-1.725.606-1.719 1.273-3.414 1.909-5.12h1.524c-.636 1.706-1.296 3.404-1.909 5.12-.345.969.167 1.303.91.734l6.719-5.143c2.384-1.826 4.15-.952 3.135 1.752l-1.885 5.023h-1.524l1.909-5.121c.114-.306.184-1.491-.934-.636zm-13.177-.492h3.732l.462-1.238h-9.425l-.461 1.238h4.168c-.777 2.082-1.56 4.162-2.337 6.249h1.524c.776-2.082 1.56-4.163 2.337-6.25z" class="fil20" transform="matrix(1.04097 0 0 .74386 -2.129 -160.222)"/><path class="fil32" d="M15.35 266.483c-1.2 1.941-2.364 3.93-3.526 5.916-.632 1.08-1.264 2.16-1.905 3.23-.336.561-.689 1.122-1.081 1.605-.35.431-.714.772-1.127 1.067l-.358.255-.005-.015c-.588.36-1.268.64-1.877.673-.599.033-1.194-.172-1.602-.835a2.626 2.626 0 0 1-.403-.626l-.042-.065a3.526 3.526 0 0 1-.04-.064.657.657 0 0 1-.04-.062 1.81 1.81 0 0 1-.041-.063 2.292 2.292 0 0 1-.082-.127 3.909 3.909 0 0 1-.08-.126 2.479 2.479 0 0 1-.082-.127 2.383 2.383 0 0 1-.131-.223 3.152 3.152 0 0 1-.329-1.632c.027-.494.151-.966.318-1.395.327-.837.795-1.661 1.229-2.389a55.172 55.172 0 0 1 1.946-3c1.66-2.413 3.407-4.731 5.156-7.013a648.488 648.488 0 0 1 4.409-5.668c.77-.983 1.543-1.967 2.31-2.957.318-.41.638-.817.96-1.223.87-1.102 1.752-2.21 2.566-3.397.153-.224.368-.532.407-.857.071-.59.243-.838.608-1.119.378-.29.903-.421 1.33-.419.285.001.58.06.848.209.22.123.42.307.578.562a2.524 2.524 0 0 1 .08.125l.04.064c.015.02.028.042.041.063l.042.064.04.062.04.064a2.42 2.42 0 0 1 .121.189c.015.02.029.042.042.064l.04.062c.014.02.028.042.04.063l.041.063.042.064.04.063.04.064a2.792 2.792 0 0 1 .081.126l.041.063c.08.12.148.252.203.397.11.29.157.609.156.937 0 .394-.223 1.084-.336 1.447-.239.766-.499 1.524-.753 2.28a197.03 197.03 0 0 0-1.166 3.53 70.904 70.904 0 0 0-.82 2.745l-.014.053.104-.16a215.916 215.916 0 0 0 3.375-5.459c.393-.652.787-1.304 1.167-1.973.352-.619.688-1.25 1.006-1.904.022-.133.042-.267.061-.401.068-.468.13-.864.324-1.264.25-.51.78-1.013 1.155-1.319.429-.35.936-.68 1.418-.826.3-.09.626-.103.914.062.153.087.288.22.396.398.014.02.027.042.04.063.014.02.028.042.04.063.015.02.029.042.042.064.014.02.027.04.04.063.014.02.027.041.04.063a.866.866 0 0 1 .041.064c.014.02.027.04.04.062.015.02.028.042.042.064.014.02.027.042.04.063.014.02.027.041.04.063.015.02.028.042.041.064.015.02.028.042.041.063.014.02.027.042.04.063.015.02.028.042.041.063l.041.064c.014.02.027.04.04.063l.041.064c.014.02.028.041.04.063.014.02.027.04.04.062a2.293 2.293 0 0 1 .084.131c.112.184.184.402.22.639.06.414 0 .846-.108 1.234a14.283 14.283 0 0 0-.358 1.838 36.877 36.877 0 0 0-.25 2.45 69.732 69.732 0 0 0-.146 6.403 58.55 58.55 0 0 0 .153 3.303c.062.814.146 1.657.286 2.452.02.118.044.235.067.352.171.868.233 1.437-.013 2.32-.105.378-.324.816-.495 1.14a12.09 12.09 0 0 1-.876 1.422c-.392.543-.856 1.078-1.354 1.403-.55.357-1.15.453-1.68-.026a1.956 1.956 0 0 1-.343-.42 2.792 2.792 0 0 1-.405-.631 5.441 5.441 0 0 1-.082-.128l-.04-.063a2.42 2.42 0 0 1-.082-.127 2.313 2.313 0 0 1-.08-.125 4.184 4.184 0 0 1-.083-.128 2.787 2.787 0 0 1-.245-.432c-.19-.41-.26-1.066-.298-1.547a32.102 32.102 0 0 1-.072-2.44v-.558h.004a83.62 83.62 0 0 1 .046-1.736c.032-.917.073-1.833.115-2.75v-.022l-.378.676a283.705 283.705 0 0 1-2.012 3.545l-.26.45c-1.205 2.084-2.817 4.833-4.707 5.567l-.118.042c-.828.274-1.75.084-2.513-.442a3.871 3.871 0 0 1-1.073-1.131l-.041-.064a4.978 4.978 0 0 1-.08-.124 5.143 5.143 0 0 1-.04-.06l-.042-.067a2.65 2.65 0 0 1-.08-.125 2.872 2.872 0 0 1-.083-.128 4.19 4.19 0 0 1-.08-.125l-.04-.063a2.526 2.526 0 0 1-.04-.062l-.042-.065a2.849 2.849 0 0 1-.08-.124 3.604 3.604 0 0 1-.042-.066l-.04-.06a2.65 2.65 0 0 1-.082-.13 4.623 4.623 0 0 1-.69-1.818 9.592 9.592 0 0 1-.088-.698z" style="clip-rule:evenodd;display:inline;fill:#2b2a29;fill-rule:nonzero;stroke-width:.38991264;image-rendering:optimizeQuality;shape-rendering:geometricPrecision;text-rendering:geometricPrecision" transform="matrix(1.04097 0 0 .74386 -2.129 -160.222)"/><path class="fil4" d="M18.238 258.528c-.712 1.219-2.847 4.647-2.228 8.46.342 2.11 2.23 3.212 3.631 2.668 1.887-.733 3.588-3.886 4.672-5.743 2-3.428 4.043-7.369 4.519-7.664-.07 2.3-.41 7.767-.41 10.366 0 1.642.066 3.083.273 3.526 1.098 2.358 3.613-2.084 3.884-3.057.243-.872.063-1.365-.078-2.161-.252-1.424-.408-3.586-.457-5.934-.084-4.096.159-8.754.796-11.026.266-.951-.077-1.416-.759-1.21-.798.242-1.933 1.229-2.215 1.807-.19.39-.195.836-.324 1.537-.732 1.52-1.425 2.668-2.271 4.072-2.034 3.373-5.15 8.445-5.553 8.372-2.07-.38 3.282-13.602 3.285-14.683.004-1.498-1.612-1.345-2.213-.883-.592.455.042.488-.876 1.825-1.063 1.55-2.41 3.182-3.551 4.656-4.47 5.769-13.32 16.685-14.93 20.814-.26.663-.387 1.435-.03 2.127.652 1.264 2.378.412 3.198-.174.759-.541 1.251-1.173 2.026-2.468 2.768-4.619 6.675-11.693 9.612-15.226z" style="clip-rule:evenodd;display:inline;fill:#e31e24;fill-rule:evenodd;stroke-width:.38991264;image-rendering:optimizeQuality;shape-rendering:geometricPrecision;text-rendering:geometricPrecision" transform="matrix(1.04097 0 0 .74386 -2.129 -160.222)"/><path class="fil41" d="M18.238 258.528c-.087.15-.196.332-.318.544h3.668c.929-4.106 3.413-10.478 3.414-11.214.005-1.498-1.611-1.345-2.213-.883-.592.455.042.488-.875 1.825-1.064 1.55-2.41 3.181-3.552 4.655-1.217 1.571-2.76 3.524-4.391 5.617h3.828a25.4 25.4 0 0 1 .439-.544zm8.812.544c.866-1.535 1.535-2.67 1.781-2.823-.02.703-.067 1.701-.121 2.823h3.336v-.083c-.084-4.096.159-8.753.796-11.026.266-.95-.077-1.415-.759-1.21-.798.243-1.933 1.23-2.215 1.807-.19.39-.195.837-.324 1.538-.732 1.519-1.425 2.668-2.271 4.072a254.009 254.009 0 0 1-3.02 4.903h2.8z" style="clip-rule:evenodd;display:inline;fill:#bc2322;fill-rule:evenodd;stroke-width:.38991264;image-rendering:optimizeQuality;shape-rendering:geometricPrecision;text-rendering:geometricPrecision" transform="matrix(1.04097 0 0 .74386 -2.129 -160.222)"/></g></svg>