<?xml version="1.0" encoding="UTF-8" standalone="no"?>
<svg
   xmlns:dc="http://purl.org/dc/elements/1.1/"
   xmlns:cc="http://creativecommons.org/ns#"
   xmlns:rdf="http://www.w3.org/1999/02/22-rdf-syntax-ns#"
   xmlns:svg="http://www.w3.org/2000/svg"
   xmlns="http://www.w3.org/2000/svg"
   xmlns:sodipodi="http://sodipodi.sourceforge.net/DTD/sodipodi-0.dtd"
   xmlns:inkscape="http://www.inkscape.org/namespaces/inkscape"
   width="150"
   height="82"
   viewBox="0 0 150 81.999999"
   version="1.1"
   xml:space="preserve"
   style="clip-rule:evenodd;fill-rule:evenodd;stroke-linejoin:round;stroke-miterlimit:2"
   id="svg26"
   sodipodi:docname="glass_x.svg"
   inkscape:version="1.0.1 (3bc2e813f5, 2020-09-07)"><metadata
   id="metadata32"><rdf:RDF><cc:Work
       rdf:about=""><dc:format>image/svg+xml</dc:format><dc:type
         rdf:resource="http://purl.org/dc/dcmitype/StillImage" /><dc:title></dc:title></cc:Work></rdf:RDF></metadata><defs
   id="defs30" /><sodipodi:namedview
   pagecolor="#ffffff"
   bordercolor="#666666"
   borderopacity="1"
   objecttolerance="10"
   gridtolerance="10"
   guidetolerance="10"
   inkscape:pageopacity="0"
   inkscape:pageshadow="2"
   inkscape:window-width="1920"
   inkscape:window-height="1027"
   id="namedview28"
   showgrid="true"
   inkscape:zoom="10.053911"
   inkscape:cx="75.000008"
   inkscape:cy="41.625611"
   inkscape:window-x="-8"
   inkscape:window-y="-8"
   inkscape:window-maximized="1"
   inkscape:current-layer="g24"
   inkscape:document-rotation="0"
   fit-margin-top="0"
   fit-margin-left="0"
   fit-margin-right="0"
   fit-margin-bottom="0"><inkscape:grid
     type="xygrid"
     id="grid49"
     originx="-1.0697626"
     originy="-0.55405844" /></sodipodi:namedview>
    <g
   transform="matrix(0.1,0,0,-0.1,-2.0874525,607.16294)"
   id="g24">
        <path
   id="path22"
   style="fill-rule:nonzero;stroke-width:0.137604"
   d="m 267.2311,6071.6274 c -1.99795,0.01 -3.99332,-0.08 -5.97117,-0.376 -8.42438,-1.2633 -16.42316,-5.5366 -21.83467,-12.0589 -2.1366,-2.5744 -3.33608,-4.1724 -4.7309,-7.2178 -3.64372,-7.9536 -5.50097,-16.556 -7.59597,-24.9794 -3.43991,-13.8368 -5.0137,-20.328 -8.08342,-34.251 -2.99207,-13.5691 -6.43717,-29.9372 -9.14224,-43.5651 l -2.773,-12.7017 -23.43241,2.0484 c -5.81499,0.5354 -11.63662,1.0281 -17.45855,1.4884 -6.07702,0.4793 -12.50221,0.5844 -18.19782,-1.8752 -3.03769,-1.3301 -5.34611,-2.4136 -8.04008,-4.3583 -1.52488,-1.1008 -4.06926,-3.604 -5.29687,-5.0092 -2.78839,-3.1943 -5.54237,-6.511 -7.4362,-10.3199 -2.4957,-5.0529 -3.46733,-8.7402 -12.89554,-50.5295 -13.38404,-60.055 -26.980872,-120.0658 -40.3656,-180.1209 -10.201044,-45.7702 -20.316849,-91.5596 -30.391999,-137.3585 -4.15784,-18.8994 -8.156232,-37.8316 -12.305199,-56.7337 -3.099939,-14.1237 -6.715076,-28.1677 -8.909353,-42.4717 -1.33631,-8.7102 -1.250208,-17.5465 -1.386501,-26.3263 -0.174145,-11.2121 -0.83782,-23.6113 5.313116,-33.6162 3.80858,-6.1959 9.162437,-11.191 14.701786,-15.8624 8.322751,-7.0177 16.622335,-14.1265 25.598821,-20.341 12.767874,-8.8392 26.12739,-16.9134 40.265409,-23.459 19.15895,-8.8703 39.02367,-16.1699 59.12669,-22.6668 21.41451,-6.9213 43.12795,-12.9205 64.90018,-18.6418 16.62553,-4.3687 33.34099,-8.4866 50.26879,-11.5628 29.78897,-5.4131 59.75972,-9.7888 89.77054,-13.814 29.49781,-3.9567 58.99486,-8.0847 88.65212,-10.7546 11.63827,-1.0657 20.6315,-1.8791 28.35287,-2.5633 2.52313,28.5827 7.94643,56.6892 16.10995,83.9296 -14.81078,1.1966 -28.78521,2.5268 -41.68982,3.9876 -19.27236,2.1851 -49.22079,4.5078 -49.22079,4.5078 l -36.04903,5.5987 -90.81583,15.1583 -70.01831,16.252 -41.59504,12.2909 c 0,0 -48.25024,18.8468 -49.91404,21.0318 -1.56342,1.5404 -3.70667,2.2888 -5.54601,3.4141 -3.12586,1.9133 -6.2786,3.946 -8.73604,6.6896 -3.46625,3.5508 -3.74301,4.6455 -2.91111,10.3812 0.41595,3.4142 1.66435,9.4226 2.6349,13.1098 11.11308,43.7846 19.70752,88.128 29.11923,132.2827 14.2524,66.8629 23.90696,110.9187 38.95743,177.6136 3.82397,16.9398 8.26959,33.7343 11.36011,50.8283 1.57783,8.7362 2.46789,17.5224 4.45197,26.193 0.93866,4.1011 2.34464,8.3772 4.33011,12.1123 2.11024,3.9713 7.21845,4.7618 11.25178,3.5368 2.01736,-0.6131 3.99875,-1.8397 4.90691,-3.8035 1.11752,-2.4186 0.28311,-4.9519 -0.18414,-7.3991 -3.36781,-17.6267 -3.2257,-17.6301 -7.01917,-35.1926 -7.71865,-35.7244 -15.45587,-71.4446 -23.25909,-107.1512 -7.29993,-33.4015 -16.31295,-73.6732 -24.0011,-106.9912 -1.17021,-5.6389 -2.36869,-11.2722 -3.58811,-16.9001 -1.19434,-5.5146 -2.9417,-11.0993 -2.61865,-16.8201 0.0947,-1.6756 0.88715,-4.8594 1.29714,-6.4735 1.07343,-4.2254 2.0822,-8.5106 3.82641,-12.5311 0.25235,-0.579 1.00333,-1.8033 1.46504,-2.2485 0.53657,-0.5176 0.9385,-0.2435 1.33504,-0.9523 0.69048,-1.2345 0.5907,-2.1813 1.32693,-3.3981 0.99135,-1.6388 2.75554,-3.6246 4.07827,-5.0012 4.41878,-4.5969 6.57833,-6.6607 11.23282,-11.024 3.54944,-3.3268 7.05136,-6.9192 11.45488,-9.1862 2.07976,-0.956 3.46626,-1.6383 13.17177,-7.6473 12.75581,-7.9208 52.27109,-24.4453 67.93856,-28.6789 2.35705,-0.5462 8.8736,-2.5964 14.55826,-4.3717 24.81837,-8.0574 69.87966,-18.9816 107.45384,-26.2197 43.38334,-8.2911 105.74053,-17.2922 145.18997,-21.2264 4.91505,8.9832 10.15629,17.8022 15.72542,26.4357 -6.50644,0.7113 -12.64869,1.4323 -18.10576,2.1659 -5.26871,0.8194 -13.44906,1.6388 -18.02452,2.0484 -9.70551,0.956 -33.41468,3.96 -51.99379,6.9644 -47.14104,7.238 -55.876,8.7408 -92.20233,16.252 -12.61717,2.7313 -47.97295,11.1984 -56.84655,13.6566 -6.30581,1.8409 -12.73309,3.2649 -19.02919,5.1372 -6.83961,2.0349 -12.32515,4.1102 -19.0996,6.3348 -21.76807,6.8284 -50.19134,18.8457 -61.6993,26.0838 -2.2184,1.5021 -5.13006,3.1398 -6.23926,3.6861 -7.07115,3.1411 -19.13317,14.2035 -24.40188,22.3975 -3.8822,6.1454 -4.02193,9.1489 -1.11028,21.4398 9.57379,43.6152 19.31894,87.1972 29.02445,130.7836 9.70551,43.5879 19.47952,87.1586 29.2086,130.741 0.32305,1.4449 0.64417,2.8934 0.9478,4.3424 0.21213,1.0161 0.34191,2.0489 0.60119,3.0541 0.83467,3.2256 5.0493,2.9888 7.63928,2.8139 1.295,-0.088 2.58982,-0.1616 3.87788,-0.32 l 15.63605,-1.2857 c 0,0 99.82755,-8.6026 145.72074,-10.5145 26.31024,-1.0202 52.62013,-2.0527 78.93038,-3.0674 8.02507,-0.31 20.62957,-0.8061 28.66157,-0.8936 15.44562,-0.1666 38.01459,-0.052 53.45883,0.01 60.90761,0.239 121.81538,0.4863 182.72299,0.7335 l 148.02525,2.1819 73.76349,1.9471 c -36.85043,-35.3502 -73.70155,-70.7019 -110.48682,-106.119 -23.25717,-22.3928 -46.42969,-44.8751 -69.15445,-67.795 -1.34074,-1.3534 -2.04933,-3.1953 -1.96059,-5.0839 0.0874,-1.8887 0.965,-3.6549 2.42637,-4.8812 3.43159,-2.8816 7.76384,-6.5179 10.99994,-9.2343 2.65931,-2.2314 6.58904,-2.1642 9.16932,0.1548 7.37618,6.6194 14.20782,12.7785 21.53409,19.9702 16.04598,15.7446 31.96594,31.6117 47.88575,47.4808 42.07754,41.9422 84.08316,83.9589 126.10666,125.9531 l 59.5978,4.6571 c 0,0 -142.94088,-141.0913 -171.88548,-169.6624 -1.32827,-1.3124 -2.06026,-3.1013 -2.0256,-4.9532 0.036,-1.8532 0.83426,-3.6113 2.21244,-4.8731 3.45517,-3.1616 7.946,-7.2693 11.32491,-10.3626 2.73556,-2.5032 6.99395,-2.4229 9.62968,0.1814 15.60231,15.4197 66.04124,65.2714 93.43985,92.4304 71.5435,70.7413 105.8805,101.8086 105.8805,101.8086 l 86.1662,6.4149 c 4.0638,0.3673 8.1344,0.6651 12.1996,1.0188 2.2947,0.2008 6.2301,1.1393 7.1979,-1.8324 0.1941,-0.5995 0.2757,-1.2285 0.4116,-1.8431 24.1265,-108.9799 48.2602,-217.9591 72.377,-326.9403 0,0 1.9028,-9.035 3.6017,-18.3245 1.499,-8.1968 2.8393,-16.5918 2.5699,-19.154 -2.8597,-0.7712 -7.6885,-1.8365 -13.4264,-3.0194 -9.9785,-2.0569 -21.6279,-4.2703 -31.5374,-6.1295 6.2369,-8.2239 12.1541,-16.6526 17.7537,-25.2648 2.5798,0.547 5.2385,1.115 7.4497,1.5604 6.1006,1.3657 17.1932,4.2331 17.1932,4.2331 l 10.767,2.5793 2.2829,-8.466 c 0,0 6.6545,-18.6549 0.084,-26.0117 -1.9441,-2.1768 -9.7387,-5.4259 -17.6047,-8.3647 12.75,-24.3323 23.0975,-49.8226 30.9011,-76.1198 15.715,8.2775 29.2698,16.967 32.9104,19.5568 24.5411,17.4805 36.4655,33.4604 42.1501,56.2669 3.1889,12.7007 -6.6399,54.4719 -6.6399,54.4719 11.9932,4.6159 23.9033,9.4314 35.8134,14.2194 7.3899,2.9704 18.1193,7.5461 25.3985,10.7786 8.4576,3.761 17.1255,7.3969 24.7512,12.7284 7.1821,5.0284 13.157,11.5342 18.4118,18.4445 2.6205,3.4319 5.2561,6.9675 6.8783,10.9893 2.468,6.0909 3.9514,12.5514 4.5061,19.0793 1.0122,11.8185 -1.9562,23.4832 -4.5765,34.9125 -16.2221,75.2958 -33.5683,154.0102 -50.3311,229.1886 -13.6709,61.3197 -27.4795,122.6103 -41.1782,183.9246 -3.2582,14.5825 -4.3674,20.491 -7.8477,35.0245 -2.26,9.4189 -5.2964,19.0996 -11.7852,26.593 -1.2465,1.4313 -3.2283,3.3241 -4.7742,4.4385 -7.9003,5.6852 -18.177,6.4087 -27.6163,6.1028 -4.5977,-0.1489 -9.1946,-0.3601 -13.7811,-0.7042 -4.5852,-0.3441 -9.157,-0.8563 -13.7269,-1.363 -15.9004,-1.7645 -31.6689,-4.4904 -47.4958,-6.7696 -15.5455,-2.2384 -17.8671,-2.3833 -33.4791,-4.089 -15.3833,-1.6825 -31.911,-3.5861 -47.3442,-4.7879 -9.0885,-0.7074 -18.1986,-1.1461 -27.294,-1.7524 -37.3773,-2.4978 -74.7398,-5.3616 -112.1739,-6.943 -141.70044,-5.8724 -365.06578,-5.8724 -509.53921,0 -56.49854,2.3271 -112.83185,7.5089 -169.04754,13.4059 -18.74134,1.9666 -37.4786,3.9828 -56.20746,6.0682 -14.72464,1.6388 -29.40503,3.6619 -44.13244,5.2679 -9.69303,1.057 -15.3889,1.3858 -25.12492,1.8885 -1.98616,0.1023 -3.98676,0.2117 -5.9847,0.2213 z m 1067.4976,-90.4672 c 0.739,0.07 1.4898,-0.034 2.226,-0.136 3.25,-0.4506 3.5868,-4.3886 4.1649,-6.855 1.4198,-6.0581 2.925,-12.0941 4.2976,-18.1617 7.0046,-30.9773 13.8629,-61.9863 20.8301,-92.9718 8.7626,-38.9706 17.5111,-77.9435 26.3597,-116.8949 15.6329,-68.7967 31.3701,-137.5697 47.0653,-206.3486 0.6655,-2.9034 1.703,-5.8797 1.3702,-8.9142 -0.6793,-6.1018 -6.2381,-10.13 -11.2572,-12.8804 -2.6344,-1.4476 -5.3256,-2.8105 -8.0293,-4.1557 -8.0555,-4.026 -16.4434,-7.4264 -25.0924,-10.0184 l -80.2248,369.5614 c 0,0 -9.7049,43.0178 -15.3896,50.6655 -4.9914,6.8283 -9.0133,9.9688 -17.7483,13.7927 -6.5166,3.0045 -23.9865,3.2781 -35.3558,0.5468 -21.2135,-5.053 -69.0472,-11.1979 -127.6962,-16.524 -12.6172,-1.0925 -75.1484,-5.0541 -91.5091,-5.8734 -110.73706,-5.9625 -221.6648,-8.032 -332.55717,-7.4338 -83.27465,0.4493 -166.57355,1.3877 -249.77333,5.1133 -62.11525,2.8678 -131.7187,7.51 -147.38616,9.8316 -5.13006,0.8194 -5.12897,0.821 -4.43572,5.7374 0.97055,5.8724 9.84524,47.1149 10.81579,48.6171 1.80245,2.185 2.77138,2.3206 12.89284,0.9549 37.71283,-5.3261 70.57345,-8.7391 113.55499,-11.8802 67.24531,-4.9164 73.06861,-5.1895 171.92615,-8.8768 126.44891,-4.6432 384.89274,-3.8244 475.56991,1.5017 13.0331,0.8194 31.7509,1.6388 41.595,2.0485 8.0556,0.3305 17.7498,1.3572 25.7749,2.0591 17.7236,1.5501 35.4508,3.0537 53.1745,4.6091 19.0893,1.6744 38.1784,3.3537 57.2636,5.0786 19.0865,1.7235 38.1732,3.4217 57.2473,5.2626 3.3983,0.3278 6.7773,0.8182 10.1659,1.243 3.3872,0.4247 6.7607,0.9835 10.1604,1.3016 z" />
    </g>
</svg>
