<?xml version="1.0" encoding="UTF-8" standalone="no"?>
<!DOCTYPE svg PUBLIC "-//W3C//DTD SVG 1.1//EN" "http://www.w3.org/Graphics/SVG/1.1/DTD/svg11.dtd">
<svg width="100%" height="100%" viewBox="0 0 512 512" version="1.1" xmlns="http://www.w3.org/2000/svg" xmlns:xlink="http://www.w3.org/1999/xlink" xml:space="preserve" xmlns:serif="http://www.serif.com/" style="fill-rule:evenodd;clip-rule:evenodd;stroke-linejoin:round;stroke-miterlimit:2;">
    <path d="M346.424,207.4L340.816,192.416C335.8,194.296 330.712,196.016 325.688,197.536L330.312,212.848C335.664,211.232 341.088,209.4 346.424,207.4Z" style="fill-rule:nonzero;"/>
    <path d="M296,242.24L296,220.736C301.936,219.784 307.896,218.616 313.808,217.256L310.2,201.664C302.488,203.456 294.672,204.864 286.968,205.88L280,206.8L280,242.248C280,244.392 280.048,246.528 280.16,248.656L296.144,247.84C296.048,245.976 296,244.12 296,242.24Z" style="fill-rule:nonzero;"/>
    <path d="M152,104C125.528,104 104,125.528 104,152C104,178.472 125.528,200 152,200C178.472,200 200,178.472 200,152C200,125.528 178.472,104 152,104ZM152,184C134.352,184 120,169.648 120,152C120,134.352 134.352,120 152,120C169.648,120 184,134.352 184,152C184,169.648 169.648,184 152,184Z" style="fill-rule:nonzero;"/>
    <path d="M363.824,150.304L360.008,148.232L356.192,150.304C325.568,166.896 290.904,175.784 255.952,175.992L248,176.04L248,242.24C248,311.656 291.912,374.2 357.272,397.864L360,398.848L362.728,397.864C428.088,374.2 472,311.656 472,242.24L472,176.04L464.048,175.992C429.12,175.784 394.464,166.896 363.824,150.304ZM456,242.24C456,303.976 417.544,359.696 360,381.8C302.456,359.688 264,303.968 264,242.24L264,191.8C297.424,190.432 330.376,181.712 360.008,166.384C389.648,181.712 422.592,190.432 456,191.8L456,242.24Z" style="fill-rule:nonzero;"/>
    <path d="M328,252.688L292.688,288L344,339.312L443.312,240L408,204.688L344,268.688L328,252.688ZM420.688,240L344,316.688L315.312,288L328,275.312L344,291.312L408,227.312L420.688,240Z" style="fill-rule:nonzero;"/>
    <path d="M504,144L465.368,144C429.416,144 394.608,133.464 364.392,113.312L359.696,110.584L355.288,113.52C337.072,125.672 317.016,134.28 296,139.192L296,121.664L274.92,116.704C272.264,107.432 268.56,98.504 263.872,90.048L275.28,71.624L232.376,28.72L213.952,40.128C205.496,35.44 196.568,31.736 187.296,29.08L182.336,8L121.664,8L116.704,29.08C107.432,31.736 98.504,35.44 90.048,40.128L71.624,28.72L28.72,71.624L40.128,90.048C35.44,98.504 31.736,107.432 29.08,116.704L8,121.664L8,182.336L29.08,187.296C31.736,196.568 35.44,205.496 40.128,213.952L28.72,232.376L71.624,275.28L90.048,263.872C98.504,268.56 107.432,272.264 116.704,274.92L121.664,296L182.336,296L187.296,274.92C196.568,272.264 205.496,268.56 213.952,263.872L217.64,266.152C221.928,300.736 235.224,333.176 255.6,360.392L228.688,459.072L268.192,449.192L298.088,499.024L324.912,418.552C335.344,423.824 346.28,428.288 357.744,431.664L360,432.336L362.256,431.672C373.72,428.296 384.656,423.832 395.088,418.56L421.912,499.032L451.808,449.2L491.312,459.08L464.4,360.4C489.416,326.976 504,285.744 504,242.24L504,144ZM214.128,245.168L209.944,247.712C200.224,253.6 189.728,257.96 178.72,260.648L173.952,261.816L169.664,280L134.336,280L130.056,261.816L125.288,260.648C114.28,257.96 103.784,253.6 94.064,247.712L89.88,245.168L73.992,255L49.008,230.016L58.84,214.128L56.296,209.944C50.408,200.224 46.048,189.728 43.36,178.72L42.192,173.952L24,169.664L24,134.336L42.184,130.056L43.352,125.288C46.04,114.28 50.4,103.784 56.288,94.064L58.832,89.88L49,73.984L73.984,49L89.872,58.832L94.056,56.288C103.776,50.4 114.272,46.04 125.28,43.352L130.048,42.184L134.336,24L169.664,24L173.944,42.184L178.712,43.352C189.72,46.04 200.216,50.4 209.936,56.288L214.12,58.832L230.008,49L254.992,73.984L245.16,89.872L247.704,94.056C253.592,103.776 257.952,114.272 260.64,125.28L261.808,130.048L280,134.336L280,142.192C271.64,143.36 263.176,144 254.632,144L247.592,144C243.504,94.8 202.24,56 152,56C99.064,56 56,99.064 56,152C56,204.936 99.064,248 152,248C175.84,248 198.56,239.048 216,223.456L216,242.248C216,243.656 216.144,245.04 216.176,246.44L214.128,245.168ZM216,144L216,199.832C200.904,219.976 177.208,232 152,232C107.888,232 72,196.112 72,152C72,107.888 107.888,72 152,72C193.408,72 227.568,103.632 231.592,144L216,144ZM293.912,460.968L275.808,430.8L251.312,436.92L268.104,375.336C280.52,388.944 294.824,400.848 310.696,410.608L293.912,460.968ZM468.688,436.92L444.192,430.8L426.088,460.968L409.304,410.608C425.176,400.848 439.48,388.944 451.896,375.336L468.688,436.92ZM488,242.24C488,321.392 435.488,392.36 360,415.648C284.512,392.36 232,321.392 232,242.24L232,160L254.632,160C292.016,160 328.256,149.528 359.992,129.536C391.576,149.488 427.904,160 465.368,160L488,160L488,242.24Z" style="fill-rule:nonzero;"/>
</svg>
