<?xml version="1.0" encoding="UTF-8" standalone="no"?>
<!DOCTYPE svg PUBLIC "-//W3C//DTD SVG 1.1//EN" "http://www.w3.org/Graphics/SVG/1.1/DTD/svg11.dtd">
<svg width="100%" height="100%" viewBox="0 0 512 512" version="1.1" xmlns="http://www.w3.org/2000/svg" xmlns:xlink="http://www.w3.org/1999/xlink" xml:space="preserve" xmlns:serif="http://www.serif.com/" style="fill-rule:evenodd;clip-rule:evenodd;stroke-linejoin:round;stroke-miterlimit:2;">
    <g>
        <path d="M256,0L30,64.266L30,197.603C30,267.532 51.518,334.405 92.226,390.991C132.064,446.368 186.968,487.601 251.001,510.234L256,512L260.999,510.233C325.032,487.6 379.937,446.367 419.774,390.99C460.482,334.404 482,267.531 482,197.603L482,64.266L256,0ZM256,414.943C220.104,397.518 188.841,371.175 165.284,338.431C141.09,304.799 126.216,266.153 121.573,225.361L256,187.137L390.427,225.362C385.785,266.153 370.911,304.8 346.716,338.432C323.159,371.176 291.896,397.519 256,414.943ZM392,194.621L256,155.947L120,194.621L120,132.241L256,93.568L392,132.241L392,194.621ZM60,197.603L60,86.924L241,35.455L241,66.644L90,109.583L90,197.603C90,254.879 107.611,309.635 140.932,355.952C166.979,392.157 201.432,421.399 241,440.995L241,474.056C131.904,426.484 60,317.973 60,197.603ZM452,197.603C452,317.974 380.096,426.485 271,474.056L271,440.995C310.568,421.399 345.022,392.157 371.069,355.952C404.389,309.635 422,254.879 422,197.603L422,109.583L271,66.644L271,35.455L452,86.924L452,197.603Z" style="fill-rule:nonzero;"/>
    </g>
</svg>
