<?xml version="1.0" encoding="UTF-8" standalone="no"?>
<!DOCTYPE svg PUBLIC "-//W3C//DTD SVG 1.1//EN" "http://www.w3.org/Graphics/SVG/1.1/DTD/svg11.dtd">
<svg width="100%" height="100%" viewBox="0 0 512 512" version="1.1" xmlns="http://www.w3.org/2000/svg" xmlns:xlink="http://www.w3.org/1999/xlink" xml:space="preserve" xmlns:serif="http://www.serif.com/" style="fill-rule:evenodd;clip-rule:evenodd;stroke-linejoin:round;stroke-miterlimit:2;">
    <path id="path2" d="M512,256C512,267.047 503.046,276.001 492,276.001L472,276.001C471.354,276.001 470.716,275.964 470.086,275.904C469.039,286.861 459.326,294.914 448.359,293.918C437.359,292.912 429.257,283.18 430.263,272.18C430.752,266.837 431,261.394 431,256C431,159.505 352.495,81 256,81C159.505,81 81,159.505 81,256C81,352.496 159.505,431.001 256,431.001C317.276,431.001 373.049,399.795 405.19,347.525C407.969,343.006 412.428,339.776 417.588,338.546C422.749,337.317 428.185,338.185 432.703,340.964L467.604,362.427C477.013,368.213 479.95,380.531 474.164,389.94C468.378,399.351 456.057,402.283 446.651,396.5L427.99,385.024C414.612,402.818 398.511,418.483 380.374,431.376C380.743,431.894 381.095,432.429 381.419,432.991L391.429,450.306C396.957,459.869 393.687,472.102 384.124,477.631C380.973,479.453 377.529,480.319 374.133,480.319C367.225,480.319 360.506,476.736 356.8,470.325L346.79,453.01C346.47,452.457 346.187,451.893 345.926,451.324C323.871,461.472 300.158,467.82 275.901,470.072C275.962,470.707 275.998,471.349 275.998,472L275.998,492C275.998,503.046 267.044,512 255.998,512C244.952,512 235.998,503.046 235.998,492L235.998,472C235.998,471.353 236.035,470.715 236.095,470.084C209.64,467.671 184.195,460.46 160.777,448.872C160.508,449.414 160.222,449.95 159.899,450.476L149.423,467.513C145.647,473.655 139.084,477.04 132.367,477.04C128.793,477.04 125.178,476.083 121.91,474.074C112.501,468.288 109.563,455.97 115.348,446.561L125.824,429.524C126.159,428.979 126.521,428.46 126.898,427.959C118.87,421.906 111.204,415.262 103.969,408.027C95.308,399.366 87.485,390.091 80.524,380.309C80.017,380.669 79.493,381.014 78.944,381.331L61.624,391.332C58.474,393.151 55.035,394.016 51.642,394.016C44.73,394.016 38.008,390.429 34.303,384.014C28.78,374.448 32.057,362.216 41.622,356.693L58.942,346.692C59.475,346.384 60.02,346.113 60.568,345.86C50.474,323.938 44.144,300.353 41.914,275.904C41.285,275.964 40.647,276.001 40,276.001L20,276.001C8.954,276.001 0,267.047 0,256C0,244.954 8.954,236 20,236L40,236C40.647,236 41.285,236.037 41.916,236.097C44.309,209.863 51.422,184.623 62.841,161.367C62.298,161.099 61.759,160.815 61.233,160.493L44.165,150.069C34.738,144.312 31.763,132.003 37.52,122.576C43.277,113.148 55.586,110.174 65.012,115.931L82.08,126.355C82.625,126.688 83.143,127.047 83.643,127.422C89.801,119.204 96.58,111.364 103.971,103.972C112.633,95.31 121.908,87.487 131.691,80.525C131.331,80.017 130.984,79.496 130.667,78.946L120.666,61.626C115.143,52.061 118.42,39.829 127.985,34.305C137.551,28.782 149.783,32.058 155.306,41.624L165.307,58.944C165.615,59.477 165.886,60.021 166.14,60.57C188.062,50.476 211.647,44.145 236.097,41.916C236.037,41.285 236,40.647 236,40L236,20C236,8.954 244.954,0 256,0C267.046,0 276,8.954 276,20L276,40C276,40.647 275.963,41.285 275.903,41.916C302.216,44.316 327.528,51.464 350.842,62.943C351.11,62.4 351.395,61.862 351.717,61.336L362.159,44.278C367.927,34.858 380.24,31.896 389.659,37.663C399.08,43.43 402.041,55.742 396.274,65.163L385.832,82.221C385.498,82.766 385.135,83.281 384.76,83.783C392.911,89.904 400.691,96.636 408.028,103.973C416.692,112.637 424.518,121.916 431.481,131.702C431.989,131.342 432.512,130.997 433.061,130.68L450.381,120.68C459.946,115.157 472.179,118.434 477.701,128C483.224,137.566 479.946,149.797 470.381,155.32L453.061,165.32C452.527,165.628 451.983,165.899 451.435,166.152C461.526,188.07 467.854,211.651 470.084,236.096C470.715,236.036 471.353,235.999 472,235.999L492,235.999C503.046,236 512,244.954 512,256ZM147,181C135.954,181 127,189.954 127,201L127,289.001C127,319.328 151.673,344.001 182,344.001C212.327,344.001 237,319.328 237,289.001L237,201C237,189.954 228.046,181 217,181C205.954,181 197,189.954 197,201L197,289.001C197,297.272 190.271,304.001 182,304.001C173.729,304.001 167,297.272 167,289.001L167,201C167,189.954 158.046,181 147,181ZM286,181C274.954,181 266,189.954 266,201L266,258C266,272.833 273.632,290.526 289.331,312.092C299.724,326.368 310.05,337.301 310.484,337.759C314.23,341.712 319.427,343.966 324.873,344L325,344C330.4,344 335.574,341.815 339.341,337.941C339.786,337.483 350.37,326.557 361.026,312.285C377.158,290.68 385,272.923 385,258L385,201C385,189.954 376.046,181 365,181C353.954,181 345,189.954 345,201L345,258C345,258.902 344.558,267.397 329.22,288.026C327.867,289.844 326.51,291.607 325.178,293.289C314.597,279.435 306,264.9 306,258L306,201C306,189.954 297.046,181 286,181Z" style="fill-rule:nonzero;"/>
</svg>
