<?xml version="1.0" encoding="UTF-8" standalone="no"?>
<!DOCTYPE svg PUBLIC "-//W3C//DTD SVG 1.1//EN" "http://www.w3.org/Graphics/SVG/1.1/DTD/svg11.dtd">
<svg width="100%" height="100%" viewBox="0 0 512 512" version="1.1" xmlns="http://www.w3.org/2000/svg" xmlns:xlink="http://www.w3.org/1999/xlink" xml:space="preserve" xmlns:serif="http://www.serif.com/" style="fill-rule:evenodd;clip-rule:evenodd;stroke-linejoin:round;stroke-miterlimit:2;">
    <path d="M512,256C512,267.046 503.046,276 492,276L472,276C471.354,276 470.716,275.963 470.086,275.903C469.039,286.86 459.326,294.913 448.359,293.917C437.359,292.911 429.257,283.179 430.263,272.179C430.752,266.836 431,261.393 431,256C431,159.505 352.495,81 256,81C159.505,81 81,159.505 81,256C81,352.495 159.505,431 256,431C317.276,431 373.049,399.794 405.19,347.524C407.969,343.005 412.428,339.775 417.588,338.545C422.749,337.316 428.185,338.184 432.703,340.963L467.604,362.426C477.013,368.212 479.95,380.53 474.164,389.939C468.378,399.35 456.057,402.282 446.651,396.499L427.99,385.023C414.612,402.817 398.511,418.482 380.374,431.375C380.743,431.893 381.095,432.428 381.419,432.99L391.429,450.305C396.957,459.868 393.687,472.101 384.124,477.63C380.973,479.452 377.529,480.318 374.133,480.318C367.225,480.318 360.506,476.735 356.8,470.324L346.79,453.009C346.47,452.456 346.187,451.892 345.926,451.323C323.871,461.471 300.158,467.819 275.901,470.071C275.962,470.706 275.998,471.348 275.998,471.999L275.998,491.999C275.998,503.045 267.044,511.999 255.998,511.999C244.952,511.999 235.998,503.045 235.998,491.999L235.998,471.999C235.998,471.352 236.035,470.714 236.095,470.083C209.64,467.67 184.195,460.459 160.777,448.871C160.508,449.413 160.222,449.949 159.899,450.475L149.423,467.512C145.647,473.654 139.084,477.039 132.367,477.039C128.793,477.039 125.178,476.082 121.91,474.073C112.501,468.287 109.563,455.969 115.348,446.56L125.824,429.523C126.159,428.978 126.521,428.459 126.898,427.958C118.87,421.905 111.204,415.261 103.969,408.026C95.308,399.365 87.485,390.09 80.524,380.308C80.017,380.668 79.493,381.013 78.944,381.33L61.624,391.331C58.474,393.15 55.035,394.015 51.642,394.015C44.73,394.015 38.008,390.428 34.303,384.013C28.78,374.447 32.057,362.215 41.622,356.692L58.942,346.691C59.475,346.383 60.02,346.112 60.568,345.859C50.474,323.937 44.144,300.352 41.914,275.903C41.285,275.963 40.647,276 40,276L20,276C8.954,276 0,267.046 0,256C0,244.954 8.954,236 20,236L40,236C40.647,236 41.285,236.037 41.916,236.097C44.309,209.863 51.422,184.623 62.841,161.367C62.298,161.099 61.759,160.815 61.233,160.493L44.165,150.069C34.738,144.312 31.763,132.003 37.52,122.576C43.277,113.148 55.586,110.174 65.012,115.931L82.08,126.355C82.625,126.688 83.143,127.047 83.643,127.422C89.801,119.204 96.58,111.364 103.971,103.972C112.633,95.31 121.908,87.487 131.691,80.525C131.331,80.017 130.984,79.496 130.667,78.946L120.666,61.626C115.143,52.061 118.42,39.829 127.985,34.305C137.551,28.782 149.783,32.058 155.306,41.624L165.307,58.944C165.615,59.477 165.886,60.021 166.14,60.57C188.062,50.476 211.647,44.145 236.097,41.916C236.037,41.285 236,40.647 236,40L236,20C236,8.954 244.954,0 256,0C267.046,0 276,8.954 276,20L276,40C276,40.647 275.963,41.285 275.903,41.916C302.216,44.316 327.528,51.464 350.842,62.943C351.11,62.4 351.395,61.862 351.717,61.336L362.159,44.278C367.927,34.858 380.24,31.896 389.659,37.663C399.08,43.43 402.041,55.742 396.274,65.163L385.832,82.221C385.498,82.766 385.135,83.281 384.76,83.783C392.911,89.904 400.691,96.636 408.028,103.973C416.692,112.637 424.518,121.916 431.481,131.702C431.989,131.342 432.512,130.997 433.061,130.68L450.381,120.68C459.946,115.157 472.179,118.434 477.701,128C483.224,137.566 479.946,149.797 470.381,155.32L453.061,165.32C452.527,165.628 451.983,165.899 451.435,166.152C461.526,188.07 467.854,211.651 470.084,236.096C470.715,236.036 471.353,235.999 472,235.999L492,235.999C503.046,236 512,244.954 512,256ZM147,181C135.954,181 127,189.954 127,201L127,289C127,319.327 151.673,344 182,344C212.327,344 237,319.327 237,289L237,201C237,189.954 228.046,181 217,181C205.954,181 197,189.954 197,201L197,289C197,297.271 190.271,304 182,304C173.729,304 167,297.271 167,289L167,201C167,189.954 158.046,181 147,181ZM286,181C274.954,181 266,189.954 266,201L266,258C266,272.832 273.632,290.525 289.331,312.091C299.724,326.367 310.05,337.3 310.484,337.758C314.23,341.711 319.427,343.965 324.873,343.999L325,343.999C330.4,343.999 335.574,341.814 339.341,337.94C339.786,337.482 350.37,326.556 361.026,312.284C377.158,290.679 385,272.922 385,258L385,201C385,189.954 376.046,181 365,181C353.954,181 345,189.954 345,201L345,258C345,258.901 344.558,267.396 329.22,288.025C327.867,289.843 326.51,291.606 325.178,293.288C314.597,279.434 306,264.899 306,258L306,201C306,189.954 297.046,181 286,181Z" style="fill:url(#_Linear1);fill-rule:nonzero;"/>
    <defs>
        <linearGradient id="_Linear1" x1="0" y1="0" x2="1" y2="0" gradientUnits="userSpaceOnUse" gradientTransform="matrix(512,0,0,512,0,256)"><stop offset="0" style="stop-color:rgb(0,242,254);stop-opacity:1"/><stop offset="0.02" style="stop-color:rgb(3,239,254);stop-opacity:1"/><stop offset="0.29" style="stop-color:rgb(36,210,254);stop-opacity:1"/><stop offset="0.55" style="stop-color:rgb(60,189,254);stop-opacity:1"/><stop offset="0.8" style="stop-color:rgb(74,176,254);stop-opacity:1"/><stop offset="1" style="stop-color:rgb(79,172,254);stop-opacity:1"/></linearGradient>
    </defs>
</svg>
