<?xml version="1.0" encoding="iso-8859-1"?>
<!-- Generator: Adobe Illustrator 18.1.1, SVG Export Plug-In . SVG Version: 6.00 Build 0)  -->
<svg version="1.1" id="Capa_1" xmlns="http://www.w3.org/2000/svg" xmlns:xlink="http://www.w3.org/1999/xlink" x="0px" y="0px"
	 viewBox="0 0 325.446 325.446" style="enable-background:new 0 0 325.446 325.446;" xml:space="preserve">
<g>
	<g>
		<path style="fill:#010002;" d="M263.585,0.005c0.294,3.138,0.484,6.304,0.484,9.513c0,7.468-0.87,14.734-2.41,21.745
			c5.483,2.23,11.873,3.535,18.721,3.535c0,0,36.627-11.172,36.627-24.96V9.192c0-3.247-2.078-6.342-5.189-9.192h-48.234V0.005z"/>
		<path style="fill:#010002;" d="M184.469,108.455c-7.016,1.539-14.278,2.41-21.745,2.41c-7.468,0-14.734-0.87-21.745-2.41
			c-2.23,5.483-3.535,11.873-3.535,18.721c0,0,11.172,36.627,24.96,36.627h0.647c13.783,0,24.96-36.627,24.96-36.627
			C188.004,120.328,186.699,113.938,184.469,108.455z"/>
		<path style="fill:#010002;" d="M112.064,97.163c-12.646-7.337-23.557-17.307-31.987-29.186
			c-5.379,2.545-10.688,6.331-15.338,11.422c0,0-16.431,34.587-6.249,43.877l0.479,0.435c10.182,9.29,43.121-10.236,43.121-10.236
			C106.739,108.384,110.019,102.749,112.064,97.163z"/>
		<path style="fill:#010002;" d="M266.468,123.712l0.479-0.435c10.182-9.29-6.249-43.877-6.249-43.877
			c-4.645-5.091-9.959-8.871-15.338-11.422c-8.431,11.884-19.341,21.849-31.987,29.186c2.045,5.586,5.325,11.221,9.97,16.312
			C223.347,113.475,256.286,133.001,266.468,123.712z"/>
		<path style="fill:#010002;" d="M63.787,31.264c-1.539-7.016-2.41-14.278-2.41-21.745c0-3.214,0.19-6.38,0.484-9.513H13.622
			C10.511,2.85,8.439,5.945,8.439,9.192v0.647c0,13.783,36.627,24.96,36.627,24.96C51.913,34.799,58.299,33.494,63.787,31.264z"/>
		<path style="fill:#010002;" d="M162.718,98.327c4.95,0,9.769-0.506,14.495-1.284c12.303-2.023,23.758-6.527,33.809-13.059
			c8.175-5.314,15.398-11.928,21.414-19.559c9.078-11.509,15.322-25.313,17.807-40.407c0.778-4.727,1.284-9.546,1.284-14.495
			c0-3.214-0.19-6.385-0.528-9.513h-4.656H79.092h-4.656c-0.332,3.127-0.528,6.298-0.528,9.513c0,4.95,0.506,9.769,1.284,14.495
			c2.486,15.088,8.73,28.892,17.813,40.401c6.021,7.631,13.244,14.245,21.414,19.559c10.051,6.532,21.501,11.036,33.809,13.059
			C152.955,97.822,157.774,98.327,162.718,98.327z"/>
		<path style="fill:#010002;" d="M77.983,153.817c-5.205-3.013-11.857-1.246-14.865,3.965l-34.331,59.275
			c-3.008,5.194-1.235,11.852,3.965,14.86c1.719,0.995,3.59,1.469,5.439,1.469c3.753,0,7.408-1.942,9.426-5.428l34.331-59.275
			C84.955,163.487,83.177,156.83,77.983,153.817z"/>
		<path style="fill:#010002;" d="M269.9,157.782c-3.008-5.2-9.665-6.973-14.865-3.965c-5.2,3.013-6.973,9.665-3.96,14.86
			l34.331,59.275c2.018,3.486,5.668,5.428,9.42,5.428c1.849,0,3.726-0.473,5.439-1.469c5.2-3.013,6.973-9.665,3.96-14.86
			L269.9,157.782z"/>
		<path style="fill:#010002;" d="M105.689,246.564c1.012,0.294,2.029,0.435,3.03,0.435c4.721,0,9.067-3.095,10.443-7.854
			l17.895-61.788c1.675-5.776-1.653-11.808-7.424-13.478c-5.765-1.67-11.803,1.653-13.473,7.419l-17.895,61.788
			C96.59,238.862,99.918,244.894,105.689,246.564z"/>
		<path style="fill:#010002;" d="M215.83,239.884c1.675,4.302,5.782,6.929,10.138,6.929c1.316,0,2.654-0.245,3.954-0.751
			c5.597-2.181,8.365-8.496,6.179-14.087l-23.959-61.418c-2.181-5.602-8.496-8.36-14.087-6.184
			c-5.597,2.181-8.365,8.496-6.179,14.087L215.83,239.884z"/>
		<path style="fill:#010002;" d="M154.336,259.373h-4.922c-4.498,0-8.159,4.09-8.159,9.116v28.919
			c0,13.483-14.528,16.312-26.722,16.312c-9.513,0-25.466-2.121-25.466-16.312v-28.919c0-5.026-3.66-9.116-8.159-9.116h-4.917
			c-4.498,0-8.159,4.09-8.159,9.116v28.74c0,18.194,16.393,28.218,46.161,28.218c31.275,0,48.5-10.144,48.5-28.561v-28.397
			C162.495,263.457,158.834,259.373,154.336,259.373z"/>
		<path style="fill:#010002;" d="M268.502,259.373h-5.814c-3.911,0-8.692,2.633-11.112,6.124l-17.03,24.525
			c-4.449,6.44-8.028,11.797-11.03,17.003c-0.228,0.392-0.446,0.778-0.658,1.148l-0.62-1.186
			c-3.03-5.646-6.728-11.498-10.269-16.981l-15.577-24.269c-2.328-3.628-7.054-6.364-11.003-6.364h-5.999
			c-2.361,0-4.248,0.995-5.178,2.725c-1.001,1.871-0.707,4.253,0.81,6.543l32.814,49.561c2.366,3.573,7.114,6.266,11.047,6.266
			h6.353c3.889,0,8.692-2.578,11.172-5.994l36.202-49.92c1.615-2.23,2.002-4.585,1.044-6.451
			C272.772,260.368,270.895,259.373,268.502,259.373z"/>
	</g>
</g>
<g>
</g>
<g>
</g>
<g>
</g>
<g>
</g>
<g>
</g>
<g>
</g>
<g>
</g>
<g>
</g>
<g>
</g>
<g>
</g>
<g>
</g>
<g>
</g>
<g>
</g>
<g>
</g>
<g>
</g>
</svg>
