<svg width="90" height="76" viewBox="0 0 90 76" fill="none" xmlns="http://www.w3.org/2000/svg">
<path d="M38.2658 5.07635L42.7251 1.22353C44.6133 -0.407844 47.6666 -0.407844 49.5347 1.22353L88.5839 34.9444C90.472 36.5758 90.472 39.2137 88.5839 40.8277L49.5347 74.5659C47.6465 76.1973 44.5932 76.1973 42.7251 74.5659L38.2658 70.7131C36.3575 69.0644 36.3977 66.3744 38.3462 64.7603L62.5511 44.8368H4.82089C2.14931 44.8368 0 42.9798 0 40.6715V35.1179C0 32.8097 2.14931 30.9527 4.82089 30.9527H62.5511L38.3462 11.0291C36.3776 9.41511 36.3375 6.72508 38.2658 5.07635Z" fill="#4E4E4E"/>
</svg>
