<?xml version="1.0" encoding="UTF-8" standalone="no"?>
<!DOCTYPE svg PUBLIC "-//W3C//DTD SVG 1.1//EN" "http://www.w3.org/Graphics/SVG/1.1/DTD/svg11.dtd">
<svg width="100%" height="100%" viewBox="0 0 512 512" version="1.1" xmlns="http://www.w3.org/2000/svg" xmlns:xlink="http://www.w3.org/1999/xlink" xml:space="preserve" xmlns:serif="http://www.serif.com/" style="fill-rule:evenodd;clip-rule:evenodd;stroke-linejoin:round;stroke-miterlimit:2;">
    <g transform="matrix(0.5,0,0,0.5,150.115,-152.286)">
        <g id="Слой-1" serif:id="Слой 1">
            <path id="path20081" d="M186.747,1185.22C179.1,1180.56 179.106,1180.65 180.14,1090.89C181.138,1004.25 181.304,1002.11 187.747,992.708C189.396,990.302 193.529,986.433 196.931,984.112C202.26,980.475 203.445,978.794 205.487,971.98C208.193,962.945 215.846,953.303 223.379,949.439L228.199,946.965L217.562,946.152C189.902,944.036 173.038,939.253 170.04,932.673C167.891,927.956 170.918,919.297 176.046,915.496C179.238,913.129 182.103,912.643 195.135,912.261C215.149,911.673 217.101,912.501 222.909,924.034C226.281,930.728 228.449,933.399 231.56,934.687C233.953,935.678 236.134,935.902 236.706,935.216C237.252,934.561 239.72,928.929 242.189,922.702C256.404,886.854 277.97,852.42 290.152,846.121C293.814,844.227 314.46,841.551 348.792,838.521C390.743,834.818 483.455,837.045 531.29,842.904C546.764,844.799 550.239,846.082 556.583,852.238C567.8,863.124 586.541,895.979 597.894,924.66C600.205,930.5 602.373,935.725 602.71,936.271C603.048,936.817 605.463,936.244 608.077,934.997C611.74,933.25 613.864,930.679 617.334,923.787C621.28,915.952 622.459,914.671 626.851,913.452C633.266,911.67 651.713,911.653 658.086,913.421C669.825,916.682 673.846,930.789 664.774,936.883C658.776,940.912 644.017,944.065 626.868,944.98C618.992,945.4 612.58,946.104 612.62,946.544C612.66,946.984 615.491,949.142 618.911,951.34C626.683,956.334 632.4,964.392 634.367,973.124C635.712,979.098 636.688,980.412 643.12,984.909C651.593,990.833 655.922,998.2 657.85,1009.97C658.6,1014.55 659.159,1052.2 659.163,1098.38L659.171,1178.81L649.657,1187.79L596.711,1187.79L592.973,1184.58L589.236,1181.36L588.8,1163.3L588.364,1145.23L568.152,1144.86L547.941,1144.49L537.284,1149.82L526.627,1155.15L313.492,1155.15L303.867,1150.16L294.243,1145.16L250.217,1145.16L250.217,1181.25L246.693,1184.52L243.168,1187.79L217.053,1187.78C193.657,1187.78 190.503,1187.51 186.747,1185.22L186.747,1185.22ZM294.177,1050.57L294.177,1038.56L192.271,1039.26L192.299,1046.81C192.329,1054.75 194.68,1059.03 200.264,1061.31C201.729,1061.91 223.459,1062.44 248.552,1062.49L294.176,1062.57L294.177,1050.57ZM199.864,1054.31C198.985,1053.43 198.266,1050.74 198.266,1048.32C198.266,1042.89 201.357,1042.41 205.164,1047.25L207.784,1050.58L288.848,1050.58L288.848,1055.91L245.155,1055.91C212.948,1055.91 201.042,1055.49 199.864,1054.31ZM643.48,1058.7L647.812,1054.83L647.85,1037.93L545.278,1037.93L544.512,1062.57L639.149,1062.57L643.481,1058.7L643.48,1058.7ZM551.271,1055.91L551.271,1050.58L632.507,1050.58L634.17,1047.92C636.719,1043.84 640.522,1044.48 640.522,1048.98C640.522,1051.04 639.802,1053.43 638.923,1054.31C637.746,1055.49 625.987,1055.91 594.298,1055.91L551.271,1055.91ZM295.509,1026.61L295.509,1006.73L290.513,1005.46C287.766,1004.77 269.633,1000.51 250.217,996.004L214.917,987.811L209.971,989.888C197.866,994.971 191.605,1005.3 191.605,1020.19L191.605,1026.61L295.509,1026.61ZM648.022,1017.19C647.125,1007.54 644.036,999.632 639.664,995.795C635.469,992.112 628.333,989.031 624.004,989.034C621.733,989.035 604.289,992.744 585.24,997.276C566.191,1001.81 549.257,1005.62 547.609,1005.74L544.613,1005.96L544.612,1016.28L544.611,1026.61L648.897,1026.61L648.022,1017.19ZM573.2,927.697C571.227,921.099 560.334,900.335 555.618,894.181C546.138,881.811 542.697,879.945 525.695,877.955C504.578,875.484 453.842,873.067 452.443,874.466C450.693,876.216 420.726,928.279 420.726,929.569C420.726,930.188 455.234,930.694 497.411,930.694L574.096,930.694L573.2,927.697Z" style="fill-rule:nonzero;"/>
        </g>
    </g>
    <g transform="matrix(0.5,0,0,0.5,14.409,119.573)">
        <g id="Слой-11" serif:id="Слой 1">
            <path id="path23" d="M17.407,348.514C9.759,343.85 9.766,343.946 10.8,254.177C11.798,167.543 11.964,165.401 18.406,155.999C20.055,153.593 24.188,149.724 27.59,147.402C32.92,143.766 34.105,142.085 36.146,135.271C38.852,126.236 46.506,116.594 54.038,112.729L58.859,110.256L48.221,109.442C20.562,107.327 3.698,102.543 0.7,95.963C-1.449,91.247 1.578,82.588 6.705,78.786C9.897,76.42 12.762,75.934 25.794,75.551C45.808,74.964 47.761,75.791 53.569,87.324C56.94,94.019 59.109,96.689 62.22,97.978C64.612,98.969 66.793,99.193 67.366,98.506C67.912,97.851 70.379,92.22 72.849,85.992C87.064,50.144 108.629,15.711 120.811,9.411C124.473,7.518 145.119,4.842 179.452,1.812C221.402,-1.891 314.115,0.335 361.949,6.195C377.424,8.09 380.898,9.372 387.242,15.529C398.459,26.415 417.201,59.27 428.554,87.951C430.865,93.791 433.032,99.015 433.37,99.561C433.707,100.107 436.122,99.535 438.737,98.287C442.4,96.541 444.523,93.969 447.994,87.078C451.94,79.242 453.119,77.962 457.51,76.742C463.926,74.961 482.373,74.944 488.746,76.716C500.484,79.976 504.506,94.083 495.434,100.177C489.436,104.206 474.676,107.359 457.527,108.274C449.651,108.695 443.24,109.399 443.28,109.838C443.319,110.278 446.15,112.436 449.571,114.634C457.343,119.629 463.06,127.687 465.026,136.419C466.372,142.393 467.347,143.706 473.78,148.204C482.253,154.128 486.582,161.494 488.51,173.267C489.259,177.844 489.818,215.497 489.823,261.674L489.831,342.108L485.074,346.595L480.317,351.082L453.844,351.082C427.788,351.082 427.312,351.031 423.633,347.87C419.927,344.685 419.892,344.505 419.46,326.59L419.024,308.523L398.812,308.156L378.601,307.789L367.944,313.117L357.287,318.445L144.151,318.445L134.527,313.45L124.903,308.455L80.877,308.455L80.877,326.502C80.877,344.306 80.83,344.592 77.352,347.815C73.859,351.052 73.59,351.082 47.713,351.077C24.316,351.073 21.162,350.806 17.407,348.516L17.407,348.514ZM124.836,213.858L124.836,201.853L22.931,202.551L22.957,210.102C22.987,218.038 25.337,222.318 30.921,224.603C32.386,225.203 54.116,225.732 79.21,225.778L124.834,225.862L124.836,213.858ZM30.524,217.603C29.644,216.724 28.925,214.027 28.925,211.609C28.925,206.181 32.016,205.703 35.824,210.543L38.443,213.874L78.975,213.874C118.62,213.874 119.508,213.932 119.508,216.538C119.508,219.148 118.62,219.202 75.815,219.202C43.608,219.202 31.702,218.782 30.524,217.603ZM474.139,221.992C478.16,218.399 478.473,217.514 478.49,209.67L478.508,201.219L375.936,201.219L375.553,213.541L375.17,225.862L469.807,225.862L474.139,221.992ZM381.931,216.538C381.931,213.932 382.819,213.874 422.548,213.874C461.723,213.874 463.225,213.779 464.83,211.209C467.379,207.128 471.181,207.767 471.181,212.275C471.181,214.327 470.462,216.724 469.583,217.603C468.405,218.781 456.647,219.202 424.957,219.202C382.819,219.202 381.931,219.147 381.931,216.538ZM126.168,189.896L126.168,170.017L121.173,168.752C118.425,168.056 100.292,163.801 80.877,159.295C46.577,151.334 45.436,151.161 40.63,153.179C28.525,158.262 22.265,168.59 22.265,183.477L22.265,189.896L126.168,189.896ZM478.682,180.484C477.784,170.83 474.696,162.923 470.324,159.085C466.128,155.403 458.992,152.322 454.663,152.324C452.392,152.325 434.948,156.035 415.899,160.567C396.85,165.099 379.916,168.907 378.268,169.028C375.438,169.236 375.272,169.821 375.271,179.572L375.27,189.896L479.556,189.896L478.682,180.484ZM421.876,103.643C421.85,99.869 411.052,74.288 404.212,61.787C396.956,48.527 385.77,36.323 377.575,32.726C370.487,29.616 353.878,28.08 296.677,25.248C246.053,22.741 194.358,23.263 160.803,26.619C130.489,29.65 125.149,30.832 117.856,36.125C111.605,40.662 101.463,52.44 98.012,59.171C97.023,61.101 95.011,64.774 93.54,67.332C92.07,69.891 90.185,73.787 89.352,75.991C88.518,78.195 85.67,85.07 83.024,91.27C80.378,97.47 78.213,103.315 78.213,104.258C78.213,105.649 110.784,105.974 250.053,105.974C412.829,105.974 421.893,105.851 421.876,103.643Z" style="fill-rule:nonzero;"/>
        </g>
    </g>
</svg>
