<?xml version="1.0" encoding="UTF-8" standalone="no"?>
<!DOCTYPE svg PUBLIC "-//W3C//DTD SVG 1.1//EN" "http://www.w3.org/Graphics/SVG/1.1/DTD/svg11.dtd">
<svg width="100%" height="100%" viewBox="0 0 473 473" version="1.1" xmlns="http://www.w3.org/2000/svg" xmlns:xlink="http://www.w3.org/1999/xlink" xml:space="preserve" xmlns:serif="http://www.serif.com/" style="fill-rule:evenodd;clip-rule:evenodd;stroke-linejoin:round;stroke-miterlimit:2;">
    <g>
        <g>
            <path d="M100.396,422.721L85.16,469.137L387.113,469.137L371.877,422.721L100.396,422.721ZM147.766,460.542L98.174,460.542L107.768,431.316L176.991,431.316C167.25,441.058 157.508,450.8 147.766,460.542Z" style="fill-rule:nonzero;"/>
            <path d="M235.278,142.505C168.817,142.505 114.94,196.382 114.94,262.843L114.94,410.687L357.336,410.687L357.336,262.844C357.336,196.383 303.459,142.506 236.998,142.506L235.278,142.505ZM334.126,266.282C334.126,271.978 329.507,276.596 323.812,276.596C318.116,276.596 313.498,271.977 313.498,266.282C313.498,224.574 279.565,190.641 237.856,190.641L236.137,190.641C230.441,190.641 225.823,186.022 225.823,180.327C225.823,174.63 230.441,170.012 236.137,170.012L237.856,170.012C290.939,170.011 334.126,213.198 334.126,266.282Z" style="fill-rule:nonzero;"/>
            <path d="M95.576,214.582C97.706,203.964 90.828,193.631 80.213,191.5L23.467,180.112C12.85,177.983 2.518,184.861 0.387,195.476C-0.076,197.787 -0.113,200.082 0.221,202.283C1.425,210.2 7.445,216.889 15.75,218.556L72.495,229.944C83.112,232.075 93.446,225.197 95.576,214.582Z" style="fill-rule:nonzero;"/>
            <path d="M82.562,83.1L118.711,128.299C125.473,136.754 137.812,138.127 146.267,131.365C154.724,124.602 156.093,112.265 149.333,103.808L113.185,58.609C106.421,50.154 94.085,48.781 85.628,55.543C79.955,60.08 77.471,67.124 78.49,73.823C78.992,77.111 80.336,80.316 82.562,83.1Z" style="fill-rule:nonzero;"/>
            <path d="M238.59,100.202C249.414,100.456 258.396,91.887 258.651,81.062L258.512,23.204C258.769,12.382 250.2,3.396 239.373,3.142C228.549,2.888 219.567,11.457 219.312,22.28L219.45,80.14C219.421,81.309 219.498,82.455 219.669,83.574C221.074,92.803 228.934,99.974 238.59,100.202Z" style="fill-rule:nonzero;"/>
            <path d="M329.344,135.673C337.472,142.825 349.861,142.036 357.014,133.907L395.249,90.46C402.4,82.331 401.61,69.944 393.481,62.789C385.354,55.636 372.965,56.427 365.812,64.555L327.578,108.003C323.592,112.531 322.072,118.383 322.914,123.915C323.583,128.31 325.745,132.505 329.344,135.673Z" style="fill-rule:nonzero;"/>
            <path d="M472.048,206.575C470.418,195.871 460.421,188.513 449.715,190.143L392.499,198.85C381.794,200.478 374.436,210.477 376.064,221.181C377.694,231.886 387.692,239.243 398.397,237.615L455.613,228.909C466.318,227.279 473.676,217.281 472.048,206.575Z" style="fill-rule:nonzero;"/>
        </g>
    </g>
</svg>
