<?xml version="1.0" encoding="UTF-8" standalone="no"?>
<svg
   xmlns:dc="http://purl.org/dc/elements/1.1/"
   xmlns:cc="http://creativecommons.org/ns#"
   xmlns:rdf="http://www.w3.org/1999/02/22-rdf-syntax-ns#"
   xmlns:svg="http://www.w3.org/2000/svg"
   xmlns="http://www.w3.org/2000/svg"
   xmlns:sodipodi="http://sodipodi.sourceforge.net/DTD/sodipodi-0.dtd"
   xmlns:inkscape="http://www.inkscape.org/namespaces/inkscape"
   version="1.1"
   id="Capa_1"
   x="0px"
   y="0px"
   width="472.273px"
   height="472.273px"
   viewBox="0 0 472.273 472.273"
   style="enable-background:new 0 0 472.273 472.273;"
   xml:space="preserve"
   sodipodi:docname="police-light.svg"
   inkscape:version="1.0.1 (3bc2e813f5, 2020-09-07)"><metadata
   id="metadata55"><rdf:RDF><cc:Work
       rdf:about=""><dc:format>image/svg+xml</dc:format><dc:type
         rdf:resource="http://purl.org/dc/dcmitype/StillImage" /><dc:title></dc:title></cc:Work></rdf:RDF></metadata><defs
   id="defs53" /><sodipodi:namedview
   pagecolor="#ffffff"
   bordercolor="#666666"
   borderopacity="1"
   objecttolerance="10"
   gridtolerance="10"
   guidetolerance="10"
   inkscape:pageopacity="0"
   inkscape:pageshadow="2"
   inkscape:window-width="1920"
   inkscape:window-height="1027"
   id="namedview51"
   showgrid="false"
   inkscape:zoom="1.2876277"
   inkscape:cx="-7.4010796"
   inkscape:cy="283.21509"
   inkscape:window-x="-8"
   inkscape:window-y="-8"
   inkscape:window-maximized="1"
   inkscape:current-layer="g18" />
<g
   id="g18">
	<g
   id="g16">
		<path
   d="M100.396,422.721L85.16,469.137h301.953l-15.236-46.416H100.396L100.396,422.721z M147.766,460.542H98.174l9.594-29.226    h69.223C167.25,441.058,157.508,450.8,147.766,460.542z"
   id="path2"
   style="fill:#3771c8" />
		<path
   d="M235.278,142.505c-66.461,0-120.338,53.877-120.338,120.338v147.844h242.396V262.844    c0-66.461-53.877-120.338-120.338-120.338L235.278,142.505L235.278,142.505z M334.126,266.282c0,5.696-4.619,10.314-10.314,10.314    c-5.696,0-10.314-4.619-10.314-10.314c0-41.708-33.933-75.641-75.642-75.641h-1.719c-5.696,0-10.314-4.619-10.314-10.314    c0-5.697,4.618-10.315,10.314-10.315h1.719C290.939,170.011,334.126,213.198,334.126,266.282z"
   id="path4"
   style="fill:#3771c8" />
		<path
   d="M95.576,214.582c2.13-10.618-4.748-20.951-15.363-23.082l-56.746-11.388c-10.617-2.129-20.949,4.749-23.08,15.364    c-0.463,2.311-0.5,4.606-0.166,6.807c1.204,7.917,7.224,14.606,15.529,16.273l56.745,11.388    C83.112,232.075,93.446,225.197,95.576,214.582z"
   id="path6"
   style="fill:#3771c8" />
		<path
   d="M82.562,83.1l36.149,45.199c6.762,8.455,19.101,9.828,27.556,3.066c8.457-6.763,9.826-19.1,3.066-27.557l-36.148-45.199    c-6.764-8.455-19.1-9.828-27.557-3.066c-5.673,4.537-8.157,11.581-7.138,18.28C78.992,77.111,80.336,80.316,82.562,83.1z"
   id="path8"
   style="fill:#3771c8" />
		<path
   d="M238.59,100.202c10.824,0.254,19.806-8.315,20.061-19.14l-0.139-57.858c0.257-10.822-8.312-19.808-19.139-20.062    c-10.824-0.254-19.806,8.315-20.061,19.138l0.138,57.86c-0.029,1.169,0.048,2.315,0.219,3.434    C221.074,92.803,228.934,99.974,238.59,100.202z"
   id="path10"
   style="fill:#3771c8" />
		<path
   d="M329.344,135.673c8.128,7.152,20.517,6.363,27.67-1.766l38.235-43.447c7.151-8.129,6.361-20.516-1.768-27.671    c-8.127-7.153-20.516-6.362-27.669,1.766l-38.234,43.448c-3.986,4.528-5.506,10.38-4.664,15.912    C323.583,128.31,325.745,132.505,329.344,135.673z"
   id="path12"
   style="fill:#3771c8" />
		<path
   d="M472.048,206.575c-1.63-10.704-11.627-18.062-22.333-16.432l-57.216,8.707c-10.705,1.628-18.063,11.627-16.435,22.331    c1.63,10.705,11.628,18.062,22.333,16.434l57.216-8.706C466.318,227.279,473.676,217.281,472.048,206.575z"
   id="path14"
   style="fill:#3771c8" />
	</g>
</g>
<g
   id="g20">
</g>
<g
   id="g22">
</g>
<g
   id="g24">
</g>
<g
   id="g26">
</g>
<g
   id="g28">
</g>
<g
   id="g30">
</g>
<g
   id="g32">
</g>
<g
   id="g34">
</g>
<g
   id="g36">
</g>
<g
   id="g38">
</g>
<g
   id="g40">
</g>
<g
   id="g42">
</g>
<g
   id="g44">
</g>
<g
   id="g46">
</g>
<g
   id="g48">
</g>
</svg>
