<svg xmlns="http://www.w3.org/2000/svg" width="100%" height="100%" viewBox="0 0 326 326" fill-rule="evenodd" stroke-linejoin="round" stroke-miterlimit="2" fill="#fc0" xmlns:v="https://vecta.io/nano"><path d="M263.862.282l.484 9.513c0 7.468-.87 14.734-2.4 21.745 5.483 2.23 11.873 3.535 18.72 3.535 0 0 36.627-11.172 36.627-24.96V9.47c0-3.247-2.078-6.342-5.2-9.192H263.86v.005zm-79.116 108.45c-7.016 1.54-14.278 2.4-21.745 2.4s-14.734-.87-21.745-2.4c-2.23 5.483-3.535 11.873-3.535 18.72 0 0 11.172 36.627 24.96 36.627h.647c13.783 0 24.96-36.627 24.96-36.627-.007-6.848-1.312-13.238-3.542-18.72zM112.34 97.44a102.02 102.02 0 0 1-31.987-29.186c-5.38 2.545-10.688 6.33-15.338 11.422 0 0-16.43 34.587-6.25 43.877l.48.435c10.182 9.3 43.12-10.236 43.12-10.236 4.65-5.1 7.93-10.726 9.974-16.312zM266.745 124l.48-.435c10.182-9.3-6.25-43.877-6.25-43.877-4.645-5.1-9.96-8.87-15.338-11.422a101.97 101.97 0 0 1-31.987 29.186c2.045 5.586 5.325 11.22 9.97 16.312.004-.001 32.943 19.525 43.125 10.236zM64.064 31.54c-1.54-7.016-2.4-14.278-2.4-21.745 0-3.214.2-6.38.484-9.513H13.9c-3.1 2.844-5.183 5.94-5.183 9.186v.647c0 13.783 36.627 24.96 36.627 24.96 6.847 0 13.233-1.305 18.72-3.535zm98.93 67.064c4.95 0 9.77-.506 14.495-1.284 12.303-2.023 23.758-6.527 33.8-13.06a89.11 89.11 0 0 0 21.414-19.56 88.3 88.3 0 0 0 17.807-40.407c.778-4.727 1.284-9.546 1.284-14.495 0-3.214-.2-6.385-.528-9.513H74.713c-.332 3.127-.528 6.298-.528 9.513 0 4.95.506 9.77 1.284 14.495a88.26 88.26 0 0 0 17.813 40.4c6.02 7.63 13.244 14.245 21.414 19.56 10.05 6.532 21.5 11.036 33.8 13.06 4.727.785 9.546 1.3 14.5 1.3zm-84.735 55.5c-5.205-3.013-11.857-1.246-14.865 3.965l-34.33 59.275a10.88 10.88 0 0 0 3.965 14.86c1.72.995 3.6 1.47 5.44 1.47 3.753 0 7.408-1.942 9.426-5.428l34.33-59.275a10.89 10.89 0 0 0-3.965-14.866zm191.917 3.966c-3.008-5.2-9.665-6.973-14.865-3.965a10.87 10.87 0 0 0-3.96 14.86l34.33 59.275c2.018 3.486 5.668 5.428 9.42 5.428a10.79 10.79 0 0 0 5.44-1.47c5.2-3.013 6.973-9.665 3.96-14.86zm-164.21 88.78a10.85 10.85 0 0 0 3.03.435 10.88 10.88 0 0 0 10.443-7.854l17.895-61.788a10.88 10.88 0 0 0-7.424-13.478c-5.765-1.67-11.803 1.653-13.473 7.42l-17.895 61.788a10.88 10.88 0 0 0 7.424 13.478zm110.14-6.68c1.675 4.302 5.782 6.93 10.138 6.93 1.316 0 2.654-.245 3.954-.75a10.88 10.88 0 0 0 6.179-14.087l-23.96-61.418c-2.18-5.602-8.496-8.36-14.087-6.184a10.88 10.88 0 0 0-6.179 14.087z"/><path d="M154.613 259.65h-4.922c-4.498 0-8.16 4.1-8.16 9.116v28.92c0 13.483-14.528 16.312-26.722 16.312-9.513 0-25.466-2.12-25.466-16.312v-28.92c0-5.026-3.66-9.116-8.16-9.116h-4.917c-4.498 0-8.16 4.1-8.16 9.116v28.74c0 18.194 16.393 28.218 46.16 28.218 31.275 0 48.5-10.144 48.5-28.56v-28.397c.002-5.032-3.66-9.116-8.157-9.116z" fill="#b380ff"/><path d="M268.78 259.65h-5.814c-3.91 0-8.692 2.633-11.112 6.124l-17.03 24.525c-4.45 6.44-8.028 11.797-11.03 17.003l-.658 1.148-.62-1.186c-3.03-5.646-6.728-11.498-10.27-16.98l-15.577-24.27c-2.328-3.628-7.054-6.364-11.003-6.364h-6c-2.36 0-4.248.995-5.178 2.725-1 1.87-.707 4.253.8 6.543l32.814 49.56c2.366 3.573 7.114 6.266 11.047 6.266h6.353c3.89 0 8.692-2.578 11.172-5.994l36.202-49.92c1.615-2.23 2.002-4.585 1.044-6.45-.882-1.735-2.76-2.73-5.152-2.73z"/></svg>