<svg height="496pt" viewBox="0 0 496 496" width="496pt" xmlns="http://www.w3.org/2000/svg"><path d="m8 488v-384h96v-96h224v120l-3.839844 3.839844c-7.761718 7.761718-18.398437 12.160156-29.441406 12.160156-4.398438 0-8.878906-.71875-13.117188-2.160156l-17.601562-5.839844v24.480469c0 43.839843 24.800781 83.917969 64 103.519531v8h-54.878906c-10.722656 0-20.722656 5.359375-26.640625 14.238281l-19.28125 28.960938c-2.078125 3.121093-5.121094 5.359375-8.71875 6.480469l-63.039063 18.878906c-6.800781 2.082031-11.441406 8.242187-11.441406 15.363281v36.078125c0 8.800781 7.199219 16 16 16h48c0 17.679688 14.320312 32 32 32s32-14.320312 32-32h56v80zm0 0" fill="#e6e9ed"/><path d="m136 40h160v64h-160zm0 0" fill="#ffeaa7"/><path d="m104 8v96h-96zm0 0" fill="#a0d468"/><path d="m392 152v8.480469c0 43.839843-24.800781 83.917969-64 103.519531-39.199219-19.601562-64-59.679688-64-103.519531v-24.480469l17.601562 5.839844c4.238282 1.441406 8.71875 2.160156 13.117188 2.160156 11.042969 0 21.679688-4.398438 29.441406-12.160156l3.839844-3.839844 3.839844 3.839844c7.761718 7.761718 18.398437 12.160156 29.441406 12.160156 4.398438 0 8.878906-.71875 13.117188-2.160156l17.601562-5.839844zm0 0" fill="#b4dd7f"/><path d="m328 408h-56c0-17.679688-14.320312-32-32-32s-32 14.320312-32 32h-48c-8.800781 0-16-7.199219-16-16v-36.078125c0-7.121094 4.640625-13.28125 11.441406-15.363281l63.039063-18.878906c3.597656-1.121094 6.640625-3.359376 8.71875-6.480469l19.28125-28.960938c5.917969-8.878906 15.917969-14.238281 26.640625-14.238281h102.398437c10.320313 0 20.082031 4.960938 26.082031 13.441406l26.398438 36.957032c2.558594 3.601562 6.480469 5.921874 10.800781 6.5625l35.4375 5.039062c7.921875 1.199219 13.761719 7.921875 13.761719 15.839844v42.160156c0 8.800781-7.199219 16-16 16h-48c0-17.679688-14.320312-32-32-32s-32 14.320312-32 32zm0 0" fill="#ff826e"/><path d="m272 408c0 17.671875-14.328125 32-32 32s-32-14.328125-32-32 14.328125-32 32-32 32 14.328125 32 32zm0 0" fill="#838f9b"/><path d="m424 408c0 17.671875-14.328125 32-32 32s-32-14.328125-32-32 14.328125-32 32-32 32 14.328125 32 32zm0 0" fill="#838f9b"/><path d="m376 304 16 32h-136l16-32zm0 0" fill="#69d6f4"/><path d="m475.359375 326.078125-35.390625-5.03125c-2.25-.335937-4.183594-1.503906-5.464844-3.292969l-26.375-36.9375c-7.449218-10.527344-19.640625-16.816406-32.609375-16.816406h-31.582031c34.871094-22.695312 56.0625-61.167969 56.0625-103.519531v-5.167969l37.65625-37.65625-11.3125-11.3125-26.34375 26.34375v-7.777344l-28.167969 9.355469c-11.671875 3.949219-25.59375.65625-34.328125-8.082031l-1.503906-1.496094v-124.6875h-235.3125l-100.6875 100.6875v395.3125h336v-80h16.808594c3.71875 18.230469 19.871094 32 39.191406 32s35.472656-13.769531 39.191406-32h40.808594c13.230469 0 24-10.769531 24-24v-42.160156c0-11.953125-8.648438-21.945313-20.640625-23.761719zm-98.4375-176.636719 7.078125-2.351562v1.597656l-56 56-18.34375-18.34375-11.3125 11.3125 29.65625 29.65625 55.335938-55.335938c-3.695313 35.046876-24.070313 65.910157-55.335938 83-34.648438-18.9375-56-54.785156-56-94.496093v-13.390625l7.03125 2.335937c16.578125 5.621094 35.96875 1.519531 48.96875-10.195312 13 11.707031 32.496094 15.769531 48.921875 10.210937zm-280.921875-122.128906v68.6875h-68.6875zm224 452.6875h-304v-368h96v-96h208v108.6875l-1.496094 1.496094c-8.734375 8.738281-22.535156 12.074218-34.382812 8.0625l-28.121094-9.335938v35.5625c0 42.351563 21.191406 80.824219 56.0625 103.519532h-38.941406c-13.425782 0-25.875 6.65625-33.304688 17.816406l-19.28125 28.953125c-1.039062 1.558593-2.574218 2.695312-4.359375 3.246093l-63.078125 18.894532c-10.226562 3.136718-17.097656 12.378906-17.097656 23.019531v36.078125c0 13.230469 10.769531 24 24 24h40.808594c3.71875 18.230469 19.871094 32 39.191406 32s35.472656-13.769531 39.191406-32h40.808594zm-104-72c0-13.230469 10.769531-24 24-24s24 10.769531 24 24-10.769531 24-24 24-24-10.769531-24-24zm176 24c-13.230469 0-24-10.769531-24-24s10.769531-24 24-24 24 10.769531 24 24-10.769531 24-24 24zm88-40c0 4.414062-3.59375 8-8 8h-40.808594c-3.71875-18.230469-19.871094-32-39.191406-32s-35.472656 13.769531-39.191406 32h-73.617188c-3.71875-18.230469-19.871094-32-39.191406-32s-35.472656 13.769531-39.191406 32h-40.808594c-4.40625 0-8-3.585938-8-8v-36.078125c0-3.554687 2.328125-6.648437 5.734375-7.699219l63.113281-18.902344c5.410156-1.679687 9.90625-5.023437 13.007813-9.6875l19.28125-28.953124c4.457031-6.6875 11.925781-10.679688 19.984375-10.679688h102.398437c7.785157 0 15.097657 3.761719 19.570313 10.089844l26.382812 36.941406c3.757813 5.289062 9.648438 8.871094 16.199219 9.847656l35.359375 5.023438c4.039062.617187 6.96875 3.953125 6.96875 7.9375zm0 0"/><path d="m232 400h16v16h-16zm0 0"/><path d="m384 400h16v16h-16zm0 0"/><path d="m267.054688 296-24 48h161.890624l-24-48zm1.890624 32 8-16h94.109376l8 16zm0 0"/><path d="m304 32h-176v80h176zm-16 64h-144v-48h144zm0 0"/><path d="m208 64h16v16h-16zm0 0"/><path d="m240 64h16v16h-16zm0 0"/><path d="m176 64h16v16h-16zm0 0"/><path d="m32 128h184v16h-184zm0 0"/><path d="m32 192h184v16h-184zm0 0"/><path d="m144 160h72v16h-72zm0 0"/><path d="m32 160h96v16h-96zm0 0"/><path d="m32 224h184v16h-184zm0 0"/><path d="m32 256h184v16h-184zm0 0"/><path d="m153.328125 436.800781c-3.839844-8.785156-9.097656-20.800781-21.328125-20.800781-12.246094 0-17.503906 12.039062-21.335938 20.832031-1.328124 3.054688-4.871093 11.167969-6.585937 11.167969-1.820313 0-5.277344-7.878906-6.757813-11.246094-3.839843-8.761718-9.105468-20.753906-21.320312-20.753906-12.230469 0-17.488281 12.015625-21.328125 20.800781-1.472656 3.351563-4.902344 11.199219-6.671875 11.199219h-16v16h16c12.230469 0 17.488281-12.015625 21.328125-20.800781 1.472656-3.351563 4.902344-11.199219 6.671875-11.199219s5.199219 7.832031 6.664062 11.175781c3.855469 8.792969 9.144532 20.824219 21.414063 20.824219 12.1875 0 17.425781-12 21.25-20.769531 1.464844-3.359375 4.894531-11.230469 6.671875-11.230469 1.769531 0 5.199219 7.847656 6.671875 11.199219 3.839844 8.785156 9.097656 20.800781 21.328125 20.800781h16v-16h-16c-1.769531 0-5.199219-7.847656-6.671875-11.199219zm0 0"/><path d="m192 448h16v16h-16zm0 0"/></svg>