<?xml version="1.0" encoding="iso-8859-1"?>
<!-- Generator: Adobe Illustrator 19.0.0, SVG Export Plug-In . SVG Version: 6.00 Build 0)  -->
<svg version="1.1" id="Capa_1" xmlns="http://www.w3.org/2000/svg" xmlns:xlink="http://www.w3.org/1999/xlink" x="0px" y="0px"
	 viewBox="0 0 512 512" style="enable-background:new 0 0 512 512;" xml:space="preserve">
<path style="fill:#373C41;" d="M171.156,464.854c-6.478,0-11.73-5.252-11.73-11.73v-94.897c0-17.938,14.542-32.48,32.481-32.48
	s32.481,14.542,32.481,32.48v94.897c0,6.478-5.252,11.73-11.73,11.73H171.156z"/>
<path style="fill:#272A2E;" d="M395.366,464.854c-6.478,0-11.73-5.252-11.73-11.73v-97.488c0-16.508,14.542-29.89,32.481-29.89
	s32.481,13.382,32.481,29.89v97.488c0,6.478-5.252,11.73-11.73,11.73H395.366z"/>
<g>
	<rect x="171.267" y="415.279" style="fill:#50555A;" width="13.155" height="49.577"/>
	<rect x="199.394" y="415.279" style="fill:#50555A;" width="13.155" height="49.577"/>
	<rect x="395.475" y="415.279" style="fill:#50555A;" width="13.155" height="49.577"/>
	<rect x="423.602" y="415.279" style="fill:#50555A;" width="13.155" height="49.577"/>
</g>
<path style="fill:#D72846;" d="M168.766,294.219c-2.745,0-5.486-1.084-7.524-3.234l-28.932-30.505
	c-3.94-4.154-3.767-10.717,0.388-14.657c4.155-3.941,10.718-3.767,14.658,0.388l28.932,30.505c3.94,4.154,3.767,10.717-0.388,14.657
	C173.894,293.275,171.327,294.219,168.766,294.219z"/>
<path style="fill:#F75C66;" d="M110.465,266.655h29.097c8.138,0,14.736-6.598,14.736-14.736v-11.213
	c0-8.138-6.598-14.736-14.736-14.736h-29.097c-8.138,0-14.736,6.598-14.736,14.736v11.213
	C95.73,260.057,102.327,266.655,110.465,266.655z"/>
<path style="fill:#D72846;" d="M438.964,294.219c-2.562,0-5.127-0.943-7.133-2.845c-4.155-3.94-4.329-10.503-0.389-14.657
	l28.931-30.505c3.941-4.154,10.503-4.329,14.657-0.388c4.155,3.94,4.329,10.503,0.389,14.657l-28.931,30.505
	C444.45,293.134,441.71,294.219,438.964,294.219z"/>
<path style="fill:#E64B55;" d="M497.264,266.655h-29.097c-8.138,0-14.736-6.598-14.736-14.736v-11.213
	c0-8.138,6.598-14.736,14.736-14.736h29.097c8.138,0,14.736,6.598,14.736,14.736v11.213
	C512,260.057,505.402,266.655,497.264,266.655z"/>
<polygon style="fill:#A0EBFF;" points="437.156,278.235 170.949,278.235 191.043,159.834 417.062,159.834 "/>
<path style="fill:#373C41;" d="M321.833,202.351h-35.939c-2.653,0-4.804-2.151-4.804-4.804v-9.362c0-2.653,2.151-4.804,4.804-4.804
	h35.939c2.653,0,4.804,2.151,4.804,4.804v9.362C326.638,200.201,324.487,202.351,321.833,202.351z"/>
<path style="fill:#D72846;" d="M453.204,287.831c0.73,3.914-0.319,7.95-2.864,11.013c-2.545,3.063-6.319,4.834-10.301,4.834H167.982
	c-3.982,0-7.756-1.771-10.301-4.834c-2.545-3.063-3.594-7.099-2.864-11.013l24.16-129.518c1.183-6.34,6.716-10.936,13.165-10.936
	H415.88c6.449,0,11.982,4.596,13.165,10.936L453.204,287.831z M184.103,276.894h239.815l-19.164-102.733H203.267L184.103,276.894z"
	/>
<path style="fill:#696E73;" d="M360.05,224.804c-23.225,0-42.12,18.895-42.12,42.121c0,23.225,18.895,42.12,42.12,42.12
	s42.12-18.895,42.12-42.12C402.172,243.701,383.275,224.804,360.05,224.804z M360.05,295.65c-15.838,0-28.724-12.885-28.724-28.724
	c0-9.524,4.665-17.965,11.826-23.186c4.22-3.076,10.2-0.081,10.2,5.193c-0.296,5.159,0.879,8.377-1.727,12.068
	c-1.183,1.675-1.879,3.717-1.879,5.924c0,3.131,1.402,5.931,3.606,7.821v6.992h13.396v-6.992c2.205-1.89,3.607-4.69,3.607-7.822
	c0-2.206-0.696-4.249-1.879-5.924c-2.608-3.693-1.432-6.959-1.727-12.068c0-5.248,5.974-8.274,10.2-5.193
	c7.162,5.22,11.826,13.662,11.826,23.186C388.775,282.764,375.889,295.65,360.05,295.65z"/>
<path style="fill:#373C41;" d="M360.05,309.046c-23.225,0-42.12-18.895-42.12-42.12c0-23.225,18.895-42.12,42.12-42.12
	s42.12,18.895,42.12,42.12C402.171,290.151,383.275,309.046,360.05,309.046z M360.05,238.202c-15.838,0-28.724,12.886-28.724,28.724
	s12.885,28.724,28.724,28.724c15.839,0,28.724-12.886,28.724-28.724C388.775,251.086,375.89,238.202,360.05,238.202z"/>
<g style="opacity:0.22;">
	<path d="M224.386,436.412v-78.186c0-17.938-14.542-32.481-32.481-32.481s-32.481,14.542-32.481,32.481v66.13L224.386,436.412z"/>
	<path d="M448.597,436.412v-78.186c0-17.938-14.542-32.481-32.481-32.481s-32.481,14.542-32.481,32.481v66.13L448.597,436.412z"/>
</g>
<path style="fill:#E64B55;" d="M476.687,389.238c0,14.381-11.658,26.039-26.039,26.039H157.373
	c-14.381,0-26.039-11.658-26.039-26.039v-54.134c0-38.426,31.15-69.575,69.575-69.575h206.203c38.426,0,69.575,31.15,69.575,69.575
	V389.238z"/>
<path style="fill:#50555A;" d="M132.731,397.445c3.433,10.35,13.138,17.833,24.642,17.833h293.275
	c11.505,0,21.209-7.482,24.642-17.833H132.731z"/>
<g>
	<path style="fill:#D72846;" d="M355.376,397.445H253.641c-5.576,0-10.096-4.52-10.096-10.096v-50.969
		c0-5.576,4.52-10.096,10.096-10.096h101.735c5.576,0,10.096,4.52,10.096,10.096v50.969
		C365.472,392.925,360.951,397.445,355.376,397.445z"/>
	<ellipse style="fill:#D72846;" cx="191.039" cy="348.61" rx="28.493" ry="28.511"/>
	<ellipse style="fill:#D72846;" cx="416.974" cy="348.61" rx="28.493" ry="28.511"/>
</g>
<g>
	<ellipse style="fill:#FAC855;" cx="191.039" cy="341.912" rx="28.493" ry="28.511"/>
	<ellipse style="fill:#FAC855;" cx="416.974" cy="341.912" rx="28.493" ry="28.511"/>
</g>
<path style="fill:#B9B9BE;" d="M332.672,402.169h-56.326c-3.259,0-5.901-2.642-5.901-5.901v-14.843c0-3.259,2.642-5.901,5.901-5.901
	h56.326c3.259,0,5.901,2.642,5.901,5.901v14.843C338.571,399.526,335.93,402.169,332.672,402.169z"/>
<path style="fill:#D2D2D7;" d="M332.672,375.524h-56.326c-3.259,0-5.901,2.641-5.901,5.9v6.698c0-3.259,2.642-5.9,5.901-5.9h56.326
	c3.259,0,5.901,2.641,5.901,5.9v-6.698C338.571,378.165,335.93,375.524,332.672,375.524z"/>
<g>
	<ellipse style="fill:#FAF58C;" cx="416.974" cy="341.912" rx="16.158" ry="16.168"/>
	<ellipse style="fill:#FAF58C;" cx="191.039" cy="341.912" rx="16.158" ry="16.168"/>
</g>
<path style="fill:#E64B55;" d="M343.993,338.437h-78.969c-4.599,0-8.328,3.729-8.328,8.327c0,4.599,3.729,8.328,8.328,8.328h78.969
	c4.599,0,8.328-3.729,8.328-8.328S348.592,338.437,343.993,338.437z"/>
<path style="fill:#F75C66;" d="M391.126,293.873c-6.527,9.063-17.016,14.434-28.185,14.434H239.373
	c-7.586,0-14.709-3.648-19.141-9.803l-23.75-32.976h215.06L391.126,293.873z"/>
<g>
	<path style="fill:#FA870A;" d="M159.425,375.384c0-3.629-2.941-6.57-6.57-6.57h-21.278v23.934h21.278c3.629,0,6.57-2.941,6.57-6.57
		V375.384z"/>
	<path style="fill:#FA870A;" d="M455.636,368.814c-3.629,0-6.57,2.941-6.57,6.57v10.793c0,3.629,2.941,6.57,6.57,6.57h20.809
		c0.155-1.149,0.242-2.319,0.242-3.51v-20.424H455.636z"/>
</g>
<rect x="296.3" y="174.161" style="fill:#696E73;" width="16.411" height="9.22"/>
<g style="opacity:0.38;">
	<polygon style="fill:#FFFFFF;" points="286.449,174.162 260.997,174.162 211.431,265.528 236.883,265.528 	"/>
</g>
<g style="opacity:0.36;">
	<polygon style="fill:#FFFFFF;" points="314.581,174.162 299.845,174.162 250.28,265.528 265.016,265.528 	"/>
</g>
<path style="fill:#696E73;" d="M282.283,88.817c1.043-6.9-0.756-13.572-4.518-18.832c-0.579-0.81-1.593-1.188-2.562-0.956
	c-0.969,0.232-1.7,1.029-1.849,2.014l-1.875,12.401l-15.507,6.077l-13.016-10.39l1.831-12.108c0.15-0.992-0.321-1.976-1.189-2.481
	s-1.956-0.429-2.744,0.192c-4.964,3.908-8.51,9.637-9.529,16.378c-1.472,9.735,2.713,19.015,10.089,24.518l-11.02,72.881
	c-1.001,6.623,3.556,12.803,10.178,13.805c6.623,1.001,12.803-3.556,13.805-10.178l11.02-72.881
	C274.07,106.178,280.811,98.551,282.283,88.817z"/>
<path style="fill:#FFB69E;" d="M271.731,128.68c-6.761-8.306-18.978-9.556-27.283-2.794l-37.669,30.671l-11.04-23.356
	c-8.215-17.379-25.639-28.803-44.758-29.517v-0.036c-10.023,0-94.026,0-104.074,0c-25.737,0-46.779,20.614-46.906,45.954
	c0,0.033,0,0.066,0,0.098v143.383c0,10.779,8.739,19.518,19.517,19.518c10.779,0,19.517-8.739,19.517-19.518V149.767
	c0.041-3.712,3.784-7.084,7.873-7.084h0.698v148.402h103.376V142.581c4.175,0.634,7.859,3.318,9.693,7.198l21.62,45.737
	c5.372,11.366,20.012,14.704,29.778,6.75l56.866-46.304C277.243,149.2,278.494,136.986,271.731,128.68z"/>
<path style="fill:#64AFFF;" d="M195.739,133.203c-8.215-17.379-25.639-28.804-44.758-29.517v-0.036h-28.347
	c0.451,13.381-11.984,24.732-24.966,24.732c-13.915,0-24.234-11.308-24.947-24.732H46.906C21.17,103.65,0.128,124.264,0,149.604
	c0,0.033,0,0.066,0,0.098v38.438h39.033v-38.374c0.041-3.712,3.784-7.084,7.873-7.084h0.698c0,29.12,0,116.705,0,148.402h103.376
	c0-17.664,0-132.858,0-148.503c4.175,0.634,7.859,3.318,9.693,7.198l12.554,26.557l32.136-22.772L195.739,133.203z"/>
<path style="fill:#5F6E9B;" d="M150.981,291.084v-63.656h-14.639v-72.836H58.852v72.836H47.604v63.657l0,0l0,0v187.2
	c0,12.934,10.486,23.42,23.42,23.42s23.42-10.486,23.42-23.42v-187.2l0,0h9.697l0,0v187.2c0,12.934,10.486,23.42,23.42,23.42
	s23.42-10.486,23.42-23.42v-187.2V291.084z"/>
<circle style="fill:#FFB69E;" cx="99.305" cy="50.744" r="40.449"/>
<g>
	<rect x="79.724" y="170.545" style="fill:#414B82;" width="38.521" height="21.902"/>
	<rect x="58.856" y="103.646" style="fill:#414B82;" width="13.757" height="63.049"/>
	<rect x="122.583" y="103.646" style="fill:#414B82;" width="13.757" height="63.049"/>
</g>
<g>
	<circle style="fill:#5F6E9B;" cx="65.615" cy="159.409" r="2.889"/>
	<circle style="fill:#5F6E9B;" cx="129.442" cy="159.409" r="2.889"/>
</g>
<g>
</g>
<g>
</g>
<g>
</g>
<g>
</g>
<g>
</g>
<g>
</g>
<g>
</g>
<g>
</g>
<g>
</g>
<g>
</g>
<g>
</g>
<g>
</g>
<g>
</g>
<g>
</g>
<g>
</g>
</svg>
