<?xml version="1.0" encoding="iso-8859-1"?>
<!-- Generator: Adobe Illustrator 19.0.0, SVG Export Plug-In . SVG Version: 6.00 Build 0)  -->
<svg version="1.1" id="Capa_1" xmlns="http://www.w3.org/2000/svg" xmlns:xlink="http://www.w3.org/1999/xlink" x="0px" y="0px"
	 viewBox="0 0 512 512" style="enable-background:new 0 0 512 512;" xml:space="preserve">
<path style="fill:#FFB171;" d="M369.518,427.335c0,0,44.142-53.489,66.753-77.75c12.073-12.954,17.717-30.334,7.41-44.733
	c-10.306-14.399-32.574-20.283-44.733-7.41c-23.169,24.526-77.523,89.815-77.523,89.815"/>
<path style="fill:#FFCC99;" d="M498.788,301.846c-10.306-14.399-32.574-20.283-44.733-7.41
	c-23.169,24.526-77.523,89.815-77.523,89.815l-152.297,16.031v-64.125c0,0-32.063-32.063-88.172-32.063
	c-88.172,0-128.25,48.094-128.25,48.094v88.172h104.204l152.297,64.125l160.313-80.157c0,0,44.142-53.489,66.753-77.75
	C503.451,333.625,509.095,316.245,498.788,301.846z"/>
<path style="fill:#FFB171;" d="M498.788,301.846c-0.946-1.321-1.994-2.569-3.123-3.738c-29.593,37.857-87.071,110.19-87.071,110.19
	l-144.282,64.865l-152.297-64.125H7.811v31.323h104.204l152.297,64.125l160.313-80.157c0,0,44.142-53.489,66.753-77.75
	c3.167-3.399,6.851-9.165,10.359-16.028C505.441,321.024,505.235,310.851,498.788,301.846z"/>
<path style="fill:#FFCC99;" d="M325.331,361.65c0,0-133.16-57.556-189.27-57.556c-88.172,0-128.25,48.094-128.25,48.094v48.094
	h216.423l81.995,22.583c16.904,5.275,34.883-4.152,40.158-21.056S342.235,366.926,325.331,361.65z"/>
<path style="fill:#FFB171;" d="M306.229,398.818l-58.812-16.198c-11.664-3.212-23.183,5.564-23.183,17.661l0,0l81.995,22.583
	c16.904,5.275,34.883-4.152,40.158-21.056c2.3-7.371,1.804-14.947-0.889-21.585C339.317,395.562,322.291,403.83,306.229,398.818z"/>
<polygon style="fill:#AED45B;" points="424.625,159.812 256.297,304.094 87.968,159.812 160.109,159.812 160.109,7.515 
	352.484,7.515 352.484,159.812 "/>
<polygon style="fill:#9AC932;" points="192.171,199.89 192.171,7.515 160.109,7.515 160.109,159.812 87.968,159.812 
	256.297,304.094 281.904,282.145 "/>
<path d="M504.899,297.472c-7.174-10.023-19.124-16.759-31.189-17.578c-9.847-0.668-18.77,2.662-25.118,9.381
	c-1.393,1.474-2.896,3.093-4.486,4.827c-7.023-6.433-16.225-10.573-25.504-11.204c-9.851-0.666-18.77,2.662-25.118,9.381
	c-13.818,14.628-38.283,43.199-57.496,65.944c-2.506-1.482-5.188-2.705-8.024-3.621c-9.185-3.955-135.785-58.023-191.903-58.023
	c-90.65,0-132.295,48.723-134.024,50.798c-2.651,3.181-2.221,7.899,0.952,10.561c3.174,2.661,7.909,2.244,10.58-0.922
	c0.096-0.113,9.825-11.504,29.697-22.729c18.317-10.346,49.284-22.678,92.795-22.678c53.913,0,184.971,56.371,186.289,56.94
	c0.242,0.105,0.49,0.197,0.742,0.276c6.259,1.953,11.383,6.227,14.428,12.034c3.045,5.806,3.646,12.452,1.692,18.712
	c-1.838,5.887-5.949,10.997-11.316,14.036c-6.006,3.401-13.092,3.815-19.673,2.013l-81.995-22.583
	c-4.001-1.099-8.139,1.248-9.241,5.25c-1.102,4.001,1.248,8.138,5.249,9.24l81.881,22.551c16.144,4.979,34.207-1.124,43.965-14.921
	c2.395-3.387,4.241-7.151,5.477-11.11c1.028-3.292,1.609-6.652,1.765-10.009l21.992-2.315c1.946-0.205,3.736-1.161,4.989-2.665
	c0.542-0.651,54.466-65.387,77.212-89.464c9.456-10.009,26.334-2.914,33.161,6.624c10.497,14.666-2.548,30.678-6.796,35.237
	c-20.876,22.399-59.157,68.544-66.037,76.861l-155.801,77.901l-149.112-62.784c-0.923-0.389-1.915-0.589-2.917-0.589H7.811
	c-4.15,0-7.515,3.365-7.515,7.515s3.365,7.515,7.515,7.515h102.686l150.899,63.536c0.934,0.394,1.926,0.589,2.916,0.589
	c1.153,0,2.306-0.266,3.361-0.794l160.313-80.157c0.938-0.469,1.767-1.129,2.435-1.938c0.44-0.533,44.258-53.594,66.455-77.409
	C513.218,334.169,516.292,313.388,504.899,297.472z M372.712,377.096l-19.58,2.061c-1.388-3.93-3.389-7.623-5.913-10.938
	c16.366-19.374,42.962-50.555,57.192-65.617c4.112-4.352,9.439-4.959,13.173-4.708c5.892,0.401,11.932,3.18,16.475,7.383
	C411.512,330.729,380.816,367.39,372.712,377.096z"/>
<path d="M251.406,309.799c2.78,2.383,7.001,2.383,9.781,0l168.329-144.282c5.187-4.447,1.925-13.22-4.891-13.22h-64.626V67.131
	c0-4.15-3.364-7.515-7.515-7.515c-4.151,0-7.515,3.365-7.515,7.515v92.681c0,4.15,3.364,7.515,7.515,7.515h51.827l-148.015,126.87
	l-148.015-126.87h51.827c4.15,0,7.515-3.365,7.515-7.515V15.029H344.97v17.534c0,4.15,3.364,7.515,7.515,7.515
	c4.151,0,7.515-3.365,7.515-7.515V7.515c0-4.15-3.364-7.515-7.515-7.515H160.109c-4.15,0-7.515,3.365-7.515,7.515v144.783H87.968
	c-6.815,0-10.078,8.774-4.891,13.22L251.406,309.799z"/>
<path d="M208.203,159.311c1.923,0,3.847-0.733,5.313-2.201l96.188-96.188c2.935-2.935,2.935-7.693,0-10.627
	c-2.936-2.935-7.693-2.935-10.628,0l-96.188,96.188C198.259,151.111,201.631,159.311,208.203,159.311z"/>
<path d="M296.375,159.311c12.983,0,23.546-10.563,23.546-23.546s-10.563-23.546-23.546-23.546s-23.546,10.563-23.546,23.546
	S283.391,159.311,296.375,159.311z M296.375,127.249c4.696,0,8.517,3.82,8.517,8.517s-3.82,8.517-8.517,8.517
	c-4.696,0-8.517-3.82-8.517-8.517S291.679,127.249,296.375,127.249z"/>
<path d="M239.764,71.64c0-12.983-10.563-23.546-23.546-23.546c-12.983,0-23.546,10.563-23.546,23.546s10.563,23.546,23.546,23.546
	C229.202,95.186,239.764,84.623,239.764,71.64z M207.702,71.64c0-4.696,3.82-8.517,8.517-8.517c4.696,0,8.517,3.82,8.517,8.517
	s-3.82,8.517-8.517,8.517C211.522,80.157,207.702,76.336,207.702,71.64z"/>
<g>
</g>
<g>
</g>
<g>
</g>
<g>
</g>
<g>
</g>
<g>
</g>
<g>
</g>
<g>
</g>
<g>
</g>
<g>
</g>
<g>
</g>
<g>
</g>
<g>
</g>
<g>
</g>
<g>
</g>
</svg>
