<?xml version="1.0" encoding="utf-8"?>
<!-- Generator: Adobe Illustrator 22.0.1, SVG Export Plug-In . SVG Version: 6.00 Build 0)  -->
<svg xmlns="http://www.w3.org/2000/svg" xmlns:xlink="http://www.w3.org/1999/xlink" version="1.1" id="Layer_1" x="0px" y="0px" viewBox="0 0 256 256" style="enable-background:new 0 0 256 256;" xml:space="preserve" width="512" height="512">
<style type="text/css">
	.st0{fill:#3A312A;}
	.st1{fill:#D7E057;}
	.st2{fill:#F16C7A;}
	.st3{fill:#FCE8CB;}
	.st4{fill:#87796F;}
	.st5{fill:#8AC6DD;}
	.st6{fill:#CE4E61;}
	.st7{fill:#6CA8BF;}
	.st8{fill:#B9C239;}
	.st9{fill:#DECAAD;}
	.st10{fill:#695B51;}
	.st11{fill-rule:evenodd;clip-rule:evenodd;fill:#FCE8CB;}
	.st12{fill:#F5978A;}
	.st13{fill:#68A8BC;}
	.st14{fill:#B9BC39;}
	.st15{fill:#6B5B51;}
	.st16{fill:#D34E5C;}
	.st17{fill-rule:evenodd;clip-rule:evenodd;fill:#87796F;}
	.st18{fill-rule:evenodd;clip-rule:evenodd;fill:#F16C7A;}
</style>
<g>
	<g>
		<g>
			<path class="st1" d="M137.637,175.417c-0.974,11.564-13.025,13.39-13.025,13.39c10.347,0.487,12.925,14.059,12.925,14.059     c0.221-9.677,13.321-14.202,13.321-14.202C141.045,188.076,137.637,175.417,137.637,175.417z"/>
		</g>
	</g>
	<g>
		<g>
			<path class="st0" d="M150.949,187.167c-8.605-0.516-11.832-12.025-11.864-12.142c-0.191-0.703-0.863-1.159-1.583-1.102     c-0.725,0.066-1.298,0.642-1.359,1.367c-0.86,10.216-11.313,11.964-11.754,12.032c-0.763,0.116-1.313,0.791-1.273,1.561     c0.04,0.771,0.657,1.385,1.427,1.421c9.028,0.426,11.499,12.719,11.523,12.844c0.137,0.711,0.759,1.217,1.472,1.217     c0.042,0,0.085-0.002,0.127-0.005c0.764-0.064,1.357-0.693,1.375-1.46c0.195-8.509,12.192-12.777,12.313-12.819     c0.675-0.234,1.092-0.914,0.994-1.622C152.246,187.751,151.663,187.21,150.949,187.167z M137.382,197.513     c-1.356-3.131-3.709-6.908-7.587-8.877c2.931-1.405,6.409-3.913,8.202-8.273c1.551,3.071,4.2,6.881,8.334,8.723     C143.324,190.726,139.409,193.49,137.382,197.513z"/>
		</g>
	</g>
	<g>
		<g>
			<path class="st1" d="M115.938,192.397c-0.689,8.179-9.213,9.471-9.213,9.471c7.318,0.344,9.142,9.944,9.142,9.944     c0.156-6.845,9.422-10.045,9.422-10.045C118.349,201.352,115.938,192.397,115.938,192.397z"/>
		</g>
	</g>
	<g>
		<g>
			<path class="st0" d="M125.38,200.271c-5.766-0.346-7.972-8.187-7.994-8.266c-0.19-0.702-0.852-1.175-1.582-1.102     c-0.726,0.065-1.299,0.643-1.36,1.368c-0.579,6.871-7.647,8.066-7.943,8.113c-0.763,0.116-1.313,0.791-1.273,1.561     c0.04,0.771,0.657,1.385,1.427,1.421c6.036,0.284,7.724,8.645,7.74,8.727c0.135,0.713,0.759,1.22,1.472,1.22     c0.042,0,0.083-0.002,0.125-0.005c0.765-0.063,1.358-0.693,1.376-1.461c0.13-5.709,8.331-8.633,8.412-8.661     c0.676-0.233,1.094-0.913,0.996-1.622C126.679,200.854,126.094,200.313,125.38,200.271z M115.795,207.064     c-0.924-1.885-2.34-3.947-4.447-5.279c1.856-1.041,3.697-2.63,4.871-4.917c1.057,1.874,2.654,3.955,4.941,5.225     C119.31,203.193,117.171,204.832,115.795,207.064z"/>
		</g>
	</g>
	<g>
		<g>
			<path class="st1" d="M115.938,165.74c-0.689,8.179-9.213,9.471-9.213,9.471c7.318,0.344,9.142,9.944,9.142,9.944     c0.156-6.845,9.422-10.045,9.422-10.045C118.349,174.694,115.938,165.74,115.938,165.74z"/>
		</g>
	</g>
	<g>
		<g>
			<path class="st0" d="M125.379,173.612c-5.766-0.345-7.972-8.186-7.993-8.265c-0.19-0.702-0.852-1.168-1.582-1.102     c-0.726,0.065-1.299,0.643-1.36,1.368c-0.579,6.87-7.647,8.066-7.943,8.113c-0.763,0.116-1.313,0.791-1.273,1.561     c0.04,0.771,0.657,1.385,1.427,1.421c6.036,0.284,7.724,8.645,7.74,8.727c0.135,0.713,0.759,1.22,1.473,1.22     c0.041,0,0.083-0.002,0.125-0.005c0.765-0.063,1.358-0.693,1.376-1.461c0.13-5.709,8.332-8.634,8.412-8.662     c0.677-0.234,1.094-0.913,0.996-1.622C126.679,174.196,126.094,173.654,125.379,173.612z M115.795,180.407     c-0.924-1.886-2.34-3.947-4.448-5.279c1.856-1.042,3.697-2.63,4.871-4.917c1.057,1.874,2.654,3.954,4.941,5.224     C119.31,176.535,117.171,178.175,115.795,180.407z"/>
		</g>
	</g>
	<g>
		<g>
			<path class="st3" d="M80.141,207.546c-1.557-3.286-2.147-6.958-1.718-10.555l1.138-9.427c1.482-12.337-0.548-24.846-5.862-36.088     l-24.395-51.57L50.86,59.31c0.064-1.89-0.365-3.705-1.203-5.293c-2.19-4.134-7.495-5.809-11.671-3.694     c-1.739,0.881-3.285,2.362-3.704,4.864l-17.008,78.381c-1.084,6.485-0.376,13.142,2.04,19.251l10.769,24.728l6.066,13.894     l8.643,19.842h37.118L80.141,207.546z"/>
		</g>
	</g>
	<g>
		<g>
			<path class="st0" d="M83.268,210.64l-1.771-3.736c-1.435-3.028-1.983-6.395-1.584-9.732l1.138-9.428     c1.518-12.638-0.555-25.4-5.996-36.908L50.817,99.597l1.542-40.236c0.072-2.11-0.403-4.201-1.376-6.047     c-2.593-4.894-8.728-6.836-13.674-4.329c-2.508,1.27-4.066,3.329-4.493,5.884L15.795,133.32     c-1.128,6.749-0.394,13.682,2.144,20.097l10.769,24.729c0,0.001,0,0.001,0,0.002l14.709,33.733     c0.238,0.548,0.778,0.901,1.375,0.901h37.118c0.514,0,0.993-0.264,1.268-0.698S83.488,211.104,83.268,210.64z M45.777,209.782     L20.71,152.267c-2.318-5.86-2.994-12.241-1.969-18.381l17.021-78.451c0.284-1.694,1.233-2.929,2.903-3.774     c3.438-1.741,7.866-0.342,9.666,3.055c0.729,1.382,1.085,2.953,1.031,4.537l-1.557,40.597c-0.009,0.241,0.04,0.481,0.143,0.699     l24.394,51.57c5.198,10.995,7.18,23.191,5.729,35.267l-1.138,9.429c-0.466,3.901,0.175,7.835,1.852,11.375l0.756,1.594H45.777z"/>
		</g>
	</g>
	<g>
		<g>
			<path class="st0" d="M51.476,165.788c-1.688-9.357-3.506-16.73-5.264-23.861c-1.821-7.384-3.541-14.359-4.766-22.371     c-0.544-3.558-1.161-7.591-0.187-11.17c0.84-3.084,3.432-6.299,6.763-6.475c0.827-0.044,1.462-0.75,1.419-1.577     c-0.044-0.827-0.754-1.434-1.577-1.419c-4.974,0.263-8.411,4.686-9.499,8.684c-1.141,4.191-0.474,8.558,0.115,12.41     c1.246,8.146,2.981,15.185,4.819,22.637c1.747,7.085,3.553,14.411,5.225,23.676c0.131,0.725,0.763,1.233,1.474,1.233     c0.088,0,0.178-0.008,0.268-0.023C51.081,167.384,51.623,166.604,51.476,165.788z"/>
		</g>
	</g>
	<g>
		<g>
			<path class="st5" d="M90.994,211.279H37.832c-4.413,0-7.991,3.577-7.991,7.991v20.284h69.144V219.27     C98.985,214.856,95.407,211.279,90.994,211.279z"/>
		</g>
	</g>
	<g>
		<g>
			<path class="st0" d="M90.994,209.779H37.832c-5.233,0-9.491,4.257-9.491,9.49v20.284c0,0.828,0.671,1.5,1.5,1.5h39.392     c0.829,0,1.5-0.672,1.5-1.5s-0.671-1.5-1.5-1.5H31.341V219.27c0-3.579,2.912-6.49,6.491-6.49h53.162     c3.579,0,6.491,2.911,6.491,6.49v18.784h-13.15c-0.829,0-1.5,0.672-1.5,1.5s0.671,1.5,1.5,1.5h14.65c0.829,0,1.5-0.672,1.5-1.5     V219.27C100.485,214.036,96.227,209.779,90.994,209.779z"/>
		</g>
	</g>
	<g>
		<g>
			<path class="st4" d="M44.181,218.944c-3.575,0-6.472,2.897-6.472,6.472c0,3.575,2.898,6.472,6.472,6.472     c3.574,0,6.472-2.897,6.472-6.472C50.653,221.842,47.756,218.944,44.181,218.944z"/>
		</g>
	</g>
	<g>
		<g>
			<path class="st0" d="M44.181,217.444c-4.396,0-7.972,3.576-7.972,7.972c0,4.396,3.576,7.973,7.972,7.973     c4.396,0,7.972-3.576,7.972-7.973C52.153,221.021,48.577,217.444,44.181,217.444z M44.181,230.389     c-2.742,0-4.972-2.23-4.972-4.973c0-2.741,2.231-4.972,4.972-4.972s4.972,2.23,4.972,4.972     C49.153,228.158,46.923,230.389,44.181,230.389z"/>
		</g>
	</g>
	<g>
		<g>
			<path class="st3" d="M238.789,133.567l-17.007-78.381c-0.419-2.502-1.965-3.983-3.704-4.864     c-4.177-2.115-9.481-0.44-11.671,3.694c-0.837,1.589-1.267,3.404-1.202,5.293l1.557,40.597l-24.395,51.57     c-5.315,11.242-7.344,23.75-5.862,36.088l1.138,9.427c0.43,3.597-0.161,7.269-1.718,10.555l-1.772,3.736h37.118l8.644-19.842     l6.066-13.894l10.769-24.728C239.165,146.709,239.874,140.053,238.789,133.567z"/>
		</g>
	</g>
	<g>
		<g>
			<path class="st0" d="M240.255,133.249l-16.994-78.311c-0.439-2.625-1.998-4.684-4.506-5.954     c-4.949-2.507-11.082-0.563-13.676,4.332c-0.971,1.844-1.446,3.934-1.374,6.051l1.543,40.229l-24.237,51.239     c-5.441,11.507-7.514,24.269-5.996,36.908l1.138,9.425c0.399,3.339-0.149,6.705-1.584,9.734l-1.772,3.736     c-0.22,0.465-0.187,1.01,0.088,1.444s0.753,0.698,1.268,0.698h37.119c0.597,0,1.137-0.354,1.375-0.901l25.499-58.511     C240.663,147.002,241.397,140.069,240.255,133.249z M235.374,152.22l-25.086,57.563h-33.764l0.756-1.594     c1.677-3.541,2.318-7.475,1.852-11.377l-1.138-9.426c-1.45-12.077,0.531-24.272,5.729-35.268l24.395-51.57     c0.103-0.218,0.152-0.458,0.143-0.699l-1.557-40.59c-0.054-1.591,0.302-3.162,1.028-4.541c1.801-3.399,6.228-4.8,9.669-3.058     c1.67,0.846,2.619,2.08,2.917,3.845l16.994,78.31C238.349,140.025,237.672,146.406,235.374,152.22z"/>
		</g>
	</g>
	<g>
		<g>
			<path class="st0" d="M217.699,107.599c-1.087-3.998-4.524-8.421-9.498-8.684c-0.831-0.039-1.534,0.591-1.577,1.419     c-0.043,0.827,0.592,1.533,1.419,1.577c3.331,0.176,5.923,3.391,6.762,6.475c0.975,3.582,0.358,7.613-0.187,11.17     c-1.226,8.013-2.945,14.988-4.766,22.374c-1.758,7.13-3.576,14.502-5.264,23.858c-0.147,0.815,0.394,1.596,1.21,1.743     c0.09,0.016,0.18,0.023,0.268,0.023c0.711,0,1.343-0.509,1.474-1.233c1.671-9.264,3.478-16.589,5.224-23.674     c1.837-7.453,3.573-14.492,4.819-22.639C218.173,116.158,218.841,111.793,217.699,107.599z"/>
		</g>
	</g>
	<g>
		<g>
			<path class="st5" d="M217.643,211.279h-51.984c-4.739,0-8.58,3.841-8.58,8.58v19.694h69.144v-19.694     C226.223,215.121,222.382,211.279,217.643,211.279z"/>
		</g>
	</g>
	<g>
		<g>
			<path class="st0" d="M217.643,209.779h-51.984c-5.558,0-10.08,4.521-10.08,10.08v19.693c0,0.828,0.671,1.5,1.5,1.5h69.144     c0.829,0,1.5-0.672,1.5-1.5v-19.693C227.723,214.301,223.201,209.779,217.643,209.779z M224.723,238.053h-66.144v-18.193     c0-3.904,3.176-7.08,7.08-7.08h51.984c3.904,0,7.08,3.176,7.08,7.08V238.053z"/>
		</g>
	</g>
	<g>
		<g>
			<path class="st4" d="M211.883,218.944c-3.574,0-6.472,2.897-6.472,6.472c0,3.575,2.898,6.472,6.472,6.472     c3.575,0,6.472-2.897,6.472-6.472C218.355,221.842,215.458,218.944,211.883,218.944z"/>
		</g>
	</g>
	<g>
		<g>
			<path class="st0" d="M211.883,217.444c-4.396,0-7.972,3.576-7.972,7.972c0,4.396,3.576,7.973,7.972,7.973     c4.396,0,7.972-3.576,7.972-7.973C219.855,221.021,216.279,217.444,211.883,217.444z M211.883,230.389     c-2.741,0-4.972-2.23-4.972-4.973c0-2.741,2.231-4.972,4.972-4.972c2.742,0,4.972,2.23,4.972,4.972     C216.855,228.158,214.625,230.389,211.883,230.389z"/>
		</g>
	</g>
	<g>
		<g>
			<path class="st2" d="M128.021,25.831C88.309,1.072,58.927,27.772,58.927,59.368c0,16.88,10.992,34.913,25.939,50.503     l11.226,10.639c8.815,7.634,18.284,14.325,27.33,19.504c2.846,1.63,6.349,1.63,9.195,0     c29.909-17.126,64.496-50.702,64.496-80.646C197.114,27.772,167.732,1.072,128.021,25.831z"/>
		</g>
	</g>
	<g>
		<g>
			<path class="st0" d="M176.863,19.384c-13.894-7.712-31.209-6.041-48.842,4.686c-17.632-10.727-34.947-12.396-48.843-4.686     c-13.416,7.445-21.75,22.767-21.75,39.984c0,10.972,4.573,28.82,26.357,51.54c0.574,0.599,1.523,0.616,2.121,0.045     c0.598-0.573,0.618-1.523,0.044-2.121C69.491,91.667,60.427,74.101,60.427,59.368c0-16.129,7.743-30.444,20.207-37.361     c13.107-7.274,29.654-5.464,46.594,5.097c0.485,0.303,1.102,0.303,1.587,0c16.939-10.56,33.485-12.373,46.593-5.097     c12.464,6.917,20.207,21.232,20.207,37.361c0,21.291-21.895,55.383-63.742,79.344c-2.376,1.361-5.328,1.361-7.704,0     c-9.202-5.269-18.571-11.955-27.094-19.336c-0.626-0.543-1.574-0.475-2.116,0.152c-0.542,0.626-0.475,1.573,0.152,2.115     c8.668,7.506,18.2,14.308,27.567,19.672c1.648,0.943,3.496,1.415,5.343,1.415c1.848,0,3.695-0.472,5.343-1.415     c32.425-18.566,65.251-52.677,65.251-81.947C198.614,42.15,190.28,26.829,176.863,19.384z"/>
		</g>
	</g>
	<g>
		<g>
			<path class="st6" d="M175.404,22.01c-7.41-4.12-15.93-5.33-25-3.67c3.51,0.7,6.85,1.92,10,3.67     c12.47,6.91,20.21,21.23,20.21,37.36c0,20.66-20.62,53.38-60.09,77.19c1.19,0.73,2.41,1.44,3.64,2.15c2.38,1.36,5.33,1.36,7.71,0     c41.85-23.96,63.74-58.05,63.74-79.34C195.614,43.24,187.874,28.92,175.404,22.01z"/>
		</g>
	</g>
</g>
</svg>
