<svg height="512pt" viewBox="0 -11 512.00055 512" width="512pt" xmlns="http://www.w3.org/2000/svg"><path d="m472.621094 115.199219-16.796875-16.796875-3.601563-30.292969-29.996094-29.996094-29.992187-3.296875-140.976563-16.5-251.257812 250.359375 110.679688 110.378907 110.382812 110.382812 250.957031-250.058594-12.296875-105.582031zm-80.085938 46.195312-63.589844-63.589843 21.296876-21.296876 63.585937 63.589844zm0 0" fill="#ff4b00"/><path d="m459.722656 133.796875 12.296875 105.582031-250.957031 250.058594-110.382812-110.382812 250.058593-249.457032 31.796875 31.796875 21.292969-21.296875-31.792969-31.796875 55.191406-55.1875 14.996094 14.996094 3.601563 30.292969 16.796875 16.796875zm0 0" fill="#dd3400"/><path d="m511.613281 54.613281c-3 28.195313-23.097656 58.488281-51.890625 79.183594l-3.898437-35.394531c15.894531-15.894532 24.59375-33.894532 25.796875-47.089844.597656-5.398438.296875-12.597656-4.203125-17.097656-3.597657-3.597656-9.894531-5.097656-17.695313-3.597656-9.296875.898437-20.996094 5.398437-32.09375 13.195312-4.5 3.300781-9.296875 6.898438-13.796875 11.398438-15.597656 15.597656-24.296875 33.296874-25.496093 46.792968-.601563 7.496094.601562 13.496094 4.199218 17.097656l-20.996094 20.996094c-3.597656-3.601562-6.601562-7.800781-8.398437-12.597656-12-25.195312-.902344-62.691406 29.09375-92.683594 0-.300781.300781-.601562.300781-.601562 29.992188-29.992188 67.785156-41.390625 93.28125-29.695313 4.800782 1.800781 9.300782 4.800781 12.898438 8.398438 10.199218 10.199219 14.699218 24.898437 12.898437 41.695312zm0 0" fill="#ffbfab"/><path d="m166.972656 299.667969c-24.8125 0-44.992187-20.179688-44.992187-44.992188 0-24.808593 20.179687-44.992187 44.992187-44.992187 24.808594 0 44.992188 20.183594 44.992188 44.992187 0 24.8125-20.183594 44.992188-44.992188 44.992188zm0 0" fill="#fdbf00"/><path d="m316.945312 299.667969c-24.808593 0-44.992187-20.179688-44.992187-44.992188 0-24.808593 20.183594-44.992187 44.992187-44.992187 24.8125 0 44.992188 20.183594 44.992188 44.992187 0 24.8125-20.179688 44.992188-44.992188 44.992188zm0 0" fill="#ff9f00"/><path d="m271.652344 167.09375-10.445313 61.796875-.050781.289063-19.496094 117.882812-29.394531-4.800781 12.894531-76.785157.121094-.75 16.976562-102.433593zm0 0" fill="#fdbf00"/><path d="m388.335938 102.003906c-.601563 7.496094.597656 13.496094 4.199218 17.09375l-21 20.996094c-3.597656-3.597656-6.597656-7.796875-8.398437-12.59375zm0 0" fill="#ffa78f"/><path d="m511.613281 54.613281c-3 28.195313-23.097656 58.488281-51.890625 79.183594l-3.898437-35.394531c15.894531-15.894532 24.59375-33.894532 25.796875-47.089844.597656-5.398438.296875-12.597656-4.203125-17.097656-3.597657-3.597656-9.894531-5.097656-17.695313-3.597656l26.097656-26.097657c4.796876 1.800781 9.296876 4.800781 12.898438 8.398438 10.195312 10.199219 14.695312 24.898437 12.894531 41.695312zm0 0" fill="#ffa78f"/><path d="m261.207031 228.890625-.050781.289063-19.496094 117.882812-29.394531-4.800781 12.894531-76.785157.121094-.75zm0 0" fill="#ff9f00"/></svg>