<svg height="414pt" viewBox="-51 0 414 414.072" width="414pt" xmlns="http://www.w3.org/2000/svg"><path d="m208.378906 343.9375-52.152344 36.050781-52.152343-36.050781c-58.671875-40.554688-96.433594-105.980469-98.902344-177.261719-.09375-2.628906-.136719-5.261719-.136719-7.902343v-125.707032c97.324219-37.421875 205.0625-37.421875 302.386719 0v125.707032c0 2.636718-.046875 5.273437-.136719 7.902343-2.472656 71.277344-40.238281 136.707031-98.90625 177.261719zm0 0" fill="#4ea3da"/><g fill="#fff"><path d="m307.417969 33.066406c-97.320313-37.421875-205.0625-37.421875-302.382813 0v19.773438c97.320313-37.425782 205.0625-37.425782 302.382813 0zm0 0"/><path d="m6.828125 91.308594-3.589844-9.332032c1.578125-.605468 3.15625-1.203124 4.734375-1.789062l3.476563 9.375c-1.542969.574219-3.082031 1.15625-4.621094 1.746094zm0 0"/><path d="m22.675781 85.582031-3.210937-9.46875c3.214844-1.089843 6.433594-2.136719 9.664062-3.148437l2.980469 9.546875c-3.152344.984375-6.300781 2.007812-9.433594 3.070312zm267.078125-.007812c-3.136718-1.0625-6.285156-2.085938-9.4375-3.070313l2.980469-9.546875c3.230469 1.007813 6.453125 2.058594 9.664063 3.148438zm-246.226562-6.453125-2.710938-9.625c3.265625-.917969 6.539063-1.796875 9.820313-2.632813l2.472656 9.6875c-3.203125.816407-6.398437 1.675781-9.582031 2.570313zm225.375-.003906c-3.1875-.898438-6.378906-1.753907-9.582032-2.574219l2.476563-9.6875c3.277344.835937 6.546875 1.714843 9.8125 2.632812zm-204.214844-5.351563-2.199219-9.753906c3.304688-.746094 6.621094-1.453125 9.9375-2.117188l1.964844 9.804688c-3.238281.648437-6.472656 1.339843-9.703125 2.066406zm183.0625-.003906c-3.230469-.726563-6.464844-1.414063-9.707031-2.066407l1.964843-9.804687c3.316407.667969 6.628907 1.371094 9.9375 2.117187zm-161.648438-4.234375-1.6875-9.859375c3.34375-.570313 6.6875-1.101563 10.039063-1.59375l1.445313 9.894531c-3.269532.480469-6.535157 1-9.796876 1.558594zm140.234376-.003906c-3.261719-.558594-6.53125-1.078126-9.800782-1.554688l1.449219-9.894531c3.351563.488281 6.699219 1.019531 10.039063 1.589843zm-118.628907-3.109376-1.167969-9.933593c3.367188-.394531 6.738282-.75 10.105469-1.0625l.929688 9.957031c-3.289063.308594-6.582031.652344-9.867188 1.039062zm97.027344-.003906c-3.289063-.382812-6.578125-.730468-9.871094-1.035156l.929688-9.960938c3.371093.316407 6.738281.671876 10.105469 1.066407zm-75.289063-1.972656-.640624-9.976562c3.378906-.21875 6.761718-.398438 10.144531-.535157l.40625 9.992188c-3.304688.132812-6.609375.308593-9.910157.519531zm53.550782 0c-3.300782-.210938-6.609375-.386719-9.910156-.519531l.402343-9.992188c3.382813.136719 6.769531.316407 10.148438.53125zm-31.738282-.828125-.117187-10c3.386719-.042969 6.777344-.042969 10.160156 0l-.121093 10c-3.304688-.042969-6.613282-.042969-9.921876 0zm0 0"/><path d="m305.621094 91.308594c-1.535156-.589844-3.074219-1.171875-4.621094-1.746094l3.476562-9.375c1.578126.585938 3.15625 1.183594 4.734376 1.789062zm0 0"/></g><path d="m156.226562 386.066406-54.996093-38.015625c-60.800781-42.03125-98.582031-109.769531-101.054688-181.203125-.0937498-2.65625-.1406248-5.371094-.1406248-8.074218v-129.140626l3.2070318-1.234374c49.007812-18.84375 100.480468-28.398438 152.984374-28.398438 52.507813 0 103.980469 9.554688 152.988282 28.398438l3.207031 1.234374v129.140626c0 2.703124-.046875 5.421874-.140625 8.074218-2.472656 71.429688-40.253906 139.171875-101.054688 181.203125l-2.84375-4.113281 2.84375 4.113281zm-146.191406-349.550781v122.257813c0 2.585937.042969 5.1875.128906 7.722656 2.367188 68.292968 38.535157 133.085937 96.75 173.324218l49.3125 34.089844 49.308594-34.085937c58.214844-40.242188 94.382813-105.035157 96.75-173.320313.085938-2.542968.128906-5.140625.128906-7.730468v-122.257813c-46.890624-17.597656-96.054687-26.515625-146.1875-26.515625-50.132812 0-99.292968 8.917969-146.191406 26.515625zm0 0" fill="#122436"/><path d="m156.226562 386.066406-54.996093-38.015625c-60.800781-42.03125-98.582031-109.769531-101.054688-181.203125-.0937498-2.65625-.1406248-5.371094-.1406248-8.074218v-129.140626l3.2070318-1.234374c49.007812-18.84375 100.480468-28.398438 152.984374-28.398438 52.507813 0 103.980469 9.554688 152.988282 28.398438l3.207031 1.234374v129.140626c0 2.703124-.046875 5.421874-.140625 8.074218-2.472656 71.429688-40.253906 139.171875-101.054688 181.203125l-2.84375-4.113281 2.84375 4.113281zm-146.191406-349.550781v122.257813c0 2.585937.042969 5.1875.128906 7.722656 2.367188 68.292968 38.535157 133.085937 96.75 173.324218l49.3125 34.089844 49.308594-34.085937c58.214844-40.242188 94.382813-105.035157 96.75-173.320313.085938-2.542968.128906-5.140625.128906-7.730468v-122.257813c-46.890624-17.597656-96.054687-26.515625-146.1875-26.515625-50.132812 0-99.292968 8.917969-146.191406 26.515625zm0 0" fill="#122436"/><path d="m247.496094 192.257812c0-7.121093-5.792969-12.914062-12.914063-12.914062h-30.894531l4.292969-24.796875c1.160156-6.683594.917969-13.21875-.714844-19.417969-2.363281-8.964844-7.378906-17.035156-14.910156-23.992187-3.644531-3.363281-8.785157-4.359375-13.40625-2.59375-4.605469 1.757812-7.761719 5.902343-8.234375 10.816406-1.179688 12.246094-4.675782 28.960937-14.636719 39.050781-10.09375 10.230469-29.289063 27.296875-39.835937 36.558594l-3.570313 3.136719v-6.5c0-2.375-1.933594-4.304688-4.304687-4.304688h-39.105469c-2.375 0-4.304688 1.933594-4.304688 4.304688v78.792969c0 2.375 1.929688 4.304687 4.304688 4.304687h39.101562c2.375 0 4.304688-1.929687 4.304688-4.304687v-6.1875l73.953125 12.621093c1.125.3125 2.285156.46875 3.445312.46875h44.511719c7.121094 0 12.914063-5.792969 12.914063-12.914062v-72.128907zm0 0" fill="#fff"/><path d="m192.804688 114.570312s-1.074219 30.144532-17.863282 51.882813c-16.789062 21.738281-64.425781 57.046875-64.425781 57.046875v39.164062l69.957031 10.921876-1.167968-54.183594s-.570313-31.625 3.992187-35.507813c4.558594-3.878906 14.246094-2.398437 14.246094-2.398437l6.457031-9.445313s4.734375-20.234375 3.445312-30.347656c-1.296874-10.117187-14.640624-27.132813-14.640624-27.132813zm0 0" fill="#ffcc34"/><path d="m67.109375 206.902344h43.40625v65.648437h-43.40625zm0 0" fill="#4ea3da"/><path d="m99.109375 259.753906h-10v-10h10zm-22 0h-10v-10h10zm0 0" fill="#fff"/><path d="m234.582031 197.640625h-44.515625c-5.941406 0-10.761718 4.816406-10.761718 10.761719v55.984375c0 5.945312 4.820312 10.761719 10.761718 10.761719h44.515625c5.945313 0 10.761719-4.816407 10.761719-10.761719v-55.984375c0-5.945313-4.816406-10.761719-10.761719-10.761719zm0 0" fill="#ffcc34"/><path d="m88.8125 213.867188c3.84375 0 6.964844-3.117188 6.964844-6.964844 0-3.84375-3.121094-6.960938-6.964844-6.960938-3.847656 0-6.964844 3.117188-6.964844 6.960938 0 3.847656 3.117188 6.964844 6.964844 6.964844zm0 0" fill="#122436"/><path d="m235.523438 176.496094h-28.457032l3.71875-21.460938c1.230469-7.09375.972656-14.035156-.765625-20.632812-2.503906-9.5-7.796875-18.03125-15.734375-25.355469-4.441406-4.101563-10.710937-5.316406-16.351562-3.164063-5.628906 2.148438-9.476563 7.207032-10.054688 13.203126-1.136718 11.789062-4.457031 27.832031-13.828125 37.328124-9.691406 9.824219-27.910156 26.054688-38.535156 35.402344v-.398437c0-3.839844-3.125-6.964844-6.964844-6.964844h-39.480469c-3.839843 0-6.960937 3.125-6.960937 6.964844v79.167969c0 3.839843 3.125 6.964843 6.960937 6.964843h39.480469c3.839844 0 6.964844-3.125 6.964844-6.964843v-3l68.707031 11.710937c1.539063.542969 3.179688.851563 4.902344.851563h46.398438c8.171874 0 14.820312-6.648438 14.820312-14.820313v-74.015625c0-8.167969-6.648438-14.816406-14.820312-14.816406zm-130.003907 91.054687h-33.410156v-73.09375h33.40625v73.09375zm10-62.441406c6.984375-6.078125 32.957031-28.808594 45.652344-41.671875 11.433594-11.582031 15.371094-29.992188 16.660156-43.390625.214844-2.222656 1.585938-4.023437 3.664063-4.820313 2.101562-.796874 4.347656-.363281 6.007812 1.167969 6.515625 6.011719 10.835938 12.929688 12.847656 20.558594 1.367188 5.199219 1.5625 10.707031.585938 16.375l-4.015625 23.167969h-7.796875c-8.167969 0-14.816406 6.648437-14.816406 14.816406v74.015625c0 .738281.070312 1.457031.175781 2.164063l-58.964844-10.050782zm124.824219 60.21875c0 2.660156-2.160156 4.820313-4.816406 4.820313h-45.472656l-3.066407-.523438c-1.582031-.792969-2.679687-2.410156-2.679687-4.296875v-10.15625h28.019531v-10h-28.019531v-11.851563h28.019531v-10h-28.019531v-11.851562h28.019531v-10h-28.019531v-10.15625c0-2.660156 2.160156-4.820312 4.816406-4.820312h46.402344c2.65625 0 4.816406 2.164062 4.816406 4.820312zm0 0" fill="#122436"/><path d="m221.164062 201.472656h9.132813v10h-9.132813zm0 0" fill="#122436"/><path d="m178.117188 48.628906c-6.585938 0-11.941407-5.355468-11.941407-11.941406 0-5.492188-4.453125-9.949219-9.949219-9.949219-5.496093 0-9.949218 4.453125-9.949218 9.949219 0 6.585938-5.355469 11.941406-11.941406 11.941406-5.492188 0-9.949219 4.453125-9.949219 9.949219 0 5.492187 4.453125 9.949219 9.949219 9.949219 6.585937 0 11.941406 5.355468 11.941406 11.941406 0 5.492188 4.453125 9.949219 9.949218 9.949219 5.492188 0 9.949219-4.457031 9.949219-9.949219 0-6.585938 5.355469-11.941406 11.941407-11.941406 5.492187 0 9.949218-4.453125 9.949218-9.949219-.003906-5.496094-4.457031-9.949219-9.949218-9.949219zm0 0" fill="#ffcc34"/><path d="m156.226562 95.414062c-8.242187 0-14.949218-6.707031-14.949218-14.949218 0-3.828125-3.117188-6.941406-6.941406-6.941406-8.242188 0-14.949219-6.707032-14.949219-14.949219 0-8.246094 6.707031-14.949219 14.949219-14.949219 3.824218 0 6.941406-3.113281 6.941406-6.941406 0-8.242188 6.707031-14.949219 14.949218-14.949219 8.242188 0 14.949219 6.707031 14.949219 14.949219 0 3.828125 3.113281 6.941406 6.941407 6.941406 8.242187 0 14.949218 6.707031 14.949218 14.949219 0 8.242187-6.707031 14.949219-14.949218 14.949219-3.828126 0-6.941407 3.113281-6.941407 6.941406 0 8.242187-6.707031 14.949218-14.949219 14.949218zm0-63.675781c-2.730468 0-4.949218 2.21875-4.949218 4.949219 0 9.339844-7.601563 16.941406-16.941406 16.941406-2.726563 0-4.949219 2.21875-4.949219 4.949219 0 2.726563 2.21875 4.949219 4.949219 4.949219 9.339843 0 16.941406 7.597656 16.941406 16.941406 0 2.730469 2.21875 4.949219 4.949218 4.949219 2.730469 0 4.949219-2.21875 4.949219-4.949219 0-9.339844 7.601563-16.941406 16.941407-16.941406 2.726562 0 4.949218-2.21875 4.949218-4.949219s-2.21875-4.949219-4.949218-4.949219c-9.339844 0-16.941407-7.597656-16.941407-16.941406 0-2.730469-2.222656-4.949219-4.949219-4.949219zm0 0" fill="#122436"/><path d="m166.511719 320.703125c-24.078125-5.6875-48.210938 9.222656-53.894531 33.304687-5.6875 24.078126 9.222656 48.210938 33.304687 53.898438 24.082031 5.683594 48.210937-9.226562 53.898437-33.308594 5.683594-24.078125-9.226562-48.210937-33.308593-53.894531zm0 0" fill="#4ea3da"/><path d="m156.226562 332.1875c22.582032 0 41.261719 16.710938 44.347657 38.441406.296875-2.078125.453125-4.199218.453125-6.355468 0-24.746094-20.058594-44.804688-44.800782-44.804688-24.746093 0-44.800781 20.058594-44.800781 44.804688 0 2.15625.152344 4.28125.449219 6.355468 3.089844-21.730468 21.765625-38.441406 44.351562-38.441406zm0 0" fill="#fff"/><path d="m156.226562 414.070312c-27.460937 0-49.800781-22.339843-49.800781-49.800781 0-27.460937 22.339844-49.800781 49.800781-49.800781 27.460938 0 49.800782 22.339844 49.800782 49.800781 0 27.460938-22.339844 49.800781-49.800782 49.800781zm0-89.601562c-21.945312 0-39.800781 17.855469-39.800781 39.800781 0 21.945313 17.855469 39.800781 39.800781 39.800781 21.949219 0 39.800782-17.855468 39.800782-39.800781 0-21.945312-17.851563-39.800781-39.800782-39.800781zm0 0" fill="#122436"/><path d="m150.070312 386.835938-17.527343-17.53125 7.914062-7.914063 9.613281 9.613281 21.925782-21.925781 7.914062 7.914063zm0 0" fill="#fff"/></svg>